G04 Layer: BottomSolderMaskLayer*
G04 EasyEDA v6.4.19.4, 2021-06-11T14:51:01+08:00*
G04 1c108e45da03483e8fe651057a321652,2444bf6f38dc4a26b464d521983d9d6f,10*
G04 Gerber Generator version 0.2*
G04 Scale: 100 percent, Rotated: No, Reflected: No *
G04 Dimensions in millimeters *
G04 leading zeros omitted , absolute positions ,4 integer and 5 decimal *
%FSLAX45Y45*%
%MOMM*%

%ADD38C,1.6764*%
%ADD43C,1.7272*%
%ADD47C,0.7016*%

%LPD*%
D47*
X6451600Y8172246D02*
G01*
X6451600Y8342246D01*
X6324600Y8172246D02*
G01*
X6324600Y8342246D01*
X6197600Y8172246D02*
G01*
X6197600Y8342246D01*
X6070600Y8172246D02*
G01*
X6070600Y8342246D01*
X5943600Y8172246D02*
G01*
X5943600Y8342246D01*
X5816600Y8172246D02*
G01*
X5816600Y8342246D01*
X5689600Y8172246D02*
G01*
X5689600Y8342246D01*
X5562600Y8172246D02*
G01*
X5562600Y8342246D01*
X5435600Y8172246D02*
G01*
X5435600Y8342246D01*
X5308600Y8172246D02*
G01*
X5308600Y8342246D01*
X5181600Y8172246D02*
G01*
X5181600Y8342246D01*
X5054600Y8172246D02*
G01*
X5054600Y8342246D01*
X4927600Y8172246D02*
G01*
X4927600Y8342246D01*
X4800600Y8172246D02*
G01*
X4800600Y8342246D01*
X6451600Y9183751D02*
G01*
X6451600Y9353753D01*
X6324600Y9183751D02*
G01*
X6324600Y9353753D01*
X6197600Y9183751D02*
G01*
X6197600Y9353753D01*
X6070600Y9183751D02*
G01*
X6070600Y9353753D01*
X5943600Y9183751D02*
G01*
X5943600Y9353753D01*
X5816600Y9183751D02*
G01*
X5816600Y9353753D01*
X5689600Y9183751D02*
G01*
X5689600Y9353753D01*
X5562600Y9183751D02*
G01*
X5562600Y9353753D01*
X5435600Y9183751D02*
G01*
X5435600Y9353753D01*
X5308600Y9183751D02*
G01*
X5308600Y9353753D01*
X5181600Y9183751D02*
G01*
X5181600Y9353753D01*
X5054600Y9183751D02*
G01*
X5054600Y9353753D01*
X4927600Y9183751D02*
G01*
X4927600Y9353753D01*
X4800600Y9183751D02*
G01*
X4800600Y9353753D01*
G36*
X5677661Y4605781D02*
G01*
X5677661Y4716018D01*
X5777738Y4716018D01*
X5777738Y4605781D01*
G37*
G36*
X5499861Y4605781D02*
G01*
X5499861Y4716018D01*
X5600191Y4716018D01*
X5600191Y4605781D01*
G37*
G36*
X6269481Y3785107D02*
G01*
X6269481Y3885437D01*
X6379718Y3885437D01*
X6379718Y3785107D01*
G37*
G36*
X6269481Y3607562D02*
G01*
X6269481Y3707892D01*
X6379718Y3707892D01*
X6379718Y3607562D01*
G37*
G36*
X6078981Y3785107D02*
G01*
X6078981Y3885437D01*
X6189218Y3885437D01*
X6189218Y3785107D01*
G37*
G36*
X6078981Y3607562D02*
G01*
X6078981Y3707892D01*
X6189218Y3707892D01*
X6189218Y3607562D01*
G37*
G36*
X5164581Y3785107D02*
G01*
X5164581Y3885437D01*
X5274818Y3885437D01*
X5274818Y3785107D01*
G37*
G36*
X5164581Y3607562D02*
G01*
X5164581Y3707892D01*
X5274818Y3707892D01*
X5274818Y3607562D01*
G37*
G36*
X4986781Y3785107D02*
G01*
X4986781Y3885437D01*
X5097018Y3885437D01*
X5097018Y3785107D01*
G37*
G36*
X4986781Y3607562D02*
G01*
X4986781Y3707892D01*
X5097018Y3707892D01*
X5097018Y3607562D01*
G37*
G36*
X4818379Y7688579D02*
G01*
X4818379Y7856220D01*
X4986020Y7856220D01*
X4986020Y7688579D01*
G37*
D38*
G01*
X5156200Y7772400D03*
G36*
X6012179Y7688579D02*
G01*
X6012179Y7856220D01*
X6179820Y7856220D01*
X6179820Y7688579D01*
G37*
G01*
X6350000Y7772400D03*
G36*
X4500879Y6723379D02*
G01*
X4500879Y6891020D01*
X4668520Y6891020D01*
X4668520Y6723379D01*
G37*
G01*
X4584700Y6553200D03*
G01*
X4584700Y6299200D03*
G01*
X4584700Y6045200D03*
G36*
X6583679Y6723379D02*
G01*
X6583679Y6891020D01*
X6751320Y6891020D01*
X6751320Y6723379D01*
G37*
G01*
X6667500Y6553200D03*
G01*
X6667500Y6299200D03*
G01*
X6667500Y6045200D03*
G36*
X4217161Y8466581D02*
G01*
X4217161Y8576818D01*
X4317491Y8576818D01*
X4317491Y8466581D01*
G37*
G36*
X4394708Y8466581D02*
G01*
X4394708Y8576818D01*
X4495038Y8576818D01*
X4495038Y8466581D01*
G37*
G36*
X4217161Y7907781D02*
G01*
X4217161Y8018018D01*
X4317491Y8018018D01*
X4317491Y7907781D01*
G37*
G36*
X4394708Y7907781D02*
G01*
X4394708Y8018018D01*
X4495038Y8018018D01*
X4495038Y7907781D01*
G37*
G36*
X4833620Y9696958D02*
G01*
X4833620Y9787128D01*
X4908804Y9787128D01*
X4908804Y9696958D01*
G37*
G36*
X4833620Y9516871D02*
G01*
X4833620Y9607042D01*
X4908804Y9607042D01*
X4908804Y9516871D01*
G37*
G36*
X4920995Y9696958D02*
G01*
X4920995Y9787128D01*
X4981193Y9787128D01*
X4981193Y9696958D01*
G37*
G36*
X4920995Y9516871D02*
G01*
X4920995Y9607042D01*
X4981193Y9607042D01*
X4981193Y9516871D01*
G37*
G36*
X5001006Y9696958D02*
G01*
X5001006Y9787128D01*
X5061204Y9787128D01*
X5061204Y9696958D01*
G37*
G36*
X5001006Y9516871D02*
G01*
X5001006Y9607042D01*
X5061204Y9607042D01*
X5061204Y9516871D01*
G37*
G36*
X5073395Y9696958D02*
G01*
X5073395Y9787128D01*
X5148579Y9787128D01*
X5148579Y9696958D01*
G37*
G36*
X5073395Y9516871D02*
G01*
X5073395Y9607042D01*
X5148579Y9607042D01*
X5148579Y9516871D01*
G37*
D43*
G01*
X6146800Y4914900D03*
G01*
X6146800Y4660900D03*
G01*
X6146800Y4406900D03*
G01*
X5130800Y4406900D03*
G01*
X5130800Y4660900D03*
G01*
X5130800Y4914900D03*
G36*
X5842000Y3318510D02*
G01*
X5842000Y3554729D01*
X5971540Y3554729D01*
X5971540Y3318510D01*
G37*
G36*
X5610859Y3318510D02*
G01*
X5610859Y3554729D01*
X5740400Y3554729D01*
X5740400Y3318510D01*
G37*
G36*
X5382259Y3318510D02*
G01*
X5382259Y3554729D01*
X5511800Y3554729D01*
X5511800Y3318510D01*
G37*
G36*
X5490209Y3938270D02*
G01*
X5490209Y4174489D01*
X5861050Y4174489D01*
X5861050Y3938270D01*
G37*
G36*
X690879Y6748779D02*
G01*
X690879Y6916420D01*
X858520Y6916420D01*
X858520Y6748779D01*
G37*
D38*
G01*
X774700Y6578600D03*
G01*
X774700Y6324600D03*
G01*
X774700Y6070600D03*
G36*
X2659379Y6736079D02*
G01*
X2659379Y6903720D01*
X2827020Y6903720D01*
X2827020Y6736079D01*
G37*
G01*
X2743200Y6565900D03*
G01*
X2743200Y6311900D03*
G01*
X2743200Y6057900D03*
G36*
X1300479Y5262879D02*
G01*
X1300479Y5430520D01*
X1468120Y5430520D01*
X1468120Y5262879D01*
G37*
G01*
X1638300Y5346700D03*
G01*
X1892300Y5346700D03*
G01*
X2146300Y5346700D03*
G36*
X1300479Y6329679D02*
G01*
X1300479Y6497320D01*
X1468120Y6497320D01*
X1468120Y6329679D01*
G37*
G01*
X1638300Y6413500D03*
G01*
X1892300Y6413500D03*
G01*
X2146300Y6413500D03*
G36*
X1300479Y7371079D02*
G01*
X1300479Y7538720D01*
X1468120Y7538720D01*
X1468120Y7371079D01*
G37*
G01*
X1638300Y7454900D03*
G01*
X1892300Y7454900D03*
G01*
X2146300Y7454900D03*
G36*
X1300479Y8298179D02*
G01*
X1300479Y8465820D01*
X1468120Y8465820D01*
X1468120Y8298179D01*
G37*
G01*
X1638300Y8382000D03*
G01*
X1892300Y8382000D03*
G01*
X2146300Y8382000D03*
M02*
