G04 Layer: TopSolderMaskLayer*
G04 EasyEDA v6.4.19.4, 2021-06-11T14:51:01+08:00*
G04 1c108e45da03483e8fe651057a321652,2444bf6f38dc4a26b464d521983d9d6f,10*
G04 Gerber Generator version 0.2*
G04 Scale: 100 percent, Rotated: No, Reflected: No *
G04 Dimensions in millimeters *
G04 leading zeros omitted , absolute positions ,4 integer and 5 decimal *
%FSLAX45Y45*%
%MOMM*%

%ADD38C,1.6764*%
%ADD43C,1.7272*%

%LPD*%
G36*
X6332727Y7331963D02*
G01*
X6332727Y7552436D01*
X6533134Y7552436D01*
X6533134Y7331963D01*
G37*
G36*
X5912865Y7331963D02*
G01*
X5912865Y7552436D01*
X6113272Y7552436D01*
X6113272Y7331963D01*
G37*
G36*
X5151627Y7331963D02*
G01*
X5151627Y7552436D01*
X5352034Y7552436D01*
X5352034Y7331963D01*
G37*
G36*
X4731765Y7331963D02*
G01*
X4731765Y7552436D01*
X4932172Y7552436D01*
X4932172Y7331963D01*
G37*
G36*
X4818379Y7688579D02*
G01*
X4818379Y7856220D01*
X4986020Y7856220D01*
X4986020Y7688579D01*
G37*
D38*
G01*
X5156200Y7772400D03*
G36*
X6012179Y7688579D02*
G01*
X6012179Y7856220D01*
X6179820Y7856220D01*
X6179820Y7688579D01*
G37*
G01*
X6350000Y7772400D03*
G36*
X4500879Y6723379D02*
G01*
X4500879Y6891020D01*
X4668520Y6891020D01*
X4668520Y6723379D01*
G37*
G01*
X4584700Y6553200D03*
G01*
X4584700Y6299200D03*
G01*
X4584700Y6045200D03*
G36*
X6583679Y6723379D02*
G01*
X6583679Y6891020D01*
X6751320Y6891020D01*
X6751320Y6723379D01*
G37*
G01*
X6667500Y6553200D03*
G01*
X6667500Y6299200D03*
G01*
X6667500Y6045200D03*
G36*
X4306061Y9292081D02*
G01*
X4306061Y9402318D01*
X4406391Y9402318D01*
X4406391Y9292081D01*
G37*
G36*
X4483608Y9292081D02*
G01*
X4483608Y9402318D01*
X4583938Y9402318D01*
X4583938Y9292081D01*
G37*
G36*
X6043422Y9233154D02*
G01*
X6043422Y9473437D01*
X6198615Y9473437D01*
X6198615Y9233154D01*
G37*
G36*
X6501384Y9233662D02*
G01*
X6501384Y9473945D01*
X6656577Y9473945D01*
X6656577Y9233662D01*
G37*
G36*
X6039865Y8243315D02*
G01*
X6039865Y8913621D01*
X6660134Y8913621D01*
X6660134Y8243315D01*
G37*
G36*
X4849622Y9233154D02*
G01*
X4849622Y9473437D01*
X5004815Y9473437D01*
X5004815Y9233154D01*
G37*
G36*
X5307584Y9233662D02*
G01*
X5307584Y9473945D01*
X5462777Y9473945D01*
X5462777Y9233662D01*
G37*
G36*
X4846065Y8243315D02*
G01*
X4846065Y8913621D01*
X5466334Y8913621D01*
X5466334Y8243315D01*
G37*
G36*
X5677661Y5316981D02*
G01*
X5677661Y5427218D01*
X5777991Y5427218D01*
X5777991Y5316981D01*
G37*
G36*
X5855208Y5316981D02*
G01*
X5855208Y5427218D01*
X5955538Y5427218D01*
X5955538Y5316981D01*
G37*
G36*
X5969508Y7056881D02*
G01*
X5969508Y7167118D01*
X6069838Y7167118D01*
X6069838Y7056881D01*
G37*
G36*
X5791961Y7056881D02*
G01*
X5791961Y7167118D01*
X5892291Y7167118D01*
X5892291Y7056881D01*
G37*
G36*
X6325108Y7056881D02*
G01*
X6325108Y7167118D01*
X6425438Y7167118D01*
X6425438Y7056881D01*
G37*
G36*
X6147561Y7056881D02*
G01*
X6147561Y7167118D01*
X6247891Y7167118D01*
X6247891Y7056881D01*
G37*
G36*
X4306061Y9114281D02*
G01*
X4306061Y9224518D01*
X4406391Y9224518D01*
X4406391Y9114281D01*
G37*
G36*
X4483608Y9114281D02*
G01*
X4483608Y9224518D01*
X4583938Y9224518D01*
X4583938Y9114281D01*
G37*
G36*
X5499608Y5316981D02*
G01*
X5499608Y5427218D01*
X5599938Y5427218D01*
X5599938Y5316981D01*
G37*
G36*
X5322061Y5316981D02*
G01*
X5322061Y5427218D01*
X5422391Y5427218D01*
X5422391Y5316981D01*
G37*
G36*
X4775961Y7056881D02*
G01*
X4775961Y7167118D01*
X4876291Y7167118D01*
X4876291Y7056881D01*
G37*
G36*
X4953508Y7056881D02*
G01*
X4953508Y7167118D01*
X5053838Y7167118D01*
X5053838Y7056881D01*
G37*
G36*
X5482081Y7391908D02*
G01*
X5482081Y7492237D01*
X5592318Y7492237D01*
X5592318Y7391908D01*
G37*
G36*
X5482081Y7214362D02*
G01*
X5482081Y7314692D01*
X5592318Y7314692D01*
X5592318Y7214362D01*
G37*
D43*
G01*
X6146800Y4914900D03*
G01*
X6146800Y4660900D03*
G01*
X6146800Y4406900D03*
G01*
X5130800Y4406900D03*
G01*
X5130800Y4660900D03*
G01*
X5130800Y4914900D03*
G36*
X5025390Y6555231D02*
G01*
X5025390Y6865365D01*
X5185409Y6865365D01*
X5185409Y6555231D01*
G37*
G36*
X5279390Y6555231D02*
G01*
X5279390Y6865365D01*
X5439409Y6865365D01*
X5439409Y6555231D01*
G37*
G36*
X5279390Y5555234D02*
G01*
X5279390Y5865368D01*
X5439409Y5865368D01*
X5439409Y5555234D01*
G37*
G36*
X5025390Y5555234D02*
G01*
X5025390Y5865368D01*
X5185409Y5865368D01*
X5185409Y5555234D01*
G37*
G36*
X5825490Y6555231D02*
G01*
X5825490Y6865365D01*
X5985509Y6865365D01*
X5985509Y6555231D01*
G37*
G36*
X6079490Y6555231D02*
G01*
X6079490Y6865365D01*
X6239509Y6865365D01*
X6239509Y6555231D01*
G37*
G36*
X6079490Y5555234D02*
G01*
X6079490Y5865368D01*
X6239509Y5865368D01*
X6239509Y5555234D01*
G37*
G36*
X5825490Y5555234D02*
G01*
X5825490Y5865368D01*
X5985509Y5865368D01*
X5985509Y5555234D01*
G37*
G36*
X1024381Y4039362D02*
G01*
X1024381Y4139437D01*
X1134618Y4139437D01*
X1134618Y4039362D01*
G37*
G36*
X1024381Y4216907D02*
G01*
X1024381Y4317237D01*
X1134618Y4317237D01*
X1134618Y4216907D01*
G37*
G36*
X1202181Y4039362D02*
G01*
X1202181Y4139437D01*
X1312418Y4139437D01*
X1312418Y4039362D01*
G37*
G36*
X1202181Y4216907D02*
G01*
X1202181Y4317237D01*
X1312418Y4317237D01*
X1312418Y4216907D01*
G37*
G36*
X2345181Y4216907D02*
G01*
X2345181Y4317237D01*
X2455418Y4317237D01*
X2455418Y4216907D01*
G37*
G36*
X2345181Y4039362D02*
G01*
X2345181Y4139692D01*
X2455418Y4139692D01*
X2455418Y4039362D01*
G37*
G36*
X2522981Y4216907D02*
G01*
X2522981Y4317237D01*
X2633218Y4317237D01*
X2633218Y4216907D01*
G37*
G36*
X2522981Y4039362D02*
G01*
X2522981Y4139692D01*
X2633218Y4139692D01*
X2633218Y4039362D01*
G37*
G36*
X690879Y6748779D02*
G01*
X690879Y6916420D01*
X858520Y6916420D01*
X858520Y6748779D01*
G37*
D38*
G01*
X774700Y6578600D03*
G01*
X774700Y6324600D03*
G01*
X774700Y6070600D03*
G36*
X2659379Y6736079D02*
G01*
X2659379Y6903720D01*
X2827020Y6903720D01*
X2827020Y6736079D01*
G37*
G01*
X2743200Y6565900D03*
G01*
X2743200Y6311900D03*
G01*
X2743200Y6057900D03*
G36*
X1300479Y5262879D02*
G01*
X1300479Y5430520D01*
X1468120Y5430520D01*
X1468120Y5262879D01*
G37*
G01*
X1638300Y5346700D03*
G01*
X1892300Y5346700D03*
G01*
X2146300Y5346700D03*
G36*
X1300479Y6329679D02*
G01*
X1300479Y6497320D01*
X1468120Y6497320D01*
X1468120Y6329679D01*
G37*
G01*
X1638300Y6413500D03*
G01*
X1892300Y6413500D03*
G01*
X2146300Y6413500D03*
G36*
X1300479Y7371079D02*
G01*
X1300479Y7538720D01*
X1468120Y7538720D01*
X1468120Y7371079D01*
G37*
G01*
X1638300Y7454900D03*
G01*
X1892300Y7454900D03*
G01*
X2146300Y7454900D03*
G36*
X1300479Y8298179D02*
G01*
X1300479Y8465820D01*
X1468120Y8465820D01*
X1468120Y8298179D01*
G37*
G01*
X1638300Y8382000D03*
G01*
X1892300Y8382000D03*
G01*
X2146300Y8382000D03*
G36*
X432562Y9330181D02*
G01*
X432562Y9440418D01*
X532892Y9440418D01*
X532892Y9330181D01*
G37*
G36*
X610107Y9330181D02*
G01*
X610107Y9440418D01*
X710437Y9440418D01*
X710437Y9330181D01*
G37*
G36*
X432562Y9152381D02*
G01*
X432562Y9262618D01*
X532892Y9262618D01*
X532892Y9152381D01*
G37*
G36*
X610107Y9152381D02*
G01*
X610107Y9262618D01*
X710437Y9262618D01*
X710437Y9152381D01*
G37*
G36*
X1521460Y3750310D02*
G01*
X1521460Y3986529D01*
X1651000Y3986529D01*
X1651000Y3750310D01*
G37*
G36*
X1752600Y3750310D02*
G01*
X1752600Y3986529D01*
X1882139Y3986529D01*
X1882139Y3750310D01*
G37*
G36*
X1981200Y3750310D02*
G01*
X1981200Y3986529D01*
X2110740Y3986529D01*
X2110740Y3750310D01*
G37*
G36*
X1631950Y4370070D02*
G01*
X1631950Y4606289D01*
X2002790Y4606289D01*
X2002790Y4370070D01*
G37*
M02*
