G04 Layer: TopPasteMaskLayer*
G04 EasyEDA v6.4.19.4, 2021-06-11T14:51:01+08:00*
G04 1c108e45da03483e8fe651057a321652,2444bf6f38dc4a26b464d521983d9d6f,10*
G04 Gerber Generator version 0.2*
G04 Scale: 100 percent, Rotated: No, Reflected: No *
G04 Dimensions in millimeters *
G04 leading zeros omitted , absolute positions ,4 integer and 5 decimal *
%FSLAX45Y45*%
%MOMM*%

%ADD13R,1.8000X2.0000*%
%ADD14R,0.8000X0.9000*%
%ADD15R,1.3500X2.2000*%
%ADD16R,6.0000X6.5000*%
%ADD17R,0.9000X0.8000*%
%ADD18R,1.5000X3.0000*%

%LPD*%
D13*
G01*
X6433007Y7442200D03*
G01*
X6012992Y7442200D03*
G01*
X5251907Y7442200D03*
G01*
X4831892Y7442200D03*
G36*
X4316105Y9392185D02*
G01*
X4396104Y9392185D01*
X4396104Y9302183D01*
X4316105Y9302183D01*
G37*
G36*
X4493887Y9392183D02*
G01*
X4573887Y9392183D01*
X4573887Y9302186D01*
X4493887Y9302186D01*
G37*
G36*
X6053500Y9463295D02*
G01*
X6188499Y9463295D01*
X6188499Y9243296D01*
X6053500Y9243296D01*
G37*
D15*
G01*
X6579006Y9353804D03*
D16*
G01*
X6350000Y8578595D03*
G36*
X4859700Y9463295D02*
G01*
X4994699Y9463295D01*
X4994699Y9243296D01*
X4859700Y9243296D01*
G37*
D15*
G01*
X5385206Y9353804D03*
D16*
G01*
X5156200Y8578595D03*
D14*
G01*
X5727715Y5372100D03*
G01*
X5905489Y5372100D03*
G36*
X5979789Y7156998D02*
G01*
X6059789Y7156998D01*
X6059789Y7067001D01*
X5979789Y7067001D01*
G37*
G36*
X5802007Y7157001D02*
G01*
X5882007Y7157001D01*
X5882007Y7066998D01*
X5802007Y7066998D01*
G37*
G36*
X6335389Y7156998D02*
G01*
X6415389Y7156998D01*
X6415389Y7067001D01*
X6335389Y7067001D01*
G37*
G36*
X6157607Y7157001D02*
G01*
X6237607Y7157001D01*
X6237607Y7066998D01*
X6157607Y7066998D01*
G37*
G01*
X4356115Y9169400D03*
G01*
X4533889Y9169400D03*
G36*
X5509889Y5417098D02*
G01*
X5589889Y5417098D01*
X5589889Y5327101D01*
X5509889Y5327101D01*
G37*
G36*
X5332107Y5417101D02*
G01*
X5412107Y5417101D01*
X5412107Y5327098D01*
X5332107Y5327098D01*
G37*
G01*
X4826015Y7112000D03*
G01*
X5003789Y7112000D03*
D17*
G01*
X5537200Y7442184D03*
G01*
X5537200Y7264410D03*
D18*
G01*
X5105412Y6710296D03*
G01*
X5359412Y6710296D03*
G01*
X5359412Y5710298D03*
G01*
X5105412Y5710298D03*
G01*
X5905512Y6710296D03*
G01*
X6159512Y6710296D03*
G01*
X6159512Y5710298D03*
G01*
X5905512Y5710298D03*
D17*
G01*
X1079500Y4089400D03*
G01*
X1079500Y4267174D03*
G01*
X1257300Y4089400D03*
G01*
X1257300Y4267174D03*
G01*
X2400300Y4267200D03*
G01*
X2400300Y4089400D03*
G01*
X2578100Y4267200D03*
G01*
X2578100Y4089400D03*
G36*
X442605Y9430285D02*
G01*
X522604Y9430285D01*
X522604Y9340283D01*
X442605Y9340283D01*
G37*
G36*
X620387Y9430283D02*
G01*
X700387Y9430283D01*
X700387Y9340286D01*
X620387Y9340286D01*
G37*
D14*
G01*
X482600Y9207500D03*
G01*
X660400Y9207500D03*
G36*
X1531620Y3976370D02*
G01*
X1640839Y3976370D01*
X1640839Y3760470D01*
X1531620Y3760470D01*
G37*
G36*
X1762760Y3976370D02*
G01*
X1871979Y3976370D01*
X1871979Y3760470D01*
X1762760Y3760470D01*
G37*
G36*
X1991359Y3976370D02*
G01*
X2100579Y3976370D01*
X2100579Y3760470D01*
X1991359Y3760470D01*
G37*
G36*
X1642110Y4596129D02*
G01*
X1992629Y4596129D01*
X1992629Y4380229D01*
X1642110Y4380229D01*
G37*
M02*
