G04 Layer: BottomPasteMaskLayer*
G04 EasyEDA v6.4.19.4, 2021-06-11T14:51:01+08:00*
G04 1c108e45da03483e8fe651057a321652,2444bf6f38dc4a26b464d521983d9d6f,10*
G04 Gerber Generator version 0.2*
G04 Scale: 100 percent, Rotated: No, Reflected: No *
G04 Dimensions in millimeters *
G04 leading zeros omitted , absolute positions ,4 integer and 5 decimal *
%FSLAX45Y45*%
%MOMM*%

%ADD26C,0.6000*%

%LPD*%
D26*
X6451600Y8172246D02*
G01*
X6451600Y8342246D01*
X6324600Y8172246D02*
G01*
X6324600Y8342246D01*
X6197600Y8172246D02*
G01*
X6197600Y8342246D01*
X6070600Y8172246D02*
G01*
X6070600Y8342246D01*
X5943600Y8172246D02*
G01*
X5943600Y8342246D01*
X5816600Y8172246D02*
G01*
X5816600Y8342246D01*
X5689600Y8172246D02*
G01*
X5689600Y8342246D01*
X5562600Y8172246D02*
G01*
X5562600Y8342246D01*
X5435600Y8172246D02*
G01*
X5435600Y8342246D01*
X5308600Y8172246D02*
G01*
X5308600Y8342246D01*
X5181600Y8172246D02*
G01*
X5181600Y8342246D01*
X5054600Y8172246D02*
G01*
X5054600Y8342246D01*
X4927600Y8172246D02*
G01*
X4927600Y8342246D01*
X4800600Y8172246D02*
G01*
X4800600Y8342246D01*
X6451600Y9183751D02*
G01*
X6451600Y9353753D01*
X6324600Y9183751D02*
G01*
X6324600Y9353753D01*
X6197600Y9183751D02*
G01*
X6197600Y9353753D01*
X6070600Y9183751D02*
G01*
X6070600Y9353753D01*
X5943600Y9183751D02*
G01*
X5943600Y9353753D01*
X5816600Y9183751D02*
G01*
X5816600Y9353753D01*
X5689600Y9183751D02*
G01*
X5689600Y9353753D01*
X5562600Y9183751D02*
G01*
X5562600Y9353753D01*
X5435600Y9183751D02*
G01*
X5435600Y9353753D01*
X5308600Y9183751D02*
G01*
X5308600Y9353753D01*
X5181600Y9183751D02*
G01*
X5181600Y9353753D01*
X5054600Y9183751D02*
G01*
X5054600Y9353753D01*
X4927600Y9183751D02*
G01*
X4927600Y9353753D01*
X4800600Y9183751D02*
G01*
X4800600Y9353753D01*
G36*
X5767694Y4705901D02*
G01*
X5687695Y4705901D01*
X5687695Y4615898D01*
X5767694Y4615898D01*
G37*
G36*
X5589912Y4705898D02*
G01*
X5509912Y4705898D01*
X5509912Y4615901D01*
X5589912Y4615901D01*
G37*
G36*
X6279598Y3875394D02*
G01*
X6279598Y3795395D01*
X6369601Y3795395D01*
X6369601Y3875394D01*
G37*
G36*
X6279601Y3697612D02*
G01*
X6279601Y3617612D01*
X6369598Y3617612D01*
X6369598Y3697612D01*
G37*
G36*
X6089098Y3875394D02*
G01*
X6089098Y3795395D01*
X6179101Y3795395D01*
X6179101Y3875394D01*
G37*
G36*
X6089101Y3697612D02*
G01*
X6089101Y3617612D01*
X6179098Y3617612D01*
X6179098Y3697612D01*
G37*
G36*
X5174698Y3875394D02*
G01*
X5174698Y3795395D01*
X5264701Y3795395D01*
X5264701Y3875394D01*
G37*
G36*
X5174701Y3697612D02*
G01*
X5174701Y3617612D01*
X5264698Y3617612D01*
X5264698Y3697612D01*
G37*
G36*
X4996898Y3875394D02*
G01*
X4996898Y3795395D01*
X5086901Y3795395D01*
X5086901Y3875394D01*
G37*
G36*
X4996901Y3697612D02*
G01*
X4996901Y3617612D01*
X5086898Y3617612D01*
X5086898Y3697612D01*
G37*
G36*
X4307210Y8566698D02*
G01*
X4227210Y8566698D01*
X4227210Y8476701D01*
X4307210Y8476701D01*
G37*
G36*
X4484992Y8566701D02*
G01*
X4404992Y8566701D01*
X4404992Y8476698D01*
X4484992Y8476698D01*
G37*
G36*
X4307210Y8007898D02*
G01*
X4227210Y8007898D01*
X4227210Y7917901D01*
X4307210Y7917901D01*
G37*
G36*
X4484992Y8007901D02*
G01*
X4404992Y8007901D01*
X4404992Y7917898D01*
X4484992Y7917898D01*
G37*
G36*
X4903609Y9781997D02*
G01*
X4838611Y9781997D01*
X4838611Y9701997D01*
X4903609Y9701997D01*
G37*
G36*
X4903609Y9602002D02*
G01*
X4838611Y9602002D01*
X4838611Y9522002D01*
X4903609Y9522002D01*
G37*
G36*
X4976096Y9781997D02*
G01*
X4926093Y9781997D01*
X4926093Y9701997D01*
X4976096Y9701997D01*
G37*
G36*
X4976096Y9602002D02*
G01*
X4926093Y9602002D01*
X4926093Y9522002D01*
X4976096Y9522002D01*
G37*
G36*
X5056106Y9781997D02*
G01*
X5006103Y9781997D01*
X5006103Y9701997D01*
X5056106Y9701997D01*
G37*
G36*
X5056106Y9602002D02*
G01*
X5006103Y9602002D01*
X5006103Y9522002D01*
X5056106Y9522002D01*
G37*
G36*
X5143588Y9781997D02*
G01*
X5078590Y9781997D01*
X5078590Y9701997D01*
X5143588Y9701997D01*
G37*
G36*
X5143588Y9602002D02*
G01*
X5078590Y9602002D01*
X5078590Y9522002D01*
X5143588Y9522002D01*
G37*
G36*
X5961379Y3544570D02*
G01*
X5852159Y3544570D01*
X5852159Y3328670D01*
X5961379Y3328670D01*
G37*
G36*
X5730240Y3544570D02*
G01*
X5621020Y3544570D01*
X5621020Y3328670D01*
X5730240Y3328670D01*
G37*
G36*
X5501640Y3544570D02*
G01*
X5392420Y3544570D01*
X5392420Y3328670D01*
X5501640Y3328670D01*
G37*
G36*
X5850890Y4164329D02*
G01*
X5500370Y4164329D01*
X5500370Y3948429D01*
X5850890Y3948429D01*
G37*
M02*
