G04 Layer: BoardOutline*
G04 EasyEDA v6.4.19.4, 2021-06-11T14:51:01+08:00*
G04 1c108e45da03483e8fe651057a321652,2444bf6f38dc4a26b464d521983d9d6f,10*
G04 Gerber Generator version 0.2*
G04 Scale: 100 percent, Rotated: No, Reflected: No *
G04 Dimensions in millimeters *
G04 leading zeros omitted , absolute positions ,4 integer and 5 decimal *
%FSLAX45Y45*%
%MOMM*%

%ADD10C,0.2540*%
D10*
X3886200Y8547100D02*
G01*
X3495293Y8547100D01*
X3884929Y4214876D02*
G01*
X3884929Y8547100D01*
X7189802Y2998805D02*
G01*
X4084909Y2998805D01*
X3886200Y9798812D02*
G01*
X3886200Y8750300D01*
X7189802Y9998803D02*
G01*
X4086199Y9998803D01*
X3495212Y8749685D02*
G01*
X3886200Y8750300D01*
X3495212Y4214893D02*
G01*
X3884929Y4214893D01*
X3495288Y4011693D02*
G01*
X3884929Y4011676D01*
X3495288Y8546485D02*
G01*
X3495212Y4214893D01*
X3884929Y3197860D02*
G01*
X3884929Y4011676D01*
X7389799Y9798804D02*
G01*
X7389799Y3198797D01*
X3495288Y4011693D02*
G01*
X3495288Y3199825D01*
X3495293Y9800081D02*
G01*
X3495293Y8749792D01*
X199999Y10000000D02*
G01*
X3295213Y10000000D01*
X199999Y2999999D02*
G01*
X3302000Y2999999D01*
X0Y3200001D02*
G01*
X0Y9800000D01*
G75*
G01*
X0Y9800001D02*
G02*
X200000Y10000000I200000J0D01*
G75*
G01*
X200000Y2999999D02*
G02*
X0Y3200001I0J200000D01*
G75*
G01*
X7389802Y3198805D02*
G02*
X7189803Y2998805I-199999J0D01*
G75*
G01*
X7189803Y9998804D02*
G02*
X7389802Y9798804I0J-200000D01*
G75*
G01*
X3295213Y10000000D02*
G02*
X3495213Y9800001I0J-199999D01*
G75*
G01*
X3494768Y3199826D02*
G02*
X3294769Y2999826I-199999J0D01*
G75*
G01*
X4084909Y2997924D02*
G02*
X3884910Y3197924I0J200000D01*
G75*
G01*
X3886281Y9798723D02*
G02*
X4086281Y9998723I200000J0D01*
G75*
G01*
X254000Y3126199D02*
G03*
X253746Y3126199I-127J125001D01*
X253745Y3126198D02*
G01*
X254000Y3126198D01*
G75*
G01*
X3225800Y3138899D02*
G03*
X3225546Y3138899I-127J125001D01*
X3225545Y3138898D02*
G01*
X3225800Y3138898D01*
G75*
G01*
X4152900Y3138899D02*
G03*
X4152646Y3138899I-127J125001D01*
X4152645Y3138898D02*
G01*
X4152900Y3138898D01*
G75*
G01*
X7112000Y3138899D02*
G03*
X7111746Y3138899I-127J125001D01*
X7111745Y3138898D02*
G01*
X7112000Y3138898D01*
G75*
G01*
X7124700Y9615899D02*
G03*
X7124446Y9615899I-127J125001D01*
X7124445Y9615898D02*
G01*
X7124700Y9615898D01*
G75*
G01*
X4152900Y9615899D02*
G03*
X4152646Y9615899I-127J125001D01*
X4152645Y9615898D02*
G01*
X4152900Y9615898D01*
G75*
G01*
X3238500Y9615899D02*
G03*
X3238246Y9615899I-127J125001D01*
X3238245Y9615898D02*
G01*
X3238500Y9615898D01*
G75*
G01*
X254000Y9615899D02*
G03*
X253746Y9615899I-127J125001D01*
X253745Y9615898D02*
G01*
X254000Y9615898D01*
G75*
G01*
X3594100Y8590209D02*
G03*
X3593846Y8590209I-127J58491D01*
X3593845Y8590208D02*
G01*
X3594100Y8590208D01*
G75*
G01*
X3784597Y8590211D02*
G03*
X3784343Y8590211I-127J58491D01*
X3784343Y8590211D02*
G01*
X3784597Y8590211D01*
G75*
G01*
X3784597Y4056311D02*
G03*
X3784343Y4056311I-127J58491D01*
X3784343Y4056311D02*
G01*
X3784597Y4056311D01*
G75*
G01*
X3581397Y4056311D02*
G03*
X3581143Y4056311I-127J58491D01*
X3581143Y4056311D02*
G01*
X3581397Y4056311D01*

%LPD*%
M02*
