M48
METRIC,LZ,000.000
;FILE_FORMAT=3:3
;TYPE=PLATED
;Layer: Drill PTH
;EasyEDA v6.4.19.4, 2021-06-11T14:51:01+08:00
;1c108e45da03483e8fe651057a321652,2444bf6f38dc4a26b464d521983d9d6f,10
;Gerber Generator version 0.2
;Holesize 1 = 0.305 mm
T01C0.305
;Holesize 2 = 0.889 mm
T02C0.889
;Holesize 3 = 0.915 mm
T03C0.915
%
G05
G90
T01
X060198Y069596
X056007Y069723
X064135Y069596
X046355Y097028
X045339Y087503
X057785Y087503
X054483Y077216
X045847Y073660
X054483Y098298
X058166Y091440
X048260Y048133
X060706Y032639
X050419Y040259
T02
X049022Y077724
X051562Y077724
X060960Y077724
X063500Y077724
X045847Y068072
X045847Y065532
X045847Y062992
X045847Y060452
X066675Y068072
X066675Y065532
X066675Y062992
X066675Y060452
X007747Y068326
X007747Y065786
X007747Y063246
X007747Y060706
X027432Y068199
X027432Y065659
X027432Y063119
X027432Y060579
X013843Y053467
X016383Y053467
X018923Y053467
X021463Y053467
X013843Y064135
X016383Y064135
X018923Y064135
X021463Y064135
X013843Y074549
X016383Y074549
X018923Y074549
X021463Y074549
X013843Y083820
X016383Y083820
X018923Y083820
X021463Y083820
T03
X061468Y049149
X061468Y046609
X061468Y044069
X051308Y044069
X051308Y046609
X051308Y049149
M30
