G04 Layer: BottomLayer*
G04 EasyEDA v6.4.19.4, 2021-06-11T14:51:01+08:00*
G04 1c108e45da03483e8fe651057a321652,2444bf6f38dc4a26b464d521983d9d6f,10*
G04 Gerber Generator version 0.2*
G04 Scale: 100 percent, Rotated: No, Reflected: No *
G04 Dimensions in millimeters *
G04 leading zeros omitted , absolute positions ,4 integer and 5 decimal *
%FSLAX45Y45*%
%MOMM*%

%ADD10C,0.2540*%
%ADD11C,0.5000*%
%ADD12C,0.6096*%
%ADD21R,1.5748X1.5748*%
%ADD22C,1.5748*%
%ADD23C,1.5240*%
%ADD24C,0.4000*%
%ADD25C,0.8000*%
%ADD26C,0.6000*%

%LPD*%
G36*
X200863Y3025648D02*
G01*
X182422Y3026613D01*
X165506Y3029153D01*
X148945Y3033369D01*
X132842Y3039160D01*
X117398Y3046526D01*
X102768Y3055366D01*
X89052Y3065576D01*
X76403Y3077108D01*
X64973Y3089808D01*
X54813Y3103575D01*
X46075Y3118256D01*
X38760Y3133750D01*
X33070Y3149904D01*
X28956Y3166465D01*
X26517Y3183432D01*
X25654Y3200857D01*
X25654Y9799167D01*
X26619Y9817557D01*
X29159Y9834473D01*
X33375Y9851085D01*
X39166Y9867138D01*
X46532Y9882581D01*
X55372Y9897262D01*
X65582Y9910978D01*
X77114Y9923576D01*
X89814Y9935057D01*
X103581Y9945217D01*
X118262Y9953955D01*
X133756Y9961219D01*
X149860Y9966909D01*
X166471Y9971024D01*
X183388Y9973513D01*
X200863Y9974326D01*
X3294379Y9974326D01*
X3312769Y9973411D01*
X3329686Y9970820D01*
X3346297Y9966655D01*
X3362350Y9960813D01*
X3377793Y9953498D01*
X3392474Y9944658D01*
X3406190Y9934397D01*
X3418789Y9922865D01*
X3430270Y9910165D01*
X3440429Y9896398D01*
X3449167Y9881717D01*
X3456432Y9866223D01*
X3462121Y9850120D01*
X3466236Y9833508D01*
X3468725Y9816592D01*
X3469640Y9798050D01*
X3469640Y8750401D01*
X3470401Y8743950D01*
X3472484Y8738463D01*
X3475837Y8733586D01*
X3479190Y8730030D01*
X3483965Y8726779D01*
X3489502Y8724747D01*
X3495598Y8724036D01*
X3525875Y8724087D01*
X3529634Y8723376D01*
X3532835Y8721344D01*
X3535070Y8718245D01*
X3536035Y8714536D01*
X3535527Y8710777D01*
X3533698Y8707424D01*
X3525570Y8697671D01*
X3519170Y8687206D01*
X3514394Y8675928D01*
X3511245Y8664041D01*
X3509924Y8651849D01*
X3510330Y8639606D01*
X3512565Y8627516D01*
X3516528Y8615883D01*
X3522116Y8604961D01*
X3529228Y8595004D01*
X3534054Y8589975D01*
X3536187Y8586622D01*
X3536899Y8582761D01*
X3536086Y8578951D01*
X3533901Y8575700D01*
X3530600Y8573516D01*
X3526739Y8572754D01*
X3495954Y8572754D01*
X3489248Y8571890D01*
X3483813Y8569807D01*
X3478987Y8566404D01*
X3474872Y8561679D01*
X3472434Y8557768D01*
X3470351Y8552383D01*
X3469640Y8546185D01*
X3469538Y4215485D01*
X3470351Y4209084D01*
X3472434Y4203598D01*
X3475939Y4198518D01*
X3478936Y4195470D01*
X3482492Y4192879D01*
X3487978Y4190390D01*
X3494074Y4189323D01*
X3512413Y4189222D01*
X3516172Y4188510D01*
X3519373Y4186478D01*
X3521608Y4183379D01*
X3522522Y4179671D01*
X3522065Y4175912D01*
X3520186Y4172559D01*
X3512870Y4163771D01*
X3506470Y4153306D01*
X3501694Y4142028D01*
X3498545Y4130141D01*
X3497224Y4117949D01*
X3497630Y4105706D01*
X3499865Y4093616D01*
X3503828Y4082034D01*
X3509416Y4071112D01*
X3516528Y4061104D01*
X3522827Y4054551D01*
X3524961Y4051249D01*
X3525672Y4047388D01*
X3524859Y4043527D01*
X3522624Y4040276D01*
X3519373Y4038092D01*
X3515512Y4037329D01*
X3495903Y4037329D01*
X3489451Y4036568D01*
X3484016Y4034485D01*
X3478936Y4030979D01*
X3475888Y4027982D01*
X3473297Y4024426D01*
X3470808Y4018940D01*
X3469640Y4011523D01*
X3469640Y3204311D01*
X3469132Y3200400D01*
X3468166Y3182264D01*
X3465626Y3165348D01*
X3461410Y3148736D01*
X3455619Y3132683D01*
X3448253Y3117240D01*
X3439414Y3102559D01*
X3429203Y3088894D01*
X3417671Y3076244D01*
X3404971Y3064764D01*
X3391204Y3054654D01*
X3376472Y3045866D01*
X3361029Y3038602D01*
X3344875Y3032912D01*
X3328263Y3028797D01*
X3311347Y3026308D01*
X3297428Y3025648D01*
G37*

%LPC*%
G36*
X2788920Y6103620D02*
G01*
X2836773Y6103620D01*
X2833573Y6110071D01*
X2826004Y6121450D01*
X2817012Y6131712D01*
X2806750Y6140704D01*
X2795371Y6148273D01*
X2788920Y6151473D01*
G37*
G36*
X2649626Y6103620D02*
G01*
X2697480Y6103620D01*
X2697480Y6151473D01*
X2691028Y6148273D01*
X2679649Y6140704D01*
X2669387Y6131712D01*
X2660396Y6121450D01*
X2652826Y6110071D01*
G37*
G36*
X681126Y6116320D02*
G01*
X728980Y6116320D01*
X728980Y6164173D01*
X722528Y6160973D01*
X711149Y6153404D01*
X700887Y6144412D01*
X691896Y6134150D01*
X684326Y6122771D01*
G37*
G36*
X820419Y6116320D02*
G01*
X868273Y6116320D01*
X865073Y6122771D01*
X857503Y6134150D01*
X848512Y6144412D01*
X838250Y6153404D01*
X826871Y6160973D01*
X820419Y6164173D01*
G37*
G36*
X2697480Y5964326D02*
G01*
X2697480Y6012180D01*
X2649626Y6012180D01*
X2652826Y6005728D01*
X2660396Y5994349D01*
X2669387Y5984087D01*
X2679649Y5975096D01*
X2691028Y5967526D01*
G37*
G36*
X775157Y6197752D02*
G01*
X2742742Y6197752D01*
X2751988Y6198565D01*
X2760522Y6200851D01*
X2768498Y6204559D01*
X2775712Y6209639D01*
X2780944Y6214414D01*
X2795371Y6221526D01*
X2806750Y6229096D01*
X2817012Y6238087D01*
X2826004Y6248349D01*
X2833573Y6259728D01*
X2839618Y6271971D01*
X2844038Y6284874D01*
X2846679Y6298285D01*
X2847594Y6311900D01*
X2846679Y6325514D01*
X2844038Y6338925D01*
X2839618Y6351828D01*
X2833573Y6364071D01*
X2826004Y6375450D01*
X2817012Y6385712D01*
X2806750Y6394704D01*
X2795371Y6402273D01*
X2783128Y6408318D01*
X2770225Y6412738D01*
X2756814Y6415379D01*
X2743200Y6416294D01*
X2729585Y6415379D01*
X2716174Y6412738D01*
X2703271Y6408318D01*
X2691028Y6402273D01*
X2679649Y6394704D01*
X2669387Y6385712D01*
X2660396Y6375450D01*
X2652826Y6364071D01*
X2646781Y6351828D01*
X2642362Y6338925D01*
X2639720Y6325514D01*
X2638806Y6311900D01*
X2638958Y6309868D01*
X2638399Y6305804D01*
X2636215Y6302248D01*
X2632862Y6299911D01*
X2628798Y6299047D01*
X2193290Y6299047D01*
X2188870Y6300063D01*
X2187600Y6301079D01*
X2185771Y6299809D01*
X2181860Y6299047D01*
X2110740Y6299047D01*
X2106828Y6299809D01*
X2104999Y6301079D01*
X2103729Y6300063D01*
X2099310Y6299047D01*
X1939289Y6299047D01*
X1934870Y6300063D01*
X1931365Y6302857D01*
X1929384Y6306921D01*
X1929333Y6311392D01*
X1931263Y6315506D01*
X1934768Y6318300D01*
X1944471Y6323126D01*
X1955850Y6330696D01*
X1966112Y6339687D01*
X1975104Y6349949D01*
X1982673Y6361328D01*
X1988718Y6373571D01*
X1993138Y6386474D01*
X1995779Y6399885D01*
X1996693Y6413500D01*
X1995779Y6427114D01*
X1993138Y6440525D01*
X1988718Y6453428D01*
X1982673Y6465671D01*
X1975104Y6477050D01*
X1966112Y6487312D01*
X1955850Y6496304D01*
X1944471Y6503873D01*
X1934768Y6508648D01*
X1931263Y6511493D01*
X1929333Y6515607D01*
X1929384Y6520078D01*
X1931365Y6524142D01*
X1934870Y6526936D01*
X1939289Y6527952D01*
X2099310Y6527952D01*
X2103729Y6526936D01*
X2104999Y6525920D01*
X2106828Y6527190D01*
X2110740Y6527952D01*
X2181860Y6527952D01*
X2185771Y6527190D01*
X2187600Y6525920D01*
X2188870Y6526936D01*
X2193290Y6527952D01*
X2639466Y6527952D01*
X2643174Y6527241D01*
X2646324Y6525259D01*
X2648610Y6522262D01*
X2652826Y6513728D01*
X2660396Y6502349D01*
X2669387Y6492087D01*
X2679649Y6483096D01*
X2691028Y6475526D01*
X2703271Y6469481D01*
X2716174Y6465062D01*
X2729585Y6462420D01*
X2743200Y6461506D01*
X2756814Y6462420D01*
X2770225Y6465062D01*
X2783128Y6469481D01*
X2795371Y6475526D01*
X2806750Y6483096D01*
X2817012Y6492087D01*
X2826004Y6502349D01*
X2833573Y6513728D01*
X2839618Y6525971D01*
X2844038Y6538874D01*
X2846679Y6552285D01*
X2847594Y6565900D01*
X2846679Y6579514D01*
X2844038Y6592925D01*
X2839618Y6605828D01*
X2833573Y6618071D01*
X2826004Y6629450D01*
X2817012Y6639712D01*
X2806750Y6648703D01*
X2795371Y6656273D01*
X2783128Y6662318D01*
X2770225Y6666738D01*
X2756814Y6669379D01*
X2743200Y6670294D01*
X2729585Y6669379D01*
X2716174Y6666738D01*
X2703271Y6662318D01*
X2691028Y6656273D01*
X2679649Y6648703D01*
X2669387Y6639712D01*
X2663291Y6632702D01*
X2659837Y6630162D01*
X2655620Y6629247D01*
X871524Y6629247D01*
X868273Y6629806D01*
X865378Y6631330D01*
X863092Y6633768D01*
X857503Y6642150D01*
X848512Y6652412D01*
X838250Y6661403D01*
X826871Y6668973D01*
X814628Y6675018D01*
X801725Y6679438D01*
X788314Y6682079D01*
X774700Y6682994D01*
X761085Y6682079D01*
X747674Y6679438D01*
X734771Y6675018D01*
X722528Y6668973D01*
X711149Y6661403D01*
X700887Y6652412D01*
X691896Y6642150D01*
X684326Y6630771D01*
X678281Y6618528D01*
X673862Y6605625D01*
X671220Y6592214D01*
X670306Y6578600D01*
X671220Y6564985D01*
X673862Y6551574D01*
X678281Y6538671D01*
X684326Y6526428D01*
X691896Y6515049D01*
X700887Y6504787D01*
X711149Y6495796D01*
X722528Y6488226D01*
X734771Y6482181D01*
X747674Y6477762D01*
X761085Y6475120D01*
X774700Y6474206D01*
X788314Y6475120D01*
X801725Y6477762D01*
X814628Y6482181D01*
X826871Y6488226D01*
X838250Y6495796D01*
X848512Y6504787D01*
X857503Y6515049D01*
X863092Y6523431D01*
X865378Y6525869D01*
X868273Y6527393D01*
X871524Y6527952D01*
X1280769Y6527952D01*
X1284681Y6527190D01*
X1287983Y6524955D01*
X1290167Y6521653D01*
X1290929Y6517792D01*
X1290167Y6513880D01*
X1287983Y6510578D01*
X1285544Y6508191D01*
X1282496Y6503365D01*
X1280617Y6497929D01*
X1279906Y6491681D01*
X1279906Y6335318D01*
X1280617Y6329070D01*
X1282496Y6323634D01*
X1285544Y6318808D01*
X1287983Y6316421D01*
X1290167Y6313119D01*
X1290929Y6309207D01*
X1290167Y6305346D01*
X1287983Y6302044D01*
X1284681Y6299809D01*
X1280769Y6299047D01*
X888187Y6299047D01*
X884123Y6299911D01*
X880770Y6302298D01*
X878636Y6305804D01*
X878027Y6309918D01*
X879094Y6324600D01*
X878179Y6338214D01*
X875537Y6351625D01*
X871118Y6364528D01*
X865073Y6376771D01*
X857503Y6388150D01*
X848512Y6398412D01*
X838250Y6407404D01*
X826871Y6414973D01*
X814628Y6421018D01*
X801725Y6425438D01*
X788314Y6428079D01*
X774700Y6428994D01*
X761085Y6428079D01*
X747674Y6425438D01*
X734771Y6421018D01*
X722528Y6414973D01*
X711149Y6407404D01*
X700887Y6398412D01*
X691896Y6388150D01*
X684326Y6376771D01*
X678281Y6364528D01*
X673862Y6351625D01*
X671220Y6338214D01*
X670306Y6324600D01*
X671220Y6310985D01*
X673862Y6297574D01*
X678281Y6284671D01*
X684326Y6272428D01*
X691896Y6261049D01*
X700887Y6250787D01*
X711149Y6241796D01*
X726186Y6231737D01*
X728116Y6228943D01*
X730859Y6223101D01*
X735939Y6215888D01*
X742188Y6209639D01*
X749401Y6204559D01*
X757377Y6200851D01*
X765911Y6198565D01*
G37*
G36*
X2100580Y6319926D02*
G01*
X2100580Y6367780D01*
X2052726Y6367780D01*
X2055926Y6361328D01*
X2063496Y6349949D01*
X2072487Y6339687D01*
X2082749Y6330696D01*
X2094128Y6323126D01*
G37*
G36*
X2192020Y6319926D02*
G01*
X2198471Y6323126D01*
X2209850Y6330696D01*
X2220112Y6339687D01*
X2229104Y6349949D01*
X2236673Y6361328D01*
X2239873Y6367780D01*
X2192020Y6367780D01*
G37*
G36*
X2052726Y6459220D02*
G01*
X2100580Y6459220D01*
X2100580Y6507073D01*
X2094128Y6503873D01*
X2082749Y6496304D01*
X2072487Y6487312D01*
X2063496Y6477050D01*
X2055926Y6465671D01*
G37*
G36*
X2192020Y6459220D02*
G01*
X2239873Y6459220D01*
X2236673Y6465671D01*
X2229104Y6477050D01*
X2220112Y6487312D01*
X2209850Y6496304D01*
X2198471Y6503873D01*
X2192020Y6507073D01*
G37*
G36*
X2788920Y5964326D02*
G01*
X2795371Y5967526D01*
X2806750Y5975096D01*
X2817012Y5984087D01*
X2826004Y5994349D01*
X2833573Y6005728D01*
X2836773Y6012180D01*
X2788920Y6012180D01*
G37*
G36*
X820419Y5977026D02*
G01*
X826871Y5980226D01*
X838250Y5987796D01*
X848512Y5996787D01*
X857503Y6007049D01*
X865073Y6018428D01*
X868273Y6024880D01*
X820419Y6024880D01*
G37*
G36*
X2665018Y6715506D02*
G01*
X2821381Y6715506D01*
X2827629Y6716217D01*
X2833065Y6718096D01*
X2837891Y6721144D01*
X2841955Y6725208D01*
X2845003Y6730034D01*
X2846882Y6735470D01*
X2847594Y6741718D01*
X2847594Y6898081D01*
X2846882Y6904329D01*
X2845003Y6909765D01*
X2841955Y6914591D01*
X2837891Y6918655D01*
X2833065Y6921703D01*
X2827629Y6923582D01*
X2821381Y6924294D01*
X2665018Y6924294D01*
X2658770Y6923582D01*
X2653334Y6921703D01*
X2648508Y6918655D01*
X2644444Y6914591D01*
X2641396Y6909765D01*
X2639517Y6904329D01*
X2638806Y6898081D01*
X2638806Y6895693D01*
X2638044Y6891832D01*
X2635808Y6888530D01*
X2632557Y6886346D01*
X2628646Y6885533D01*
X889253Y6885533D01*
X885342Y6886346D01*
X882091Y6888530D01*
X879856Y6891832D01*
X879094Y6895693D01*
X879094Y6910781D01*
X878382Y6917029D01*
X876503Y6922465D01*
X873455Y6927291D01*
X869391Y6931355D01*
X864565Y6934403D01*
X859129Y6936282D01*
X852881Y6936994D01*
X696518Y6936994D01*
X690270Y6936282D01*
X684834Y6934403D01*
X680008Y6931355D01*
X675944Y6927291D01*
X672896Y6922465D01*
X671017Y6917029D01*
X670306Y6910781D01*
X670306Y6754418D01*
X671017Y6748170D01*
X672896Y6742734D01*
X675944Y6737908D01*
X680008Y6733844D01*
X684834Y6730796D01*
X690270Y6728917D01*
X696518Y6728206D01*
X852881Y6728206D01*
X859129Y6728917D01*
X864565Y6730796D01*
X869391Y6733844D01*
X873455Y6737908D01*
X876503Y6742734D01*
X878128Y6747459D01*
X880262Y6751015D01*
X883666Y6753402D01*
X887730Y6754266D01*
X2628646Y6754266D01*
X2632557Y6753453D01*
X2635808Y6751269D01*
X2638044Y6747967D01*
X2638806Y6744106D01*
X2638806Y6741718D01*
X2639517Y6735470D01*
X2641396Y6730034D01*
X2644444Y6725208D01*
X2648508Y6721144D01*
X2653334Y6718096D01*
X2658770Y6716217D01*
G37*
G36*
X1638300Y7350506D02*
G01*
X1651914Y7351420D01*
X1665325Y7354062D01*
X1678228Y7358481D01*
X1690471Y7364526D01*
X1701850Y7372096D01*
X1712112Y7381087D01*
X1721104Y7391349D01*
X1728673Y7402728D01*
X1734718Y7414971D01*
X1739138Y7427874D01*
X1741779Y7441285D01*
X1742693Y7454900D01*
X1741779Y7468514D01*
X1739138Y7481925D01*
X1734718Y7494828D01*
X1728673Y7507071D01*
X1721104Y7518450D01*
X1712112Y7528712D01*
X1701850Y7537703D01*
X1690471Y7545273D01*
X1678228Y7551318D01*
X1665325Y7555738D01*
X1651914Y7558379D01*
X1638300Y7559294D01*
X1624685Y7558379D01*
X1611274Y7555738D01*
X1598371Y7551318D01*
X1586128Y7545273D01*
X1574749Y7537703D01*
X1564487Y7528712D01*
X1555496Y7518450D01*
X1547926Y7507071D01*
X1541881Y7494828D01*
X1537462Y7481925D01*
X1534820Y7468514D01*
X1533906Y7454900D01*
X1534820Y7441285D01*
X1537462Y7427874D01*
X1541881Y7414971D01*
X1547926Y7402728D01*
X1555496Y7391349D01*
X1564487Y7381087D01*
X1574749Y7372096D01*
X1586128Y7364526D01*
X1598371Y7358481D01*
X1611274Y7354062D01*
X1624685Y7351420D01*
G37*
G36*
X1892300Y7350506D02*
G01*
X1905914Y7351420D01*
X1919325Y7354062D01*
X1932228Y7358481D01*
X1944471Y7364526D01*
X1955850Y7372096D01*
X1966112Y7381087D01*
X1975104Y7391349D01*
X1982673Y7402728D01*
X1988718Y7414971D01*
X1993138Y7427874D01*
X1995779Y7441285D01*
X1996693Y7454900D01*
X1995779Y7468514D01*
X1993138Y7481925D01*
X1988718Y7494828D01*
X1982673Y7507071D01*
X1975104Y7518450D01*
X1966112Y7528712D01*
X1955850Y7537703D01*
X1944471Y7545273D01*
X1932228Y7551318D01*
X1919325Y7555738D01*
X1905914Y7558379D01*
X1892300Y7559294D01*
X1878685Y7558379D01*
X1865274Y7555738D01*
X1852371Y7551318D01*
X1840128Y7545273D01*
X1828749Y7537703D01*
X1818487Y7528712D01*
X1809496Y7518450D01*
X1801926Y7507071D01*
X1795881Y7494828D01*
X1791462Y7481925D01*
X1788820Y7468514D01*
X1787906Y7454900D01*
X1788820Y7441285D01*
X1791462Y7427874D01*
X1795881Y7414971D01*
X1801926Y7402728D01*
X1809496Y7391349D01*
X1818487Y7381087D01*
X1828749Y7372096D01*
X1840128Y7364526D01*
X1852371Y7358481D01*
X1865274Y7354062D01*
X1878685Y7351420D01*
G37*
G36*
X1306118Y7350506D02*
G01*
X1462481Y7350506D01*
X1468729Y7351217D01*
X1474165Y7353096D01*
X1478991Y7356144D01*
X1483055Y7360208D01*
X1486103Y7365034D01*
X1487982Y7370470D01*
X1488694Y7376718D01*
X1488694Y7533081D01*
X1487982Y7539329D01*
X1486103Y7544765D01*
X1483055Y7549591D01*
X1478991Y7553655D01*
X1474165Y7556703D01*
X1468729Y7558582D01*
X1462481Y7559294D01*
X1306118Y7559294D01*
X1299870Y7558582D01*
X1294434Y7556703D01*
X1289608Y7553655D01*
X1285544Y7549591D01*
X1282496Y7544765D01*
X1280617Y7539329D01*
X1279906Y7533081D01*
X1279906Y7376718D01*
X1280617Y7370470D01*
X1282496Y7365034D01*
X1285544Y7360208D01*
X1289608Y7356144D01*
X1294434Y7353096D01*
X1299870Y7351217D01*
G37*
G36*
X2100580Y7361326D02*
G01*
X2100580Y7409180D01*
X2052726Y7409180D01*
X2055926Y7402728D01*
X2063496Y7391349D01*
X2072487Y7381087D01*
X2082749Y7372096D01*
X2094128Y7364526D01*
G37*
G36*
X2192020Y7361326D02*
G01*
X2198471Y7364526D01*
X2209850Y7372096D01*
X2220112Y7381087D01*
X2229104Y7391349D01*
X2236673Y7402728D01*
X2239873Y7409180D01*
X2192020Y7409180D01*
G37*
G36*
X728980Y5977026D02*
G01*
X728980Y6024880D01*
X681126Y6024880D01*
X684326Y6018428D01*
X691896Y6007049D01*
X700887Y5996787D01*
X711149Y5987796D01*
X722528Y5980226D01*
G37*
G36*
X2192020Y7500620D02*
G01*
X2239873Y7500620D01*
X2236673Y7507071D01*
X2229104Y7518450D01*
X2220112Y7528712D01*
X2209850Y7537703D01*
X2198471Y7545273D01*
X2192020Y7548473D01*
G37*
G36*
X253695Y3100578D02*
G01*
X270916Y3101543D01*
X287528Y3104388D01*
X303733Y3109061D01*
X319328Y3115513D01*
X334111Y3123692D01*
X347878Y3133496D01*
X360476Y3144774D01*
X371703Y3157372D01*
X381457Y3171139D01*
X389636Y3185922D01*
X396087Y3201517D01*
X400761Y3217773D01*
X403555Y3234436D01*
X404520Y3251301D01*
X403555Y3268116D01*
X400710Y3284778D01*
X396036Y3301034D01*
X389585Y3316630D01*
X381406Y3331362D01*
X371602Y3345179D01*
X360375Y3357727D01*
X347776Y3369005D01*
X334010Y3378758D01*
X319227Y3386937D01*
X303631Y3393389D01*
X287375Y3398062D01*
X270713Y3400907D01*
X253898Y3401822D01*
X237032Y3400907D01*
X220370Y3398062D01*
X204114Y3393389D01*
X188518Y3386937D01*
X173736Y3378758D01*
X159969Y3369005D01*
X147370Y3357727D01*
X136144Y3345179D01*
X126339Y3331362D01*
X118160Y3316630D01*
X111709Y3301034D01*
X107035Y3284778D01*
X104190Y3268116D01*
X103225Y3251301D01*
X104190Y3234436D01*
X106984Y3217773D01*
X111658Y3201517D01*
X118110Y3185922D01*
X126288Y3171139D01*
X136042Y3157372D01*
X147269Y3144774D01*
X159867Y3133496D01*
X173634Y3123692D01*
X188417Y3115513D01*
X204012Y3109061D01*
X220217Y3104388D01*
X236880Y3101543D01*
G37*
G36*
X2192020Y5392420D02*
G01*
X2239873Y5392420D01*
X2236673Y5398871D01*
X2229104Y5410250D01*
X2220112Y5420512D01*
X2209850Y5429504D01*
X2198471Y5437073D01*
X2192020Y5440273D01*
G37*
G36*
X2052726Y5392420D02*
G01*
X2100580Y5392420D01*
X2100580Y5440273D01*
X2094128Y5437073D01*
X2082749Y5429504D01*
X2072487Y5420512D01*
X2063496Y5410250D01*
X2055926Y5398871D01*
G37*
G36*
X2192020Y5253126D02*
G01*
X2198471Y5256326D01*
X2209850Y5263896D01*
X2220112Y5272887D01*
X2229104Y5283149D01*
X2236673Y5294528D01*
X2239873Y5300980D01*
X2192020Y5300980D01*
G37*
G36*
X1638300Y8277606D02*
G01*
X1651914Y8278520D01*
X1665325Y8281162D01*
X1678228Y8285581D01*
X1690471Y8291626D01*
X1701850Y8299196D01*
X1712112Y8308187D01*
X1721104Y8318449D01*
X1728673Y8329828D01*
X1734718Y8342071D01*
X1739138Y8354974D01*
X1741779Y8368385D01*
X1742693Y8382000D01*
X1741779Y8395614D01*
X1739138Y8409025D01*
X1734718Y8421928D01*
X1728673Y8434171D01*
X1721104Y8445550D01*
X1712112Y8455812D01*
X1701850Y8464804D01*
X1690471Y8472373D01*
X1678228Y8478418D01*
X1665325Y8482838D01*
X1651914Y8485479D01*
X1638300Y8486394D01*
X1624685Y8485479D01*
X1611274Y8482838D01*
X1598371Y8478418D01*
X1586128Y8472373D01*
X1574749Y8464804D01*
X1564487Y8455812D01*
X1555496Y8445550D01*
X1547926Y8434171D01*
X1541881Y8421928D01*
X1537462Y8409025D01*
X1534820Y8395614D01*
X1533906Y8382000D01*
X1534820Y8368385D01*
X1537462Y8354974D01*
X1541881Y8342071D01*
X1547926Y8329828D01*
X1555496Y8318449D01*
X1564487Y8308187D01*
X1574749Y8299196D01*
X1586128Y8291626D01*
X1598371Y8285581D01*
X1611274Y8281162D01*
X1624685Y8278520D01*
G37*
G36*
X1892300Y8277606D02*
G01*
X1905914Y8278520D01*
X1919325Y8281162D01*
X1932228Y8285581D01*
X1944471Y8291626D01*
X1955850Y8299196D01*
X1966112Y8308187D01*
X1975104Y8318449D01*
X1982673Y8329828D01*
X1988718Y8342071D01*
X1993138Y8354974D01*
X1995779Y8368385D01*
X1996693Y8382000D01*
X1995779Y8395614D01*
X1993138Y8409025D01*
X1988718Y8421928D01*
X1982673Y8434171D01*
X1975104Y8445550D01*
X1966112Y8455812D01*
X1955850Y8464804D01*
X1944471Y8472373D01*
X1932228Y8478418D01*
X1919325Y8482838D01*
X1905914Y8485479D01*
X1892300Y8486394D01*
X1878685Y8485479D01*
X1865274Y8482838D01*
X1852371Y8478418D01*
X1840128Y8472373D01*
X1828749Y8464804D01*
X1818487Y8455812D01*
X1809496Y8445550D01*
X1801926Y8434171D01*
X1795881Y8421928D01*
X1791462Y8409025D01*
X1788820Y8395614D01*
X1787906Y8382000D01*
X1788820Y8368385D01*
X1791462Y8354974D01*
X1795881Y8342071D01*
X1801926Y8329828D01*
X1809496Y8318449D01*
X1818487Y8308187D01*
X1828749Y8299196D01*
X1840128Y8291626D01*
X1852371Y8285581D01*
X1865274Y8281162D01*
X1878685Y8278520D01*
G37*
G36*
X1306118Y8277606D02*
G01*
X1462481Y8277606D01*
X1468729Y8278317D01*
X1474165Y8280196D01*
X1478991Y8283244D01*
X1483055Y8287308D01*
X1486103Y8292134D01*
X1487982Y8297570D01*
X1488694Y8303818D01*
X1488694Y8460181D01*
X1487982Y8466429D01*
X1486103Y8471865D01*
X1483055Y8476691D01*
X1478991Y8480755D01*
X1474165Y8483803D01*
X1468729Y8485682D01*
X1462481Y8486394D01*
X1306118Y8486394D01*
X1299870Y8485682D01*
X1294434Y8483803D01*
X1289608Y8480755D01*
X1285544Y8476691D01*
X1282496Y8471865D01*
X1280617Y8466429D01*
X1279906Y8460181D01*
X1279906Y8303818D01*
X1280617Y8297570D01*
X1282496Y8292134D01*
X1285544Y8287308D01*
X1289608Y8283244D01*
X1294434Y8280196D01*
X1299870Y8278317D01*
G37*
G36*
X2100580Y8288426D02*
G01*
X2100580Y8336280D01*
X2052726Y8336280D01*
X2055926Y8329828D01*
X2063496Y8318449D01*
X2072487Y8308187D01*
X2082749Y8299196D01*
X2094128Y8291626D01*
G37*
G36*
X2192020Y8288426D02*
G01*
X2198471Y8291626D01*
X2209850Y8299196D01*
X2220112Y8308187D01*
X2229104Y8318449D01*
X2236673Y8329828D01*
X2239873Y8336280D01*
X2192020Y8336280D01*
G37*
G36*
X2052726Y8427720D02*
G01*
X2100580Y8427720D01*
X2100580Y8475573D01*
X2094128Y8472373D01*
X2082749Y8464804D01*
X2072487Y8455812D01*
X2063496Y8445550D01*
X2055926Y8434171D01*
G37*
G36*
X2192020Y8427720D02*
G01*
X2239873Y8427720D01*
X2236673Y8434171D01*
X2229104Y8445550D01*
X2220112Y8455812D01*
X2209850Y8464804D01*
X2198471Y8472373D01*
X2192020Y8475573D01*
G37*
G36*
X2100580Y5253126D02*
G01*
X2100580Y5300980D01*
X2052726Y5300980D01*
X2055926Y5294528D01*
X2063496Y5283149D01*
X2072487Y5272887D01*
X2082749Y5263896D01*
X2094128Y5256326D01*
G37*
G36*
X1306118Y5242306D02*
G01*
X1462481Y5242306D01*
X1468729Y5243017D01*
X1474165Y5244896D01*
X1478991Y5247944D01*
X1483055Y5252008D01*
X1486103Y5256834D01*
X1487982Y5262270D01*
X1488694Y5268518D01*
X1488694Y5424881D01*
X1487982Y5431129D01*
X1486103Y5436565D01*
X1483055Y5441391D01*
X1478991Y5445455D01*
X1474165Y5448503D01*
X1468729Y5450382D01*
X1462481Y5451094D01*
X1306118Y5451094D01*
X1299870Y5450382D01*
X1294434Y5448503D01*
X1289608Y5445455D01*
X1285544Y5441391D01*
X1282496Y5436565D01*
X1280617Y5431129D01*
X1279906Y5424881D01*
X1279906Y5268518D01*
X1280617Y5262270D01*
X1282496Y5256834D01*
X1285544Y5252008D01*
X1289608Y5247944D01*
X1294434Y5244896D01*
X1299870Y5243017D01*
G37*
G36*
X1892300Y5242306D02*
G01*
X1905914Y5243220D01*
X1919325Y5245862D01*
X1932228Y5250281D01*
X1944471Y5256326D01*
X1955850Y5263896D01*
X1966112Y5272887D01*
X1975104Y5283149D01*
X1982673Y5294528D01*
X1988718Y5306771D01*
X1993138Y5319674D01*
X1995779Y5333085D01*
X1996693Y5346700D01*
X1995779Y5360314D01*
X1993138Y5373725D01*
X1988718Y5386628D01*
X1982673Y5398871D01*
X1975104Y5410250D01*
X1966112Y5420512D01*
X1955850Y5429504D01*
X1944471Y5437073D01*
X1932228Y5443118D01*
X1919325Y5447538D01*
X1905914Y5450179D01*
X1892300Y5451094D01*
X1878685Y5450179D01*
X1865274Y5447538D01*
X1852371Y5443118D01*
X1840128Y5437073D01*
X1828749Y5429504D01*
X1818487Y5420512D01*
X1809496Y5410250D01*
X1801926Y5398871D01*
X1795881Y5386628D01*
X1791462Y5373725D01*
X1788820Y5360314D01*
X1787906Y5346700D01*
X1788820Y5333085D01*
X1791462Y5319674D01*
X1795881Y5306771D01*
X1801926Y5294528D01*
X1809496Y5283149D01*
X1818487Y5272887D01*
X1828749Y5263896D01*
X1840128Y5256326D01*
X1852371Y5250281D01*
X1865274Y5245862D01*
X1878685Y5243220D01*
G37*
G36*
X3238195Y9590278D02*
G01*
X3255416Y9591243D01*
X3272028Y9594088D01*
X3288233Y9598761D01*
X3303828Y9605213D01*
X3318611Y9613392D01*
X3332378Y9623196D01*
X3344976Y9634474D01*
X3356203Y9647072D01*
X3365957Y9660839D01*
X3374136Y9675622D01*
X3380587Y9691217D01*
X3385261Y9707473D01*
X3388055Y9724136D01*
X3389020Y9741001D01*
X3388055Y9757816D01*
X3385210Y9774478D01*
X3380536Y9790734D01*
X3374085Y9806330D01*
X3365906Y9821062D01*
X3356101Y9834880D01*
X3344875Y9847427D01*
X3332276Y9858705D01*
X3318510Y9868458D01*
X3303727Y9876637D01*
X3288131Y9883089D01*
X3271875Y9887762D01*
X3255213Y9890607D01*
X3238398Y9891522D01*
X3221532Y9890607D01*
X3204870Y9887762D01*
X3188614Y9883089D01*
X3173018Y9876637D01*
X3158236Y9868458D01*
X3144469Y9858705D01*
X3131870Y9847427D01*
X3120644Y9834880D01*
X3110839Y9821062D01*
X3102660Y9806330D01*
X3096209Y9790734D01*
X3091535Y9774478D01*
X3088690Y9757816D01*
X3087725Y9741001D01*
X3088690Y9724136D01*
X3091484Y9707473D01*
X3096158Y9691217D01*
X3102610Y9675622D01*
X3110788Y9660839D01*
X3120542Y9647072D01*
X3131769Y9634474D01*
X3144367Y9623196D01*
X3158134Y9613392D01*
X3172917Y9605213D01*
X3188512Y9598761D01*
X3204718Y9594088D01*
X3221380Y9591243D01*
G37*
G36*
X253695Y9590278D02*
G01*
X270916Y9591243D01*
X287528Y9594088D01*
X303733Y9598761D01*
X319328Y9605213D01*
X334111Y9613392D01*
X347878Y9623196D01*
X360476Y9634474D01*
X371703Y9647072D01*
X381457Y9660839D01*
X389636Y9675622D01*
X396087Y9691217D01*
X400761Y9707473D01*
X403555Y9724136D01*
X404520Y9741001D01*
X403555Y9757816D01*
X400710Y9774478D01*
X396036Y9790734D01*
X389585Y9806330D01*
X381406Y9821062D01*
X371602Y9834880D01*
X360375Y9847427D01*
X347776Y9858705D01*
X334010Y9868458D01*
X319227Y9876637D01*
X303631Y9883089D01*
X287375Y9887762D01*
X270713Y9890607D01*
X253898Y9891522D01*
X237032Y9890607D01*
X220370Y9887762D01*
X204114Y9883089D01*
X188518Y9876637D01*
X173736Y9868458D01*
X159969Y9858705D01*
X147370Y9847427D01*
X136144Y9834880D01*
X126339Y9821062D01*
X118160Y9806330D01*
X111709Y9790734D01*
X107035Y9774478D01*
X104190Y9757816D01*
X103225Y9741001D01*
X104190Y9724136D01*
X106984Y9707473D01*
X111658Y9691217D01*
X118110Y9675622D01*
X126288Y9660839D01*
X136042Y9647072D01*
X147269Y9634474D01*
X159867Y9623196D01*
X173634Y9613392D01*
X188417Y9605213D01*
X204012Y9598761D01*
X220217Y9594088D01*
X236880Y9591243D01*
G37*
G36*
X1638300Y5242306D02*
G01*
X1651914Y5243220D01*
X1665325Y5245862D01*
X1678228Y5250281D01*
X1690471Y5256326D01*
X1701850Y5263896D01*
X1712112Y5272887D01*
X1721104Y5283149D01*
X1728673Y5294528D01*
X1734718Y5306771D01*
X1739138Y5319674D01*
X1741779Y5333085D01*
X1742693Y5346700D01*
X1741779Y5360314D01*
X1739138Y5373725D01*
X1734718Y5386628D01*
X1728673Y5398871D01*
X1721104Y5410250D01*
X1712112Y5420512D01*
X1701850Y5429504D01*
X1690471Y5437073D01*
X1678228Y5443118D01*
X1665325Y5447538D01*
X1651914Y5450179D01*
X1638300Y5451094D01*
X1624685Y5450179D01*
X1611274Y5447538D01*
X1598371Y5443118D01*
X1586128Y5437073D01*
X1574749Y5429504D01*
X1564487Y5420512D01*
X1555496Y5410250D01*
X1547926Y5398871D01*
X1541881Y5386628D01*
X1537462Y5373725D01*
X1534820Y5360314D01*
X1533906Y5346700D01*
X1534820Y5333085D01*
X1537462Y5319674D01*
X1541881Y5306771D01*
X1547926Y5294528D01*
X1555496Y5283149D01*
X1564487Y5272887D01*
X1574749Y5263896D01*
X1586128Y5256326D01*
X1598371Y5250281D01*
X1611274Y5245862D01*
X1624685Y5243220D01*
G37*
G36*
X3225495Y3113278D02*
G01*
X3242716Y3114243D01*
X3259328Y3117088D01*
X3275533Y3121761D01*
X3291128Y3128213D01*
X3305911Y3136392D01*
X3319678Y3146196D01*
X3332276Y3157474D01*
X3343503Y3170072D01*
X3353257Y3183839D01*
X3361436Y3198622D01*
X3367887Y3214217D01*
X3372561Y3230473D01*
X3375355Y3247136D01*
X3376320Y3264001D01*
X3375355Y3280816D01*
X3372510Y3297478D01*
X3367836Y3313734D01*
X3361385Y3329330D01*
X3353206Y3344062D01*
X3343401Y3357879D01*
X3332175Y3370427D01*
X3319576Y3381705D01*
X3305810Y3391458D01*
X3291027Y3399637D01*
X3275431Y3406089D01*
X3259175Y3410762D01*
X3242513Y3413607D01*
X3225698Y3414522D01*
X3208832Y3413607D01*
X3192170Y3410762D01*
X3175914Y3406089D01*
X3160318Y3399637D01*
X3145536Y3391458D01*
X3131769Y3381705D01*
X3119170Y3370427D01*
X3107944Y3357879D01*
X3098139Y3344062D01*
X3089960Y3329330D01*
X3083509Y3313734D01*
X3078835Y3297478D01*
X3075990Y3280816D01*
X3075025Y3264001D01*
X3075990Y3247136D01*
X3078784Y3230473D01*
X3083458Y3214217D01*
X3089910Y3198622D01*
X3098088Y3183839D01*
X3107842Y3170072D01*
X3119069Y3157474D01*
X3131667Y3146196D01*
X3145434Y3136392D01*
X3160217Y3128213D01*
X3175812Y3121761D01*
X3192018Y3117088D01*
X3208680Y3114243D01*
G37*
G36*
X2052726Y7500620D02*
G01*
X2100580Y7500620D01*
X2100580Y7548473D01*
X2094128Y7545273D01*
X2082749Y7537703D01*
X2072487Y7528712D01*
X2063496Y7518450D01*
X2055926Y7507071D01*
G37*

%LPD*%
G36*
X4079494Y3023870D02*
G01*
X4067352Y3024530D01*
X4050436Y3027070D01*
X4033824Y3031286D01*
X4017772Y3037078D01*
X4002328Y3044444D01*
X3987647Y3053283D01*
X3973931Y3063494D01*
X3961333Y3075025D01*
X3949852Y3087725D01*
X3939692Y3101492D01*
X3930954Y3116224D01*
X3923690Y3131667D01*
X3918000Y3147822D01*
X3913886Y3164433D01*
X3911396Y3181350D01*
X3910584Y3198672D01*
X3910584Y4011066D01*
X3909822Y4017518D01*
X3907739Y4022953D01*
X3904234Y4028033D01*
X3901186Y4031081D01*
X3897629Y4033672D01*
X3892143Y4036161D01*
X3884777Y4037329D01*
X3850233Y4037329D01*
X3846372Y4038092D01*
X3843070Y4040276D01*
X3840886Y4043527D01*
X3840073Y4047337D01*
X3840784Y4051198D01*
X3842918Y4054551D01*
X3849217Y4061104D01*
X3856329Y4071112D01*
X3861917Y4082034D01*
X3865879Y4093616D01*
X3868115Y4105706D01*
X3868521Y4117949D01*
X3867150Y4130141D01*
X3864051Y4142028D01*
X3859276Y4153306D01*
X3852875Y4163771D01*
X3845509Y4172559D01*
X3843680Y4175912D01*
X3843172Y4179671D01*
X3844137Y4183379D01*
X3846372Y4186478D01*
X3849573Y4188510D01*
X3853332Y4189222D01*
X3884320Y4189222D01*
X3890772Y4190034D01*
X3896207Y4192117D01*
X3901338Y4195622D01*
X3904335Y4198620D01*
X3906824Y4201972D01*
X3909364Y4207459D01*
X3910533Y4213656D01*
X3910584Y8537956D01*
X3911549Y8544560D01*
X3911549Y8549690D01*
X3910990Y8553348D01*
X3908806Y8559038D01*
X3905504Y8563864D01*
X3900881Y8567928D01*
X3897833Y8569756D01*
X3892042Y8571992D01*
X3885590Y8572754D01*
X3851706Y8572754D01*
X3847846Y8573516D01*
X3844544Y8575700D01*
X3842359Y8578951D01*
X3841546Y8582761D01*
X3842258Y8586622D01*
X3844391Y8589975D01*
X3849217Y8595004D01*
X3856329Y8605012D01*
X3861917Y8615934D01*
X3865879Y8627516D01*
X3868115Y8639606D01*
X3868521Y8651849D01*
X3867150Y8664041D01*
X3864051Y8675928D01*
X3859276Y8687206D01*
X3852875Y8697671D01*
X3844290Y8707882D01*
X3842410Y8711234D01*
X3841902Y8714994D01*
X3842867Y8718702D01*
X3845102Y8721801D01*
X3848303Y8723884D01*
X3852062Y8724595D01*
X3885641Y8724646D01*
X3892042Y8725458D01*
X3897528Y8727541D01*
X3902608Y8731046D01*
X3905605Y8734044D01*
X3908196Y8737600D01*
X3910685Y8743086D01*
X3911854Y8750452D01*
X3911854Y9796780D01*
X3912870Y9816287D01*
X3915460Y9833203D01*
X3919626Y9849815D01*
X3925468Y9865868D01*
X3932783Y9881311D01*
X3941622Y9895992D01*
X3951884Y9909657D01*
X3963365Y9922306D01*
X3976115Y9933787D01*
X3989882Y9943896D01*
X4004564Y9952685D01*
X4020058Y9959949D01*
X4036161Y9965639D01*
X4052773Y9969754D01*
X4069689Y9972243D01*
X4088231Y9973157D01*
X7188962Y9973157D01*
X7207402Y9972192D01*
X7224318Y9969652D01*
X7240879Y9965436D01*
X7256983Y9959644D01*
X7272426Y9952278D01*
X7287056Y9943439D01*
X7300772Y9933228D01*
X7313422Y9921697D01*
X7324852Y9908997D01*
X7335012Y9895230D01*
X7343749Y9880549D01*
X7351014Y9865055D01*
X7356754Y9848900D01*
X7360818Y9832340D01*
X7363307Y9815372D01*
X7364171Y9797948D01*
X7364171Y3199638D01*
X7363206Y3181248D01*
X7360666Y3164332D01*
X7356449Y3147720D01*
X7350658Y3131667D01*
X7343292Y3116224D01*
X7334453Y3101543D01*
X7324191Y3087827D01*
X7312710Y3075228D01*
X7300010Y3063748D01*
X7286244Y3053588D01*
X7271512Y3044850D01*
X7256018Y3037586D01*
X7239914Y3031896D01*
X7223302Y3027781D01*
X7206386Y3025292D01*
X7188962Y3024479D01*
X4085539Y3024479D01*
G37*

%LPC*%
G36*
X4969967Y9676333D02*
G01*
X4975504Y9676333D01*
X4981803Y9677044D01*
X4987747Y9679127D01*
X4991100Y9679686D01*
X4994452Y9679127D01*
X5000396Y9677044D01*
X5006695Y9676333D01*
X5012232Y9676333D01*
X5012232Y9715652D01*
X4969967Y9715652D01*
G37*
G36*
X4152595Y3113278D02*
G01*
X4169816Y3114243D01*
X4186428Y3117088D01*
X4202633Y3121761D01*
X4218228Y3128213D01*
X4233011Y3136392D01*
X4246778Y3146196D01*
X4259376Y3157474D01*
X4270603Y3170072D01*
X4280357Y3183839D01*
X4288536Y3198622D01*
X4294987Y3214217D01*
X4299661Y3230473D01*
X4302455Y3247136D01*
X4303420Y3264001D01*
X4302455Y3280816D01*
X4299610Y3297478D01*
X4294936Y3313734D01*
X4288485Y3329330D01*
X4280306Y3344062D01*
X4270502Y3357879D01*
X4259275Y3370427D01*
X4246676Y3381705D01*
X4232910Y3391458D01*
X4218127Y3399637D01*
X4202531Y3406089D01*
X4186275Y3410762D01*
X4169613Y3413607D01*
X4152798Y3414522D01*
X4135932Y3413607D01*
X4119270Y3410762D01*
X4103014Y3406089D01*
X4087418Y3399637D01*
X4072636Y3391458D01*
X4058869Y3381705D01*
X4046270Y3370427D01*
X4035044Y3357879D01*
X4025239Y3344062D01*
X4017060Y3329330D01*
X4010609Y3313734D01*
X4005935Y3297478D01*
X4003090Y3280816D01*
X4002125Y3264001D01*
X4003090Y3247136D01*
X4005884Y3230473D01*
X4010558Y3214217D01*
X4017010Y3198622D01*
X4025188Y3183839D01*
X4034942Y3170072D01*
X4046169Y3157474D01*
X4058767Y3146196D01*
X4072534Y3136392D01*
X4087317Y3128213D01*
X4102912Y3121761D01*
X4119118Y3117088D01*
X4135780Y3114243D01*
G37*
G36*
X7111695Y3113278D02*
G01*
X7128916Y3114243D01*
X7145528Y3117088D01*
X7161733Y3121761D01*
X7177328Y3128213D01*
X7192111Y3136392D01*
X7205878Y3146196D01*
X7218476Y3157474D01*
X7229703Y3170072D01*
X7239457Y3183839D01*
X7247636Y3198622D01*
X7254087Y3214217D01*
X7258761Y3230473D01*
X7261555Y3247136D01*
X7262520Y3264001D01*
X7261555Y3280816D01*
X7258710Y3297478D01*
X7254036Y3313734D01*
X7247585Y3329330D01*
X7239406Y3344062D01*
X7229602Y3357879D01*
X7218375Y3370427D01*
X7205776Y3381705D01*
X7192009Y3391458D01*
X7177227Y3399637D01*
X7161631Y3406089D01*
X7145375Y3410762D01*
X7128713Y3413607D01*
X7111898Y3414522D01*
X7095032Y3413607D01*
X7078370Y3410762D01*
X7062114Y3406089D01*
X7046518Y3399637D01*
X7031736Y3391458D01*
X7017969Y3381705D01*
X7005370Y3370427D01*
X6994144Y3357879D01*
X6984339Y3344062D01*
X6976160Y3329330D01*
X6969709Y3313734D01*
X6965035Y3297478D01*
X6962190Y3280816D01*
X6961225Y3264001D01*
X6962190Y3247136D01*
X6964984Y3230473D01*
X6969658Y3214217D01*
X6976109Y3198622D01*
X6984288Y3183839D01*
X6994042Y3170072D01*
X7005269Y3157474D01*
X7017867Y3146196D01*
X7031634Y3136392D01*
X7046417Y3128213D01*
X7062012Y3121761D01*
X7078218Y3117088D01*
X7094880Y3114243D01*
G37*
G36*
X4893716Y9676333D02*
G01*
X4903012Y9676333D01*
X4909312Y9677044D01*
X4911496Y9677806D01*
X4914849Y9678365D01*
X4918202Y9677806D01*
X4920386Y9677044D01*
X4926685Y9676333D01*
X4932222Y9676333D01*
X4932222Y9715652D01*
X4893716Y9715652D01*
G37*
G36*
X5940450Y3303015D02*
G01*
X5960821Y3303015D01*
X5967069Y3303727D01*
X5972505Y3305606D01*
X5977331Y3308654D01*
X5981395Y3312718D01*
X5984443Y3317544D01*
X5986322Y3322980D01*
X5987034Y3329228D01*
X5987034Y3376269D01*
X5940450Y3376269D01*
G37*
G36*
X5852718Y3303015D02*
G01*
X5873140Y3303015D01*
X5873140Y3376269D01*
X5826506Y3376269D01*
X5826506Y3329228D01*
X5827217Y3322980D01*
X5829096Y3317544D01*
X5832144Y3312718D01*
X5836208Y3308654D01*
X5841034Y3305606D01*
X5846470Y3303727D01*
G37*
G36*
X5392978Y3303015D02*
G01*
X5501081Y3303015D01*
X5507329Y3303727D01*
X5512765Y3305606D01*
X5517591Y3308654D01*
X5521655Y3312718D01*
X5524703Y3317544D01*
X5526582Y3322980D01*
X5527294Y3329228D01*
X5527294Y3544011D01*
X5526582Y3550259D01*
X5524703Y3555695D01*
X5521655Y3560521D01*
X5517591Y3564585D01*
X5512765Y3567633D01*
X5503164Y3570681D01*
X5500268Y3572916D01*
X5498338Y3576065D01*
X5497677Y3579672D01*
X5497677Y3606596D01*
X5497474Y3611219D01*
X5496915Y3615588D01*
X5495950Y3619906D01*
X5494629Y3624122D01*
X5492953Y3628186D01*
X5490870Y3632098D01*
X5488533Y3635857D01*
X5485841Y3639362D01*
X5482691Y3642766D01*
X5432196Y3693261D01*
X5428792Y3696411D01*
X5425287Y3699103D01*
X5421528Y3701491D01*
X5417616Y3703523D01*
X5413552Y3705199D01*
X5409336Y3706520D01*
X5405018Y3707485D01*
X5400649Y3708044D01*
X5395976Y3708247D01*
X5293664Y3708247D01*
X5290312Y3708857D01*
X5287314Y3710482D01*
X5284724Y3713581D01*
X5280660Y3717594D01*
X5275783Y3720642D01*
X5270398Y3722573D01*
X5264150Y3723284D01*
X5175250Y3723284D01*
X5169001Y3722573D01*
X5163616Y3720642D01*
X5158740Y3717594D01*
X5152085Y3710482D01*
X5149088Y3708857D01*
X5145735Y3708247D01*
X5115864Y3708247D01*
X5112512Y3708857D01*
X5109514Y3710482D01*
X5106924Y3713581D01*
X5102860Y3717594D01*
X5097983Y3720642D01*
X5092598Y3722573D01*
X5086350Y3723284D01*
X4997450Y3723284D01*
X4991201Y3722573D01*
X4985816Y3720642D01*
X4980940Y3717594D01*
X4974285Y3710482D01*
X4971288Y3708857D01*
X4967935Y3708247D01*
X4952796Y3708247D01*
X4948885Y3709060D01*
X4945583Y3711244D01*
X4879644Y3777183D01*
X4877460Y3780485D01*
X4876647Y3784396D01*
X4876647Y4787442D01*
X4877612Y4791760D01*
X4878730Y4794097D01*
X4881270Y4803546D01*
X4882134Y4813300D01*
X4881270Y4823053D01*
X4878730Y4832502D01*
X4874615Y4841341D01*
X4868976Y4849368D01*
X4862068Y4856276D01*
X4854041Y4861864D01*
X4845202Y4866030D01*
X4835753Y4868519D01*
X4826000Y4869383D01*
X4816297Y4868519D01*
X4806848Y4866030D01*
X4797958Y4861864D01*
X4789982Y4856276D01*
X4783023Y4849368D01*
X4777435Y4841341D01*
X4773320Y4832502D01*
X4770780Y4823053D01*
X4769916Y4813300D01*
X4770780Y4803546D01*
X4773320Y4794097D01*
X4774387Y4791760D01*
X4775352Y4787442D01*
X4775352Y3759403D01*
X4775555Y3754780D01*
X4776165Y3750411D01*
X4777079Y3746093D01*
X4778400Y3741877D01*
X4780127Y3737762D01*
X4782159Y3733850D01*
X4784547Y3730142D01*
X4787239Y3726637D01*
X4790338Y3723233D01*
X4891633Y3621938D01*
X4895037Y3618839D01*
X4898542Y3616147D01*
X4902250Y3613759D01*
X4906162Y3611727D01*
X4910277Y3610000D01*
X4914493Y3608679D01*
X4918811Y3607714D01*
X4923180Y3607155D01*
X4927803Y3606952D01*
X4967935Y3606952D01*
X4971288Y3606393D01*
X4974285Y3604717D01*
X4976876Y3601669D01*
X4980940Y3597605D01*
X4985816Y3594557D01*
X4991201Y3592677D01*
X4997450Y3591966D01*
X5086350Y3591966D01*
X5092598Y3592677D01*
X5097983Y3594557D01*
X5102860Y3597605D01*
X5109514Y3604717D01*
X5112512Y3606393D01*
X5115864Y3606952D01*
X5145735Y3606952D01*
X5149088Y3606393D01*
X5152085Y3604717D01*
X5154676Y3601669D01*
X5158740Y3597605D01*
X5163616Y3594557D01*
X5169001Y3592677D01*
X5175250Y3591966D01*
X5264150Y3591966D01*
X5270398Y3592677D01*
X5275783Y3594557D01*
X5280660Y3597605D01*
X5287314Y3604717D01*
X5290312Y3606393D01*
X5293664Y3606952D01*
X5371033Y3606952D01*
X5374894Y3606190D01*
X5378196Y3604006D01*
X5393385Y3588816D01*
X5395620Y3585514D01*
X5396382Y3581603D01*
X5395722Y3576065D01*
X5393791Y3572916D01*
X5390896Y3570681D01*
X5386730Y3569512D01*
X5381294Y3567633D01*
X5376468Y3564585D01*
X5372404Y3560521D01*
X5369356Y3555695D01*
X5367477Y3550259D01*
X5366766Y3544011D01*
X5366766Y3329228D01*
X5367477Y3322980D01*
X5369356Y3317544D01*
X5372404Y3312718D01*
X5376468Y3308654D01*
X5381294Y3305606D01*
X5386730Y3303727D01*
G37*
G36*
X5621578Y3303015D02*
G01*
X5729681Y3303015D01*
X5735929Y3303727D01*
X5741365Y3305606D01*
X5746191Y3308654D01*
X5750255Y3312718D01*
X5753303Y3317544D01*
X5755182Y3322980D01*
X5755894Y3329228D01*
X5755894Y3544011D01*
X5755182Y3550259D01*
X5753303Y3555695D01*
X5750255Y3560521D01*
X5746191Y3564585D01*
X5741365Y3567633D01*
X5733796Y3570325D01*
X5732018Y3571189D01*
X5728919Y3573475D01*
X5726938Y3576777D01*
X5726277Y3580587D01*
X5727090Y3584346D01*
X5729274Y3587546D01*
X5745734Y3604006D01*
X5749036Y3606190D01*
X5752896Y3606952D01*
X6060135Y3606952D01*
X6063488Y3606393D01*
X6066485Y3604717D01*
X6069076Y3601669D01*
X6073140Y3597605D01*
X6078016Y3594557D01*
X6083401Y3592677D01*
X6089650Y3591966D01*
X6178550Y3591966D01*
X6184798Y3592677D01*
X6190183Y3594557D01*
X6195060Y3597605D01*
X6201714Y3604717D01*
X6204712Y3606393D01*
X6208064Y3606952D01*
X6250635Y3606952D01*
X6253988Y3606393D01*
X6256985Y3604717D01*
X6259576Y3601669D01*
X6263640Y3597605D01*
X6268516Y3594557D01*
X6273901Y3592677D01*
X6280150Y3591966D01*
X6369050Y3591966D01*
X6375298Y3592677D01*
X6380683Y3594557D01*
X6385560Y3597605D01*
X6389624Y3601669D01*
X6392672Y3606495D01*
X6394551Y3611930D01*
X6395262Y3618179D01*
X6395262Y3697020D01*
X6394551Y3703320D01*
X6392672Y3708704D01*
X6389624Y3713581D01*
X6385560Y3717594D01*
X6380683Y3720642D01*
X6375298Y3722573D01*
X6369050Y3723284D01*
X6280150Y3723284D01*
X6273901Y3722573D01*
X6268516Y3720642D01*
X6263640Y3717594D01*
X6256985Y3710482D01*
X6253988Y3708857D01*
X6250635Y3708247D01*
X6208064Y3708247D01*
X6204712Y3708857D01*
X6201714Y3710482D01*
X6199124Y3713581D01*
X6195060Y3717594D01*
X6190183Y3720642D01*
X6184798Y3722573D01*
X6178550Y3723284D01*
X6089650Y3723284D01*
X6083401Y3722573D01*
X6078016Y3720642D01*
X6073140Y3717594D01*
X6066485Y3710482D01*
X6063488Y3708857D01*
X6060135Y3708247D01*
X5736437Y3708247D01*
X5732576Y3709060D01*
X5729274Y3711244D01*
X5727039Y3714546D01*
X5726277Y3718407D01*
X5726277Y3912615D01*
X5727039Y3916527D01*
X5729274Y3919778D01*
X5732576Y3922014D01*
X5736437Y3922776D01*
X5850331Y3922776D01*
X5856579Y3923487D01*
X5862015Y3925366D01*
X5866841Y3928414D01*
X5870905Y3932478D01*
X5873953Y3937304D01*
X5875832Y3942740D01*
X5876544Y3948988D01*
X5876544Y4163771D01*
X5875832Y4170019D01*
X5873953Y4175455D01*
X5870905Y4180281D01*
X5866841Y4184345D01*
X5862015Y4187393D01*
X5856579Y4189272D01*
X5850331Y4189984D01*
X5736437Y4189984D01*
X5732576Y4190746D01*
X5729274Y4192981D01*
X5727039Y4196232D01*
X5726277Y4200144D01*
X5726277Y4230166D01*
X5726074Y4234789D01*
X5725515Y4239158D01*
X5724550Y4243476D01*
X5723229Y4247692D01*
X5721553Y4251756D01*
X5719470Y4255668D01*
X5717133Y4259427D01*
X5714441Y4262932D01*
X5711291Y4266336D01*
X5603544Y4374083D01*
X5601309Y4377385D01*
X5600547Y4381296D01*
X5600547Y4586935D01*
X5601157Y4590288D01*
X5602782Y4593285D01*
X5605881Y4595876D01*
X5609894Y4599940D01*
X5612993Y4604816D01*
X5614873Y4610201D01*
X5615584Y4616450D01*
X5615584Y4705350D01*
X5614873Y4711598D01*
X5612993Y4716983D01*
X5609894Y4721860D01*
X5605881Y4725924D01*
X5601004Y4728972D01*
X5595620Y4730851D01*
X5589320Y4731562D01*
X5510479Y4731562D01*
X5504230Y4730851D01*
X5498795Y4728972D01*
X5494883Y4726940D01*
X5492038Y4726533D01*
X5212943Y4726533D01*
X5208828Y4727448D01*
X5205374Y4729886D01*
X5201615Y4734102D01*
X5191201Y4742891D01*
X5179720Y4750206D01*
X5167376Y4755946D01*
X5154422Y4759960D01*
X5141010Y4762195D01*
X5127396Y4762652D01*
X5113883Y4761331D01*
X5100624Y4758182D01*
X5087924Y4753254D01*
X5075986Y4746752D01*
X5065064Y4738674D01*
X5055260Y4729226D01*
X5046827Y4718507D01*
X5039918Y4706823D01*
X5034584Y4694326D01*
X5031028Y4681169D01*
X5029200Y4667707D01*
X5029200Y4654092D01*
X5031028Y4640630D01*
X5034584Y4627473D01*
X5039918Y4614976D01*
X5046827Y4603292D01*
X5055260Y4592574D01*
X5065064Y4583125D01*
X5075986Y4575048D01*
X5087924Y4568545D01*
X5100624Y4563618D01*
X5113883Y4560468D01*
X5127396Y4559147D01*
X5141010Y4559604D01*
X5154422Y4561840D01*
X5167376Y4565853D01*
X5179720Y4571593D01*
X5191201Y4578908D01*
X5201615Y4587697D01*
X5205374Y4591913D01*
X5208828Y4594352D01*
X5212943Y4595266D01*
X5489092Y4595266D01*
X5493004Y4594453D01*
X5496255Y4592269D01*
X5498490Y4588967D01*
X5499252Y4585106D01*
X5499252Y4356303D01*
X5499455Y4351680D01*
X5500014Y4347311D01*
X5500979Y4342993D01*
X5502300Y4338777D01*
X5503976Y4334713D01*
X5506059Y4330801D01*
X5508396Y4327042D01*
X5511088Y4323537D01*
X5514238Y4320133D01*
X5621985Y4212386D01*
X5624220Y4209084D01*
X5624982Y4205173D01*
X5624982Y4200144D01*
X5624220Y4196232D01*
X5621985Y4192981D01*
X5618683Y4190746D01*
X5614822Y4189984D01*
X5500928Y4189984D01*
X5494680Y4189272D01*
X5489244Y4187393D01*
X5484418Y4184345D01*
X5480354Y4180281D01*
X5477306Y4175455D01*
X5475427Y4170019D01*
X5474716Y4163771D01*
X5474716Y3948988D01*
X5475427Y3942740D01*
X5477306Y3937304D01*
X5480354Y3932478D01*
X5484418Y3928414D01*
X5489244Y3925366D01*
X5494680Y3923487D01*
X5500928Y3922776D01*
X5614822Y3922776D01*
X5618683Y3922014D01*
X5621985Y3919778D01*
X5624220Y3916527D01*
X5624982Y3912615D01*
X5624982Y3579672D01*
X5624322Y3576065D01*
X5622391Y3572916D01*
X5619496Y3570681D01*
X5615330Y3569512D01*
X5609894Y3567633D01*
X5605068Y3564585D01*
X5601004Y3560521D01*
X5597956Y3555695D01*
X5596077Y3550259D01*
X5595366Y3544011D01*
X5595366Y3329228D01*
X5596077Y3322980D01*
X5597956Y3317544D01*
X5601004Y3312718D01*
X5605068Y3308654D01*
X5609894Y3305606D01*
X5615330Y3303727D01*
G37*
G36*
X5940450Y3496919D02*
G01*
X5987034Y3496919D01*
X5987034Y3544011D01*
X5986322Y3550259D01*
X5984443Y3555695D01*
X5981395Y3560521D01*
X5977331Y3564585D01*
X5972505Y3567633D01*
X5967069Y3569512D01*
X5960821Y3570224D01*
X5940450Y3570224D01*
G37*
G36*
X5826506Y3496919D02*
G01*
X5873140Y3496919D01*
X5873140Y3570224D01*
X5852718Y3570224D01*
X5846470Y3569512D01*
X5841034Y3567633D01*
X5836208Y3564585D01*
X5832144Y3560521D01*
X5829096Y3555695D01*
X5827217Y3550259D01*
X5826506Y3544011D01*
G37*
G36*
X5175250Y3769715D02*
G01*
X5190845Y3769715D01*
X5190845Y3809034D01*
X5149037Y3809034D01*
X5149037Y3795979D01*
X5149748Y3789679D01*
X5151628Y3784295D01*
X5154676Y3779418D01*
X5158740Y3775405D01*
X5163616Y3772306D01*
X5169001Y3770426D01*
G37*
G36*
X6162954Y3769715D02*
G01*
X6178550Y3769715D01*
X6184798Y3770426D01*
X6190183Y3772306D01*
X6195060Y3775405D01*
X6199124Y3779418D01*
X6202172Y3784295D01*
X6204051Y3789679D01*
X6204762Y3795979D01*
X6204762Y3809034D01*
X6162954Y3809034D01*
G37*
G36*
X5070754Y3769715D02*
G01*
X5086350Y3769715D01*
X5092598Y3770426D01*
X5097983Y3772306D01*
X5102860Y3775405D01*
X5106924Y3779418D01*
X5109972Y3784295D01*
X5111851Y3789679D01*
X5112562Y3795979D01*
X5112562Y3809034D01*
X5070754Y3809034D01*
G37*
G36*
X6089650Y3769715D02*
G01*
X6105245Y3769715D01*
X6105245Y3809034D01*
X6063437Y3809034D01*
X6063437Y3795979D01*
X6064148Y3789679D01*
X6066028Y3784295D01*
X6069076Y3779418D01*
X6073140Y3775405D01*
X6078016Y3772306D01*
X6083401Y3770426D01*
G37*
G36*
X4997450Y3769715D02*
G01*
X5013045Y3769715D01*
X5013045Y3809034D01*
X4971237Y3809034D01*
X4971237Y3795979D01*
X4971948Y3789679D01*
X4973828Y3784295D01*
X4976876Y3779418D01*
X4980940Y3775405D01*
X4985816Y3772306D01*
X4991201Y3770426D01*
G37*
G36*
X5248554Y3769715D02*
G01*
X5264150Y3769715D01*
X5270398Y3770426D01*
X5275783Y3772306D01*
X5280660Y3775405D01*
X5284724Y3779418D01*
X5287772Y3784295D01*
X5289651Y3789679D01*
X5290362Y3795979D01*
X5290362Y3809034D01*
X5248554Y3809034D01*
G37*
G36*
X6280150Y3769715D02*
G01*
X6295745Y3769715D01*
X6295745Y3809034D01*
X6253937Y3809034D01*
X6253937Y3795979D01*
X6254648Y3789679D01*
X6256528Y3784295D01*
X6259576Y3779418D01*
X6263640Y3775405D01*
X6268516Y3772306D01*
X6273901Y3770426D01*
G37*
G36*
X6353454Y3769715D02*
G01*
X6369050Y3769715D01*
X6375298Y3770426D01*
X6380683Y3772306D01*
X6385560Y3775405D01*
X6389624Y3779418D01*
X6392672Y3784295D01*
X6394551Y3789679D01*
X6395262Y3795979D01*
X6395262Y3809034D01*
X6353454Y3809034D01*
G37*
G36*
X5149037Y3861714D02*
G01*
X5190845Y3861714D01*
X5190845Y3901033D01*
X5175250Y3901033D01*
X5169001Y3900322D01*
X5163616Y3898442D01*
X5158740Y3895394D01*
X5154676Y3891330D01*
X5151628Y3886504D01*
X5149748Y3881069D01*
X5149037Y3874820D01*
G37*
G36*
X6162954Y3861714D02*
G01*
X6204762Y3861714D01*
X6204762Y3874820D01*
X6204051Y3881069D01*
X6202172Y3886504D01*
X6199124Y3891330D01*
X6195060Y3895394D01*
X6190183Y3898442D01*
X6184798Y3900322D01*
X6178550Y3901033D01*
X6162954Y3901033D01*
G37*
G36*
X5070754Y3861714D02*
G01*
X5112562Y3861714D01*
X5112562Y3874820D01*
X5111851Y3881069D01*
X5109972Y3886504D01*
X5106924Y3891330D01*
X5102860Y3895394D01*
X5097983Y3898442D01*
X5092598Y3900322D01*
X5086350Y3901033D01*
X5070754Y3901033D01*
G37*
G36*
X5248554Y3861714D02*
G01*
X5290362Y3861714D01*
X5290362Y3874820D01*
X5289651Y3881069D01*
X5287772Y3886504D01*
X5284724Y3891330D01*
X5280660Y3895394D01*
X5275783Y3898442D01*
X5270398Y3900322D01*
X5264150Y3901033D01*
X5248554Y3901033D01*
G37*
G36*
X6063437Y3861714D02*
G01*
X6105245Y3861714D01*
X6105245Y3901033D01*
X6089650Y3901033D01*
X6083401Y3900322D01*
X6078016Y3898442D01*
X6073140Y3895394D01*
X6069076Y3891330D01*
X6066028Y3886504D01*
X6064148Y3881069D01*
X6063437Y3874820D01*
G37*
G36*
X4971237Y3861714D02*
G01*
X5013045Y3861714D01*
X5013045Y3901033D01*
X4997450Y3901033D01*
X4991201Y3900322D01*
X4985816Y3898442D01*
X4980940Y3895394D01*
X4976876Y3891330D01*
X4973828Y3886504D01*
X4971948Y3881069D01*
X4971237Y3874820D01*
G37*
G36*
X6253937Y3861714D02*
G01*
X6295745Y3861714D01*
X6295745Y3901033D01*
X6280150Y3901033D01*
X6273901Y3900322D01*
X6268516Y3898442D01*
X6263640Y3895394D01*
X6259576Y3891330D01*
X6256528Y3886504D01*
X6254648Y3881069D01*
X6253937Y3874820D01*
G37*
G36*
X6353454Y3861714D02*
G01*
X6395262Y3861714D01*
X6395262Y3874820D01*
X6394551Y3881069D01*
X6392672Y3886504D01*
X6389624Y3891330D01*
X6385560Y3895394D01*
X6380683Y3898442D01*
X6375298Y3900322D01*
X6369050Y3901033D01*
X6353454Y3901033D01*
G37*
G36*
X6143396Y4305147D02*
G01*
X6157010Y4305604D01*
X6170422Y4307840D01*
X6183376Y4311853D01*
X6195720Y4317593D01*
X6207201Y4324908D01*
X6217615Y4333697D01*
X6226708Y4343806D01*
X6234430Y4354982D01*
X6240526Y4367123D01*
X6244996Y4379976D01*
X6247739Y4393336D01*
X6248654Y4406900D01*
X6247739Y4420463D01*
X6244996Y4433824D01*
X6240526Y4446676D01*
X6234430Y4458817D01*
X6226708Y4469993D01*
X6217615Y4480102D01*
X6207201Y4488891D01*
X6195720Y4496206D01*
X6183376Y4501946D01*
X6170422Y4505960D01*
X6157010Y4508195D01*
X6143396Y4508652D01*
X6129883Y4507331D01*
X6116624Y4504182D01*
X6103924Y4499254D01*
X6091986Y4492752D01*
X6081064Y4484674D01*
X6071260Y4475226D01*
X6062827Y4464507D01*
X6055918Y4452823D01*
X6050584Y4440326D01*
X6047028Y4427169D01*
X6045200Y4413707D01*
X6045200Y4400092D01*
X6047028Y4386630D01*
X6050584Y4373473D01*
X6055918Y4360976D01*
X6062827Y4349292D01*
X6071260Y4338574D01*
X6081064Y4329125D01*
X6091986Y4321048D01*
X6103924Y4314545D01*
X6116624Y4309618D01*
X6129883Y4306468D01*
G37*
G36*
X5127396Y4305147D02*
G01*
X5141010Y4305604D01*
X5154422Y4307840D01*
X5167376Y4311853D01*
X5179720Y4317593D01*
X5191201Y4324908D01*
X5201615Y4333697D01*
X5210708Y4343806D01*
X5218430Y4354982D01*
X5224526Y4367123D01*
X5228996Y4379976D01*
X5231739Y4393336D01*
X5232654Y4406900D01*
X5231739Y4420463D01*
X5228996Y4433824D01*
X5224526Y4446676D01*
X5218430Y4458817D01*
X5210708Y4469993D01*
X5201615Y4480102D01*
X5191201Y4488891D01*
X5179720Y4496206D01*
X5167376Y4501946D01*
X5154422Y4505960D01*
X5141010Y4508195D01*
X5127396Y4508652D01*
X5113883Y4507331D01*
X5100624Y4504182D01*
X5087924Y4499254D01*
X5075986Y4492752D01*
X5065064Y4484674D01*
X5055260Y4475226D01*
X5046827Y4464507D01*
X5039918Y4452823D01*
X5034584Y4440326D01*
X5031028Y4427169D01*
X5029200Y4413707D01*
X5029200Y4400092D01*
X5031028Y4386630D01*
X5034584Y4373473D01*
X5039918Y4360976D01*
X5046827Y4349292D01*
X5055260Y4338574D01*
X5065064Y4329125D01*
X5075986Y4321048D01*
X5087924Y4314545D01*
X5100624Y4309618D01*
X5113883Y4306468D01*
G37*
G36*
X6143396Y4559147D02*
G01*
X6157010Y4559604D01*
X6170422Y4561840D01*
X6183376Y4565853D01*
X6195720Y4571593D01*
X6207201Y4578908D01*
X6217615Y4587697D01*
X6226708Y4597806D01*
X6234430Y4608982D01*
X6240526Y4621123D01*
X6244996Y4633976D01*
X6247739Y4647336D01*
X6248654Y4660900D01*
X6247739Y4674463D01*
X6244996Y4687824D01*
X6240526Y4700676D01*
X6234430Y4712817D01*
X6226708Y4723993D01*
X6217615Y4734102D01*
X6207201Y4742891D01*
X6195720Y4750206D01*
X6183376Y4755946D01*
X6170422Y4759960D01*
X6157010Y4762195D01*
X6143396Y4762652D01*
X6129883Y4761331D01*
X6116624Y4758182D01*
X6103924Y4753254D01*
X6091986Y4746752D01*
X6081064Y4738674D01*
X6071260Y4729226D01*
X6062827Y4718507D01*
X6055918Y4706823D01*
X6050584Y4694326D01*
X6047028Y4681169D01*
X6045200Y4667707D01*
X6045200Y4654092D01*
X6047028Y4640630D01*
X6050584Y4627473D01*
X6055918Y4614976D01*
X6062827Y4603292D01*
X6071260Y4592574D01*
X6081064Y4583125D01*
X6091986Y4575048D01*
X6103924Y4568545D01*
X6116624Y4563618D01*
X6129883Y4560468D01*
G37*
G36*
X5754014Y4590237D02*
G01*
X5767120Y4590237D01*
X5773369Y4590948D01*
X5778804Y4592828D01*
X5783630Y4595876D01*
X5787694Y4599940D01*
X5790742Y4604816D01*
X5792622Y4610201D01*
X5793333Y4616450D01*
X5793333Y4632045D01*
X5754014Y4632045D01*
G37*
G36*
X5688279Y4590237D02*
G01*
X5701334Y4590237D01*
X5701334Y4632045D01*
X5662015Y4632045D01*
X5662015Y4616450D01*
X5662726Y4610201D01*
X5664657Y4604816D01*
X5667705Y4599940D01*
X5671718Y4595876D01*
X5676595Y4592828D01*
X5681980Y4590948D01*
G37*
G36*
X5754014Y4689754D02*
G01*
X5793333Y4689754D01*
X5793333Y4705350D01*
X5792622Y4711598D01*
X5790742Y4716983D01*
X5787694Y4721860D01*
X5783630Y4725924D01*
X5778804Y4728972D01*
X5773369Y4730851D01*
X5767120Y4731562D01*
X5754014Y4731562D01*
G37*
G36*
X5662015Y4689754D02*
G01*
X5701334Y4689754D01*
X5701334Y4731562D01*
X5688279Y4731562D01*
X5681980Y4730851D01*
X5676595Y4728972D01*
X5671718Y4725924D01*
X5667705Y4721860D01*
X5664657Y4716983D01*
X5662726Y4711598D01*
X5662015Y4705350D01*
G37*
G36*
X5127396Y4813147D02*
G01*
X5141010Y4813604D01*
X5154422Y4815840D01*
X5167376Y4819853D01*
X5179720Y4825593D01*
X5191201Y4832908D01*
X5201615Y4841697D01*
X5210708Y4851806D01*
X5218430Y4862982D01*
X5224526Y4875123D01*
X5228996Y4887976D01*
X5231739Y4901336D01*
X5232654Y4914900D01*
X5231739Y4928463D01*
X5228996Y4941824D01*
X5224526Y4954676D01*
X5218430Y4966817D01*
X5210708Y4977993D01*
X5201615Y4988102D01*
X5191201Y4996891D01*
X5179720Y5004206D01*
X5167376Y5009946D01*
X5154422Y5013960D01*
X5141010Y5016195D01*
X5127396Y5016652D01*
X5113883Y5015331D01*
X5100624Y5012182D01*
X5087924Y5007254D01*
X5075986Y5000752D01*
X5065064Y4992674D01*
X5055260Y4983226D01*
X5046827Y4972507D01*
X5039918Y4960823D01*
X5034584Y4948326D01*
X5031028Y4935169D01*
X5029200Y4921707D01*
X5029200Y4908092D01*
X5031028Y4894630D01*
X5034584Y4881473D01*
X5039918Y4868976D01*
X5046827Y4857292D01*
X5055260Y4846574D01*
X5065064Y4837125D01*
X5075986Y4829048D01*
X5087924Y4822545D01*
X5100624Y4817618D01*
X5113883Y4814468D01*
G37*
G36*
X6102350Y4823409D02*
G01*
X6102350Y4870450D01*
X6055309Y4870450D01*
X6055918Y4868976D01*
X6062827Y4857292D01*
X6071260Y4846574D01*
X6081064Y4837125D01*
X6091986Y4829048D01*
G37*
G36*
X6191250Y4823510D02*
G01*
X6195720Y4825593D01*
X6207201Y4832908D01*
X6217615Y4841697D01*
X6226708Y4851806D01*
X6234430Y4862982D01*
X6238189Y4870450D01*
X6191250Y4870450D01*
G37*
G36*
X6191250Y4959350D02*
G01*
X6238189Y4959350D01*
X6234430Y4966817D01*
X6226708Y4977993D01*
X6217615Y4988102D01*
X6207201Y4996891D01*
X6195720Y5004206D01*
X6191250Y5006289D01*
G37*
G36*
X6055309Y4959350D02*
G01*
X6102350Y4959350D01*
X6102350Y5006390D01*
X6091986Y5000752D01*
X6081064Y4992674D01*
X6071260Y4983226D01*
X6062827Y4972507D01*
X6055918Y4960823D01*
G37*
G36*
X4839157Y9676333D02*
G01*
X4848504Y9676333D01*
X4848504Y9715652D01*
X4812944Y9715652D01*
X4812944Y9702546D01*
X4813655Y9696297D01*
X4815535Y9690862D01*
X4818583Y9686036D01*
X4822647Y9681972D01*
X4827524Y9678924D01*
X4832908Y9677044D01*
G37*
G36*
X4152595Y9590278D02*
G01*
X4169816Y9591243D01*
X4186428Y9594088D01*
X4202633Y9598761D01*
X4218228Y9605213D01*
X4233011Y9613392D01*
X4246778Y9623196D01*
X4259376Y9634474D01*
X4270603Y9647072D01*
X4280357Y9660839D01*
X4288536Y9675622D01*
X4294987Y9691217D01*
X4299661Y9707473D01*
X4302455Y9724136D01*
X4303420Y9741001D01*
X4302455Y9757816D01*
X4299610Y9774478D01*
X4294936Y9790734D01*
X4288485Y9806330D01*
X4280306Y9821062D01*
X4270502Y9834880D01*
X4259275Y9847427D01*
X4246676Y9858705D01*
X4232910Y9868458D01*
X4218127Y9876637D01*
X4202531Y9883089D01*
X4186275Y9887762D01*
X4169613Y9890607D01*
X4152798Y9891522D01*
X4135932Y9890607D01*
X4119270Y9887762D01*
X4103014Y9883089D01*
X4087418Y9876637D01*
X4072636Y9868458D01*
X4058869Y9858705D01*
X4046270Y9847427D01*
X4035044Y9834880D01*
X4025239Y9821062D01*
X4017060Y9806330D01*
X4010609Y9790734D01*
X4005935Y9774478D01*
X4003090Y9757816D01*
X4002125Y9741001D01*
X4003090Y9724136D01*
X4005884Y9707473D01*
X4010558Y9691217D01*
X4017010Y9675622D01*
X4025188Y9660839D01*
X4034942Y9647072D01*
X4046169Y9634474D01*
X4058767Y9623196D01*
X4072534Y9613392D01*
X4087317Y9605213D01*
X4102912Y9598761D01*
X4119118Y9594088D01*
X4135780Y9591243D01*
G37*
G36*
X7124395Y9590278D02*
G01*
X7141616Y9591243D01*
X7158228Y9594088D01*
X7174433Y9598761D01*
X7190028Y9605213D01*
X7204811Y9613392D01*
X7218578Y9623196D01*
X7231176Y9634474D01*
X7242403Y9647072D01*
X7252157Y9660839D01*
X7260336Y9675622D01*
X7266787Y9691217D01*
X7271461Y9707473D01*
X7274255Y9724136D01*
X7275220Y9741001D01*
X7274255Y9757816D01*
X7271410Y9774478D01*
X7266736Y9790734D01*
X7260285Y9806330D01*
X7252106Y9821062D01*
X7242302Y9834880D01*
X7231075Y9847427D01*
X7218476Y9858705D01*
X7204709Y9868458D01*
X7189927Y9876637D01*
X7174331Y9883089D01*
X7158075Y9887762D01*
X7141413Y9890607D01*
X7124598Y9891522D01*
X7107732Y9890607D01*
X7091070Y9887762D01*
X7074814Y9883089D01*
X7059218Y9876637D01*
X7044436Y9868458D01*
X7030669Y9858705D01*
X7018070Y9847427D01*
X7006844Y9834880D01*
X6997039Y9821062D01*
X6988860Y9806330D01*
X6982409Y9790734D01*
X6977735Y9774478D01*
X6974890Y9757816D01*
X6973925Y9741001D01*
X6974890Y9724136D01*
X6977684Y9707473D01*
X6982358Y9691217D01*
X6988809Y9675622D01*
X6996988Y9660839D01*
X7006742Y9647072D01*
X7017969Y9634474D01*
X7030567Y9623196D01*
X7044334Y9613392D01*
X7059117Y9605213D01*
X7074712Y9598761D01*
X7090918Y9594088D01*
X7107580Y9591243D01*
G37*
G36*
X5816600Y9087916D02*
G01*
X5826353Y9088780D01*
X5835802Y9091269D01*
X5844641Y9095435D01*
X5852668Y9101023D01*
X5859576Y9107932D01*
X5865164Y9115958D01*
X5869330Y9124797D01*
X5871819Y9134246D01*
X5872683Y9144000D01*
X5871819Y9153753D01*
X5869584Y9162186D01*
X5869228Y9164777D01*
X5870295Y9170060D01*
X5872327Y9173972D01*
X5875782Y9176613D01*
X5880100Y9177578D01*
X5884418Y9176613D01*
X5887872Y9173972D01*
X5889904Y9170060D01*
X5891326Y9164726D01*
X5895441Y9155938D01*
X5900978Y9148013D01*
X5907836Y9141155D01*
X5915812Y9135567D01*
X5924600Y9131503D01*
X5933948Y9128963D01*
X5943600Y9128150D01*
X5953252Y9128963D01*
X5962599Y9131503D01*
X5971387Y9135567D01*
X5979363Y9141155D01*
X5986221Y9148013D01*
X5991758Y9155938D01*
X5995873Y9164726D01*
X5997295Y9170060D01*
X5999327Y9173972D01*
X6002782Y9176613D01*
X6007100Y9177578D01*
X6011418Y9176613D01*
X6014872Y9173972D01*
X6016904Y9170060D01*
X6018326Y9164726D01*
X6022441Y9155938D01*
X6027978Y9148013D01*
X6034836Y9141155D01*
X6042812Y9135567D01*
X6051600Y9131503D01*
X6060948Y9128963D01*
X6070600Y9128150D01*
X6080252Y9128963D01*
X6089599Y9131503D01*
X6098387Y9135567D01*
X6106363Y9141155D01*
X6113221Y9148013D01*
X6118758Y9155938D01*
X6122873Y9164726D01*
X6124295Y9170060D01*
X6126327Y9173972D01*
X6129782Y9176613D01*
X6134100Y9177578D01*
X6138418Y9176613D01*
X6141872Y9173972D01*
X6143904Y9170060D01*
X6145326Y9164726D01*
X6149441Y9155938D01*
X6154978Y9148013D01*
X6161836Y9141155D01*
X6169812Y9135567D01*
X6178600Y9131503D01*
X6187948Y9128963D01*
X6197600Y9128150D01*
X6207252Y9128963D01*
X6216599Y9131503D01*
X6225387Y9135567D01*
X6233363Y9141155D01*
X6240221Y9148013D01*
X6245758Y9155938D01*
X6249873Y9164726D01*
X6251295Y9170060D01*
X6253327Y9173972D01*
X6256782Y9176613D01*
X6261100Y9177578D01*
X6265418Y9176613D01*
X6268872Y9173972D01*
X6270904Y9170060D01*
X6272326Y9164726D01*
X6276441Y9155938D01*
X6281978Y9148013D01*
X6288836Y9141155D01*
X6296812Y9135567D01*
X6305600Y9131503D01*
X6314948Y9128963D01*
X6324600Y9128150D01*
X6334252Y9128963D01*
X6343599Y9131503D01*
X6352387Y9135567D01*
X6360363Y9141155D01*
X6367221Y9148013D01*
X6372758Y9155938D01*
X6376873Y9164726D01*
X6378295Y9170060D01*
X6380327Y9173972D01*
X6383782Y9176613D01*
X6388100Y9177578D01*
X6392418Y9176613D01*
X6395872Y9173972D01*
X6397904Y9170060D01*
X6399326Y9164726D01*
X6403441Y9155938D01*
X6408978Y9148013D01*
X6415836Y9141155D01*
X6423812Y9135567D01*
X6432600Y9131503D01*
X6441948Y9128963D01*
X6451600Y9128150D01*
X6461252Y9128963D01*
X6470599Y9131503D01*
X6479387Y9135567D01*
X6487363Y9141155D01*
X6494221Y9148013D01*
X6499758Y9155938D01*
X6503873Y9164726D01*
X6506362Y9174073D01*
X6507276Y9184182D01*
X6507276Y9353296D01*
X6506362Y9363405D01*
X6503873Y9372752D01*
X6499758Y9381540D01*
X6494221Y9389516D01*
X6487363Y9396374D01*
X6479387Y9401911D01*
X6470599Y9406026D01*
X6461252Y9408515D01*
X6451600Y9409379D01*
X6441948Y9408515D01*
X6432600Y9406026D01*
X6423812Y9401911D01*
X6415836Y9396374D01*
X6408978Y9389516D01*
X6403441Y9381540D01*
X6399326Y9372752D01*
X6397904Y9367469D01*
X6395872Y9363557D01*
X6392418Y9360865D01*
X6388100Y9359900D01*
X6383782Y9360865D01*
X6380327Y9363557D01*
X6378295Y9367469D01*
X6376873Y9372752D01*
X6372758Y9381540D01*
X6367221Y9389516D01*
X6360363Y9396374D01*
X6352387Y9401911D01*
X6343599Y9406026D01*
X6334252Y9408515D01*
X6324600Y9409379D01*
X6314948Y9408515D01*
X6305600Y9406026D01*
X6296812Y9401911D01*
X6288836Y9396374D01*
X6281978Y9389516D01*
X6276441Y9381540D01*
X6272326Y9372752D01*
X6270904Y9367469D01*
X6268872Y9363557D01*
X6265418Y9360865D01*
X6261100Y9359900D01*
X6256782Y9360865D01*
X6253327Y9363557D01*
X6251295Y9367469D01*
X6249873Y9372752D01*
X6245758Y9381540D01*
X6240221Y9389516D01*
X6233363Y9396374D01*
X6225387Y9401911D01*
X6216599Y9406026D01*
X6207252Y9408515D01*
X6197600Y9409379D01*
X6187948Y9408515D01*
X6178600Y9406026D01*
X6169812Y9401911D01*
X6161836Y9396374D01*
X6154978Y9389516D01*
X6149441Y9381540D01*
X6145326Y9372752D01*
X6143904Y9367469D01*
X6141872Y9363557D01*
X6138418Y9360865D01*
X6134100Y9359900D01*
X6129782Y9360865D01*
X6126327Y9363557D01*
X6124295Y9367469D01*
X6122873Y9372752D01*
X6118758Y9381540D01*
X6113221Y9389516D01*
X6106363Y9396374D01*
X6098387Y9401911D01*
X6089599Y9406026D01*
X6080252Y9408515D01*
X6070600Y9409379D01*
X6060948Y9408515D01*
X6051600Y9406026D01*
X6042812Y9401911D01*
X6034836Y9396374D01*
X6027978Y9389516D01*
X6022441Y9381540D01*
X6018326Y9372752D01*
X6016904Y9367469D01*
X6014872Y9363557D01*
X6011418Y9360865D01*
X6007100Y9359900D01*
X6002782Y9360865D01*
X5999327Y9363557D01*
X5997295Y9367469D01*
X5995873Y9372752D01*
X5991758Y9381540D01*
X5986221Y9389516D01*
X5979363Y9396374D01*
X5971387Y9401911D01*
X5962599Y9406026D01*
X5953252Y9408515D01*
X5943600Y9409379D01*
X5933948Y9408515D01*
X5924600Y9406026D01*
X5915812Y9401911D01*
X5907836Y9396374D01*
X5900978Y9389516D01*
X5895441Y9381540D01*
X5891326Y9372752D01*
X5889904Y9367469D01*
X5887872Y9363557D01*
X5884418Y9360865D01*
X5880100Y9359900D01*
X5875782Y9360865D01*
X5872327Y9363557D01*
X5870295Y9367469D01*
X5868873Y9372752D01*
X5864758Y9381540D01*
X5859221Y9389516D01*
X5852363Y9396374D01*
X5844387Y9401911D01*
X5835599Y9406026D01*
X5826252Y9408515D01*
X5816600Y9409379D01*
X5806948Y9408515D01*
X5797600Y9406026D01*
X5788812Y9401911D01*
X5780836Y9396374D01*
X5773978Y9389516D01*
X5768441Y9381540D01*
X5764326Y9372752D01*
X5762904Y9367469D01*
X5760872Y9363557D01*
X5757418Y9360865D01*
X5753100Y9359900D01*
X5748782Y9360865D01*
X5745327Y9363557D01*
X5743295Y9367469D01*
X5741873Y9372752D01*
X5737758Y9381540D01*
X5732221Y9389516D01*
X5725363Y9396374D01*
X5717387Y9401911D01*
X5708599Y9406026D01*
X5699252Y9408515D01*
X5689600Y9409379D01*
X5679948Y9408515D01*
X5670600Y9406026D01*
X5661812Y9401911D01*
X5653836Y9396374D01*
X5646978Y9389516D01*
X5641441Y9381540D01*
X5637326Y9372752D01*
X5635904Y9367469D01*
X5633872Y9363557D01*
X5630418Y9360865D01*
X5626100Y9359900D01*
X5621782Y9360865D01*
X5618327Y9363557D01*
X5616295Y9367469D01*
X5614873Y9372752D01*
X5614212Y9374174D01*
X5613247Y9378492D01*
X5613247Y9715296D01*
X5613044Y9719919D01*
X5612485Y9724288D01*
X5611520Y9728606D01*
X5610199Y9732822D01*
X5608523Y9736886D01*
X5606440Y9740798D01*
X5604103Y9744557D01*
X5601411Y9748062D01*
X5598261Y9751466D01*
X5502503Y9847224D01*
X5500471Y9850120D01*
X5496864Y9857841D01*
X5491276Y9865868D01*
X5484368Y9872776D01*
X5476341Y9878364D01*
X5467502Y9882530D01*
X5458053Y9885019D01*
X5448300Y9885883D01*
X5438546Y9885019D01*
X5429097Y9882530D01*
X5420258Y9878364D01*
X5412232Y9872776D01*
X5405323Y9865868D01*
X5399735Y9857841D01*
X5395569Y9849002D01*
X5393080Y9839553D01*
X5392216Y9829800D01*
X5393080Y9820046D01*
X5395569Y9810597D01*
X5399735Y9801758D01*
X5405323Y9793732D01*
X5412232Y9786823D01*
X5420258Y9781235D01*
X5427980Y9777628D01*
X5430875Y9775596D01*
X5508955Y9697516D01*
X5511190Y9694214D01*
X5511952Y9690303D01*
X5511952Y9378492D01*
X5510987Y9374174D01*
X5510326Y9372752D01*
X5508904Y9367469D01*
X5506872Y9363557D01*
X5503418Y9360865D01*
X5499100Y9359900D01*
X5494782Y9360865D01*
X5491327Y9363557D01*
X5489295Y9367469D01*
X5487873Y9372752D01*
X5483758Y9381540D01*
X5478221Y9389516D01*
X5471363Y9396374D01*
X5463387Y9401911D01*
X5454599Y9406026D01*
X5445252Y9408515D01*
X5435600Y9409379D01*
X5425948Y9408515D01*
X5416600Y9406026D01*
X5407812Y9401911D01*
X5399836Y9396374D01*
X5392978Y9389516D01*
X5387441Y9381540D01*
X5383326Y9372752D01*
X5381904Y9367469D01*
X5379872Y9363557D01*
X5376418Y9360865D01*
X5372100Y9359900D01*
X5367782Y9360865D01*
X5364327Y9363557D01*
X5362295Y9367469D01*
X5360873Y9372752D01*
X5356758Y9381540D01*
X5351221Y9389516D01*
X5344363Y9396374D01*
X5336387Y9401911D01*
X5327599Y9406026D01*
X5318252Y9408515D01*
X5308600Y9409379D01*
X5298948Y9408515D01*
X5289600Y9406026D01*
X5280812Y9401911D01*
X5272836Y9396374D01*
X5265978Y9389516D01*
X5260441Y9381540D01*
X5256326Y9372752D01*
X5254904Y9367469D01*
X5252872Y9363557D01*
X5249418Y9360865D01*
X5245100Y9359900D01*
X5240782Y9360865D01*
X5237327Y9363557D01*
X5235295Y9367469D01*
X5233873Y9372752D01*
X5229758Y9381540D01*
X5224221Y9389516D01*
X5217363Y9396374D01*
X5209387Y9401911D01*
X5205628Y9403689D01*
X5202732Y9405721D01*
X5152440Y9456013D01*
X5150205Y9459315D01*
X5149443Y9463227D01*
X5149443Y9490049D01*
X5150002Y9493402D01*
X5151678Y9496399D01*
X5154218Y9498634D01*
X5159552Y9501987D01*
X5163616Y9506051D01*
X5166664Y9510928D01*
X5168544Y9516313D01*
X5169255Y9522561D01*
X5169255Y9601454D01*
X5168544Y9607702D01*
X5166664Y9613138D01*
X5163616Y9617964D01*
X5159552Y9622028D01*
X5154676Y9625076D01*
X5149291Y9626955D01*
X5143042Y9627666D01*
X5079187Y9627666D01*
X5072888Y9626955D01*
X5070703Y9626193D01*
X5067350Y9625634D01*
X5063998Y9626193D01*
X5061813Y9626955D01*
X5055514Y9627666D01*
X5006695Y9627666D01*
X5000396Y9626955D01*
X4994452Y9624872D01*
X4991100Y9624314D01*
X4987747Y9624872D01*
X4981803Y9626955D01*
X4975504Y9627666D01*
X4926685Y9627666D01*
X4920386Y9626955D01*
X4918202Y9626193D01*
X4914849Y9625584D01*
X4911496Y9626193D01*
X4909312Y9626955D01*
X4903063Y9627666D01*
X4839208Y9627666D01*
X4832908Y9626955D01*
X4827524Y9625025D01*
X4822647Y9621977D01*
X4818583Y9617964D01*
X4815535Y9613087D01*
X4813655Y9607702D01*
X4812944Y9601403D01*
X4812944Y9522561D01*
X4813655Y9516313D01*
X4815535Y9510877D01*
X4818329Y9506508D01*
X4819599Y9503359D01*
X4819802Y9499955D01*
X4818837Y9496704D01*
X4816906Y9493910D01*
X4773828Y9450882D01*
X4768748Y9444685D01*
X4765192Y9438081D01*
X4763008Y9430867D01*
X4762246Y9422892D01*
X4762246Y9397949D01*
X4761484Y9394088D01*
X4759248Y9390786D01*
X4757978Y9389516D01*
X4752441Y9381540D01*
X4748326Y9372752D01*
X4745837Y9363405D01*
X4744923Y9353296D01*
X4744923Y9184182D01*
X4745837Y9174073D01*
X4748326Y9164726D01*
X4752441Y9155938D01*
X4757978Y9148013D01*
X4764836Y9141155D01*
X4772812Y9135567D01*
X4781600Y9131503D01*
X4790948Y9128963D01*
X4800600Y9128150D01*
X4810252Y9128963D01*
X4819599Y9131503D01*
X4828387Y9135567D01*
X4836363Y9141155D01*
X4843221Y9148013D01*
X4848758Y9155938D01*
X4852873Y9164726D01*
X4854295Y9170060D01*
X4856327Y9173972D01*
X4859782Y9176613D01*
X4864100Y9177578D01*
X4868418Y9176613D01*
X4871872Y9173972D01*
X4873904Y9170060D01*
X4875326Y9164726D01*
X4879441Y9155938D01*
X4884978Y9148013D01*
X4891836Y9141155D01*
X4899812Y9135567D01*
X4908600Y9131503D01*
X4917948Y9128963D01*
X4927600Y9128150D01*
X4937252Y9128963D01*
X4946599Y9131503D01*
X4955387Y9135567D01*
X4963363Y9141155D01*
X4970221Y9148013D01*
X4975758Y9155938D01*
X4979873Y9164726D01*
X4981295Y9170060D01*
X4983327Y9173972D01*
X4986782Y9176613D01*
X4991100Y9177578D01*
X4995418Y9176613D01*
X4998872Y9173972D01*
X5000904Y9170060D01*
X5002326Y9164726D01*
X5006441Y9155938D01*
X5011978Y9148013D01*
X5018836Y9141155D01*
X5026812Y9135567D01*
X5035600Y9131503D01*
X5044948Y9128963D01*
X5054600Y9128150D01*
X5064252Y9128963D01*
X5073599Y9131503D01*
X5082387Y9135567D01*
X5090363Y9141155D01*
X5097221Y9148013D01*
X5102758Y9155938D01*
X5106873Y9164726D01*
X5108295Y9170060D01*
X5110327Y9173972D01*
X5113782Y9176613D01*
X5118100Y9177578D01*
X5122418Y9176613D01*
X5125872Y9173972D01*
X5127904Y9170060D01*
X5129326Y9164726D01*
X5133441Y9155938D01*
X5138978Y9148013D01*
X5145836Y9141155D01*
X5153812Y9135567D01*
X5162600Y9131503D01*
X5171948Y9128963D01*
X5181600Y9128150D01*
X5191252Y9128963D01*
X5200599Y9131503D01*
X5209387Y9135567D01*
X5217363Y9141155D01*
X5224221Y9148013D01*
X5229758Y9155938D01*
X5233873Y9164726D01*
X5235295Y9170060D01*
X5237327Y9173972D01*
X5240782Y9176613D01*
X5245100Y9177578D01*
X5249418Y9176613D01*
X5252872Y9173972D01*
X5254904Y9170060D01*
X5256326Y9164726D01*
X5260441Y9155938D01*
X5265978Y9148013D01*
X5272836Y9141155D01*
X5280812Y9135567D01*
X5289600Y9131503D01*
X5298948Y9128963D01*
X5308600Y9128150D01*
X5318252Y9128963D01*
X5327599Y9131503D01*
X5336387Y9135567D01*
X5344363Y9141155D01*
X5351221Y9148013D01*
X5356758Y9155938D01*
X5360873Y9164726D01*
X5362295Y9170060D01*
X5364327Y9173972D01*
X5367782Y9176613D01*
X5372100Y9177578D01*
X5376418Y9176613D01*
X5379872Y9173972D01*
X5381904Y9170060D01*
X5383326Y9164726D01*
X5387441Y9155938D01*
X5392978Y9148013D01*
X5399836Y9141155D01*
X5407812Y9135567D01*
X5416600Y9131503D01*
X5425948Y9128963D01*
X5435600Y9128150D01*
X5445252Y9128963D01*
X5454599Y9131503D01*
X5463387Y9135567D01*
X5471363Y9141155D01*
X5478221Y9148013D01*
X5483758Y9155938D01*
X5487873Y9164726D01*
X5489295Y9170060D01*
X5491327Y9173972D01*
X5494782Y9176613D01*
X5499100Y9177578D01*
X5503418Y9176613D01*
X5506872Y9173972D01*
X5508904Y9170060D01*
X5510326Y9164726D01*
X5514441Y9155938D01*
X5519978Y9148013D01*
X5526836Y9141155D01*
X5534812Y9135567D01*
X5543600Y9131503D01*
X5552948Y9128963D01*
X5562600Y9128150D01*
X5572252Y9128963D01*
X5581599Y9131503D01*
X5590387Y9135567D01*
X5598363Y9141155D01*
X5605221Y9148013D01*
X5610758Y9155938D01*
X5614873Y9164726D01*
X5616295Y9170060D01*
X5618327Y9173972D01*
X5621782Y9176613D01*
X5626100Y9177578D01*
X5630418Y9176613D01*
X5633872Y9173972D01*
X5635904Y9170060D01*
X5637326Y9164726D01*
X5641441Y9155938D01*
X5646978Y9148013D01*
X5653836Y9141155D01*
X5661812Y9135567D01*
X5670600Y9131503D01*
X5679948Y9128963D01*
X5689600Y9128150D01*
X5699252Y9128963D01*
X5708599Y9131503D01*
X5717387Y9135567D01*
X5725363Y9141155D01*
X5732221Y9148013D01*
X5737758Y9155938D01*
X5741873Y9164726D01*
X5743295Y9170060D01*
X5745327Y9173972D01*
X5748782Y9176613D01*
X5753100Y9177578D01*
X5757418Y9176613D01*
X5760872Y9173972D01*
X5762904Y9170060D01*
X5763971Y9164777D01*
X5763615Y9162186D01*
X5761380Y9153753D01*
X5760516Y9144000D01*
X5761380Y9134246D01*
X5763869Y9124797D01*
X5768035Y9115958D01*
X5773623Y9107932D01*
X5780532Y9101023D01*
X5788558Y9095435D01*
X5797397Y9091269D01*
X5806846Y9088780D01*
G37*
G36*
X4824018Y7668006D02*
G01*
X4980381Y7668006D01*
X4986629Y7668717D01*
X4992065Y7670596D01*
X4996891Y7673644D01*
X5000955Y7677708D01*
X5004003Y7682534D01*
X5005882Y7687970D01*
X5006594Y7694218D01*
X5006594Y7850581D01*
X5005882Y7856829D01*
X5004003Y7862265D01*
X5000955Y7867091D01*
X4996891Y7871155D01*
X4992065Y7874203D01*
X4986629Y7876082D01*
X4980381Y7876794D01*
X4824018Y7876794D01*
X4817770Y7876082D01*
X4812334Y7874203D01*
X4807508Y7871155D01*
X4803444Y7867091D01*
X4800396Y7862265D01*
X4798517Y7856829D01*
X4797806Y7850581D01*
X4797806Y7694218D01*
X4798517Y7687970D01*
X4800396Y7682534D01*
X4803444Y7677708D01*
X4807508Y7673644D01*
X4812334Y7670596D01*
X4817770Y7668717D01*
G37*
G36*
X6017818Y7668006D02*
G01*
X6174181Y7668006D01*
X6180429Y7668717D01*
X6185865Y7670596D01*
X6190691Y7673644D01*
X6194755Y7677708D01*
X6197803Y7682534D01*
X6199682Y7687970D01*
X6200394Y7694218D01*
X6200394Y7850581D01*
X6199682Y7856829D01*
X6197803Y7862265D01*
X6194755Y7867091D01*
X6190691Y7871155D01*
X6185865Y7874203D01*
X6180429Y7876082D01*
X6174181Y7876794D01*
X6017818Y7876794D01*
X6011570Y7876082D01*
X6006134Y7874203D01*
X6001308Y7871155D01*
X5997244Y7867091D01*
X5994196Y7862265D01*
X5992317Y7856829D01*
X5991606Y7850581D01*
X5991606Y7694218D01*
X5992317Y7687970D01*
X5994196Y7682534D01*
X5997244Y7677708D01*
X6001308Y7673644D01*
X6006134Y7670596D01*
X6011570Y7668717D01*
G37*
G36*
X6350000Y7668006D02*
G01*
X6363614Y7668920D01*
X6377025Y7671562D01*
X6389928Y7675981D01*
X6402171Y7682026D01*
X6413550Y7689596D01*
X6423812Y7698587D01*
X6432804Y7708849D01*
X6440373Y7720228D01*
X6446418Y7732471D01*
X6450838Y7745374D01*
X6453479Y7758785D01*
X6454394Y7772400D01*
X6453479Y7786014D01*
X6450838Y7799425D01*
X6446418Y7812328D01*
X6440373Y7824571D01*
X6432804Y7835950D01*
X6423812Y7846212D01*
X6413550Y7855203D01*
X6402171Y7862773D01*
X6389928Y7868818D01*
X6377025Y7873238D01*
X6363614Y7875879D01*
X6350000Y7876794D01*
X6336385Y7875879D01*
X6322974Y7873238D01*
X6310071Y7868818D01*
X6297828Y7862773D01*
X6286449Y7855203D01*
X6276187Y7846212D01*
X6267196Y7835950D01*
X6259626Y7824571D01*
X6253581Y7812328D01*
X6249162Y7799425D01*
X6246520Y7786014D01*
X6245606Y7772400D01*
X6246520Y7758785D01*
X6249162Y7745374D01*
X6253581Y7732471D01*
X6259626Y7720228D01*
X6267196Y7708849D01*
X6276187Y7698587D01*
X6286449Y7689596D01*
X6297828Y7682026D01*
X6310071Y7675981D01*
X6322974Y7671562D01*
X6336385Y7668920D01*
G37*
G36*
X6713220Y5951626D02*
G01*
X6719671Y5954826D01*
X6731050Y5962396D01*
X6741312Y5971387D01*
X6750303Y5981649D01*
X6757873Y5993028D01*
X6761073Y5999480D01*
X6713220Y5999480D01*
G37*
G36*
X4538980Y5951626D02*
G01*
X4538980Y5999480D01*
X4491126Y5999480D01*
X4494326Y5993028D01*
X4501896Y5981649D01*
X4510887Y5971387D01*
X4521149Y5962396D01*
X4532528Y5954826D01*
G37*
G36*
X5156200Y7668006D02*
G01*
X5169814Y7668920D01*
X5183225Y7671562D01*
X5196128Y7675981D01*
X5208371Y7682026D01*
X5219750Y7689596D01*
X5230012Y7698587D01*
X5239004Y7708849D01*
X5246573Y7720228D01*
X5252618Y7732471D01*
X5257038Y7745374D01*
X5259679Y7758785D01*
X5260594Y7772400D01*
X5259679Y7786014D01*
X5257038Y7799425D01*
X5252618Y7812328D01*
X5246573Y7824571D01*
X5239004Y7835950D01*
X5230012Y7846212D01*
X5219750Y7855203D01*
X5208371Y7862773D01*
X5196128Y7868818D01*
X5183225Y7873238D01*
X5169814Y7875879D01*
X5156200Y7876794D01*
X5142585Y7875879D01*
X5129174Y7873238D01*
X5116271Y7868818D01*
X5104028Y7862773D01*
X5092649Y7855203D01*
X5082387Y7846212D01*
X5073396Y7835950D01*
X5065826Y7824571D01*
X5059781Y7812328D01*
X5055362Y7799425D01*
X5052720Y7786014D01*
X5051806Y7772400D01*
X5052720Y7758785D01*
X5055362Y7745374D01*
X5059781Y7732471D01*
X5065826Y7720228D01*
X5073396Y7708849D01*
X5082387Y7698587D01*
X5092649Y7689596D01*
X5104028Y7682026D01*
X5116271Y7675981D01*
X5129174Y7671562D01*
X5142585Y7668920D01*
G37*
G36*
X4630420Y5951626D02*
G01*
X4636871Y5954826D01*
X4648250Y5962396D01*
X4658512Y5971387D01*
X4667504Y5981649D01*
X4675073Y5993028D01*
X4678273Y5999480D01*
X4630420Y5999480D01*
G37*
G36*
X4506518Y6702806D02*
G01*
X4662881Y6702806D01*
X4669129Y6703517D01*
X4674565Y6705396D01*
X4679391Y6708444D01*
X4683455Y6712508D01*
X4686503Y6717334D01*
X4688382Y6722770D01*
X4689094Y6729018D01*
X4689094Y6731406D01*
X4689856Y6735267D01*
X4692091Y6738569D01*
X4695342Y6740753D01*
X4699254Y6741566D01*
X6552946Y6741566D01*
X6556857Y6740753D01*
X6560108Y6738569D01*
X6562344Y6735267D01*
X6563106Y6731406D01*
X6563106Y6729018D01*
X6563817Y6722770D01*
X6565696Y6717334D01*
X6568744Y6712508D01*
X6572808Y6708444D01*
X6577634Y6705396D01*
X6583070Y6703517D01*
X6589318Y6702806D01*
X6745681Y6702806D01*
X6751929Y6703517D01*
X6757365Y6705396D01*
X6762191Y6708444D01*
X6766255Y6712508D01*
X6769303Y6717334D01*
X6771182Y6722770D01*
X6771894Y6729018D01*
X6771894Y6885381D01*
X6771182Y6891629D01*
X6769303Y6897065D01*
X6766255Y6901891D01*
X6762191Y6905955D01*
X6757365Y6909003D01*
X6751929Y6910882D01*
X6745681Y6911594D01*
X6589318Y6911594D01*
X6583070Y6910882D01*
X6577634Y6909003D01*
X6572808Y6905955D01*
X6568744Y6901891D01*
X6565696Y6897065D01*
X6563817Y6891629D01*
X6563106Y6885381D01*
X6563106Y6882993D01*
X6562344Y6879132D01*
X6560108Y6875830D01*
X6556857Y6873646D01*
X6552946Y6872833D01*
X6080607Y6872833D01*
X6076746Y6873646D01*
X6073444Y6875830D01*
X6071209Y6879132D01*
X6070447Y6882993D01*
X6070447Y6933742D01*
X6071412Y6938060D01*
X6072530Y6940397D01*
X6075019Y6949846D01*
X6075883Y6959600D01*
X6075019Y6969353D01*
X6072530Y6978802D01*
X6068364Y6987641D01*
X6062776Y6995668D01*
X6055868Y7002576D01*
X6047841Y7008164D01*
X6039002Y7012330D01*
X6029553Y7014819D01*
X6019800Y7015683D01*
X6010046Y7014819D01*
X6000597Y7012330D01*
X5991758Y7008164D01*
X5983732Y7002576D01*
X5976823Y6995668D01*
X5971235Y6987641D01*
X5967069Y6978802D01*
X5964580Y6969353D01*
X5963716Y6959600D01*
X5964580Y6949846D01*
X5967069Y6940397D01*
X5968187Y6938060D01*
X5969152Y6933742D01*
X5969152Y6882993D01*
X5968390Y6879132D01*
X5966155Y6875830D01*
X5962853Y6873646D01*
X5958992Y6872833D01*
X4699254Y6872833D01*
X4695342Y6873646D01*
X4692091Y6875830D01*
X4689856Y6879132D01*
X4689094Y6882993D01*
X4689094Y6885381D01*
X4688382Y6891629D01*
X4686503Y6897065D01*
X4683455Y6901891D01*
X4679391Y6905955D01*
X4674565Y6909003D01*
X4669129Y6910882D01*
X4662881Y6911594D01*
X4506518Y6911594D01*
X4500270Y6910882D01*
X4494834Y6909003D01*
X4490008Y6905955D01*
X4485944Y6901891D01*
X4482896Y6897065D01*
X4481017Y6891629D01*
X4480306Y6885381D01*
X4480306Y6729018D01*
X4481017Y6722770D01*
X4482896Y6717334D01*
X4485944Y6712508D01*
X4490008Y6708444D01*
X4494834Y6705396D01*
X4500270Y6703517D01*
G37*
G36*
X4584700Y6194806D02*
G01*
X4598314Y6195720D01*
X4611725Y6198362D01*
X4624628Y6202781D01*
X4636871Y6208826D01*
X4648250Y6216396D01*
X4658512Y6225387D01*
X4667504Y6235649D01*
X4673092Y6244031D01*
X4675378Y6246469D01*
X4678273Y6247993D01*
X4681524Y6248552D01*
X6570675Y6248552D01*
X6573926Y6247993D01*
X6576822Y6246469D01*
X6579108Y6244031D01*
X6584696Y6235649D01*
X6593687Y6225387D01*
X6603949Y6216396D01*
X6615328Y6208826D01*
X6627571Y6202781D01*
X6640474Y6198362D01*
X6653885Y6195720D01*
X6667500Y6194806D01*
X6681114Y6195720D01*
X6694525Y6198362D01*
X6707428Y6202781D01*
X6719671Y6208826D01*
X6731050Y6216396D01*
X6741312Y6225387D01*
X6750303Y6235649D01*
X6757873Y6247028D01*
X6763918Y6259271D01*
X6768338Y6272174D01*
X6770979Y6285585D01*
X6771894Y6299200D01*
X6770979Y6312814D01*
X6768338Y6326225D01*
X6763918Y6339128D01*
X6757873Y6351371D01*
X6750303Y6362750D01*
X6741312Y6373012D01*
X6731050Y6382004D01*
X6719671Y6389573D01*
X6707428Y6395618D01*
X6694525Y6400038D01*
X6681114Y6402679D01*
X6667500Y6403594D01*
X6653885Y6402679D01*
X6640474Y6400038D01*
X6627571Y6395618D01*
X6615328Y6389573D01*
X6603949Y6382004D01*
X6593687Y6373012D01*
X6584696Y6362750D01*
X6579108Y6354368D01*
X6576822Y6351930D01*
X6573926Y6350406D01*
X6570675Y6349847D01*
X4681524Y6349847D01*
X4678273Y6350406D01*
X4675378Y6351930D01*
X4673092Y6354368D01*
X4667504Y6362750D01*
X4658512Y6373012D01*
X4648250Y6382004D01*
X4636871Y6389573D01*
X4624628Y6395618D01*
X4611725Y6400038D01*
X4598314Y6402679D01*
X4584700Y6403594D01*
X4571085Y6402679D01*
X4557674Y6400038D01*
X4544771Y6395618D01*
X4532528Y6389573D01*
X4521149Y6382004D01*
X4510887Y6373012D01*
X4501896Y6362750D01*
X4491634Y6347510D01*
X4488434Y6345529D01*
X4484776Y6344869D01*
X4468114Y6344869D01*
X4464253Y6345631D01*
X4460951Y6347815D01*
X4226915Y6581851D01*
X4224731Y6585153D01*
X4223969Y6589014D01*
X4223969Y7660386D01*
X4224731Y7664246D01*
X4226915Y7667548D01*
X4382008Y7822641D01*
X4385310Y7824825D01*
X4389170Y7825587D01*
X4393082Y7824825D01*
X4396384Y7822641D01*
X4398568Y7819339D01*
X4399330Y7815427D01*
X4399330Y7681214D01*
X4398568Y7677353D01*
X4396384Y7674051D01*
X4309922Y7587488D01*
X4304639Y7580528D01*
X4300880Y7572959D01*
X4298543Y7564881D01*
X4297730Y7556042D01*
X4297781Y6640322D01*
X4299000Y6631635D01*
X4301693Y6623659D01*
X4305757Y6616344D01*
X4311446Y6609486D01*
X4401312Y6519722D01*
X4408271Y6514439D01*
X4415840Y6510680D01*
X4423918Y6508343D01*
X4432757Y6507530D01*
X4484776Y6507530D01*
X4488434Y6506870D01*
X4491634Y6504889D01*
X4501896Y6489649D01*
X4510887Y6479387D01*
X4521149Y6470396D01*
X4532528Y6462826D01*
X4544771Y6456781D01*
X4557674Y6452362D01*
X4571085Y6449720D01*
X4584700Y6448806D01*
X4598314Y6449720D01*
X4611725Y6452362D01*
X4624628Y6456781D01*
X4636871Y6462826D01*
X4648250Y6470396D01*
X4658512Y6479387D01*
X4667504Y6489649D01*
X4673092Y6498031D01*
X4675378Y6500469D01*
X4678273Y6501993D01*
X4681524Y6502552D01*
X6570675Y6502552D01*
X6573926Y6501993D01*
X6576822Y6500469D01*
X6579108Y6498031D01*
X6584696Y6489649D01*
X6593687Y6479387D01*
X6603949Y6470396D01*
X6615328Y6462826D01*
X6627571Y6456781D01*
X6640474Y6452362D01*
X6653885Y6449720D01*
X6667500Y6448806D01*
X6681114Y6449720D01*
X6694525Y6452362D01*
X6707428Y6456781D01*
X6719671Y6462826D01*
X6731050Y6470396D01*
X6741312Y6479387D01*
X6750303Y6489649D01*
X6757873Y6501028D01*
X6763918Y6513271D01*
X6768338Y6526174D01*
X6770979Y6539585D01*
X6771894Y6553200D01*
X6770979Y6566814D01*
X6768338Y6580225D01*
X6763918Y6593128D01*
X6757873Y6605371D01*
X6750303Y6616750D01*
X6741312Y6627012D01*
X6731050Y6636003D01*
X6719671Y6643573D01*
X6707428Y6649618D01*
X6694525Y6654038D01*
X6681114Y6656679D01*
X6667500Y6657594D01*
X6653885Y6656679D01*
X6640474Y6654038D01*
X6627571Y6649618D01*
X6615328Y6643573D01*
X6603949Y6636003D01*
X6593687Y6627012D01*
X6584696Y6616750D01*
X6579108Y6608368D01*
X6576822Y6605930D01*
X6573926Y6604406D01*
X6570675Y6603847D01*
X4681524Y6603847D01*
X4678273Y6604406D01*
X4675378Y6605930D01*
X4673092Y6608368D01*
X4667504Y6616750D01*
X4658512Y6627012D01*
X4648250Y6636003D01*
X4636871Y6643573D01*
X4624628Y6649618D01*
X4611725Y6654038D01*
X4598314Y6656679D01*
X4584700Y6657594D01*
X4571085Y6656679D01*
X4557674Y6654038D01*
X4544771Y6649618D01*
X4532528Y6643573D01*
X4521149Y6636003D01*
X4510887Y6627012D01*
X4501896Y6616750D01*
X4491634Y6601510D01*
X4488434Y6599529D01*
X4484776Y6598869D01*
X4455414Y6598869D01*
X4451553Y6599631D01*
X4448251Y6601815D01*
X4392015Y6658051D01*
X4389831Y6661353D01*
X4389069Y6665214D01*
X4389069Y7533386D01*
X4389831Y7537246D01*
X4392015Y7540548D01*
X4478477Y7627112D01*
X4483760Y7634071D01*
X4487519Y7641640D01*
X4489856Y7649718D01*
X4490669Y7658557D01*
X4490669Y7885785D01*
X4491228Y7889189D01*
X4492853Y7892135D01*
X4495393Y7894421D01*
X4500930Y7897875D01*
X4504994Y7901940D01*
X4508500Y7907477D01*
X4510735Y7910017D01*
X4513732Y7911693D01*
X4517085Y7912252D01*
X4863896Y7912252D01*
X4868519Y7912455D01*
X4872888Y7913014D01*
X4877206Y7913979D01*
X4881422Y7915300D01*
X4885486Y7916976D01*
X4889398Y7919059D01*
X4893157Y7921396D01*
X4896662Y7924088D01*
X4900066Y7927238D01*
X4963261Y7990433D01*
X4966411Y7993837D01*
X4969103Y7997342D01*
X4971440Y8001101D01*
X4973523Y8005013D01*
X4975199Y8009077D01*
X4976520Y8013293D01*
X4977485Y8017611D01*
X4978044Y8021980D01*
X4978247Y8026603D01*
X4978247Y8147507D01*
X4979212Y8151825D01*
X4979873Y8153247D01*
X4981295Y8158530D01*
X4983327Y8162442D01*
X4986782Y8165134D01*
X4991100Y8166100D01*
X4995418Y8165134D01*
X4998872Y8162442D01*
X5000904Y8158530D01*
X5002326Y8153247D01*
X5006441Y8144459D01*
X5011978Y8136483D01*
X5018836Y8129625D01*
X5026812Y8124088D01*
X5035600Y8119973D01*
X5044948Y8117484D01*
X5054600Y8116620D01*
X5064252Y8117484D01*
X5073599Y8119973D01*
X5082387Y8124088D01*
X5090363Y8129625D01*
X5097221Y8136483D01*
X5102758Y8144459D01*
X5106873Y8153247D01*
X5108295Y8158530D01*
X5110327Y8162442D01*
X5113782Y8165134D01*
X5118100Y8166100D01*
X5122418Y8165134D01*
X5125872Y8162442D01*
X5127904Y8158530D01*
X5129326Y8153247D01*
X5133441Y8144459D01*
X5138978Y8136483D01*
X5145836Y8129625D01*
X5153812Y8124088D01*
X5162600Y8119973D01*
X5171948Y8117484D01*
X5181600Y8116620D01*
X5191252Y8117484D01*
X5200599Y8119973D01*
X5209387Y8124088D01*
X5217363Y8129625D01*
X5224221Y8136483D01*
X5229758Y8144459D01*
X5233873Y8153247D01*
X5235295Y8158530D01*
X5237327Y8162442D01*
X5240782Y8165134D01*
X5245100Y8166100D01*
X5249418Y8165134D01*
X5252872Y8162442D01*
X5254904Y8158530D01*
X5256326Y8153247D01*
X5260441Y8144459D01*
X5265978Y8136483D01*
X5272836Y8129625D01*
X5280812Y8124088D01*
X5287264Y8121091D01*
X5287264Y8193379D01*
X5247436Y8193379D01*
X5243525Y8194192D01*
X5240223Y8196376D01*
X5238038Y8199678D01*
X5237276Y8203539D01*
X5237276Y8310930D01*
X5238038Y8314842D01*
X5240223Y8318144D01*
X5243525Y8320328D01*
X5247436Y8321090D01*
X5287264Y8321090D01*
X5287264Y8393430D01*
X5280812Y8390432D01*
X5272836Y8384844D01*
X5265978Y8377986D01*
X5260441Y8370062D01*
X5256326Y8361273D01*
X5254904Y8355939D01*
X5252872Y8352028D01*
X5249418Y8349386D01*
X5245100Y8348421D01*
X5240782Y8349386D01*
X5237327Y8352028D01*
X5235295Y8355939D01*
X5233873Y8361273D01*
X5229758Y8370062D01*
X5224221Y8377986D01*
X5217363Y8384844D01*
X5209387Y8390432D01*
X5200599Y8394496D01*
X5191252Y8397036D01*
X5181600Y8397849D01*
X5171948Y8397036D01*
X5162600Y8394496D01*
X5153812Y8390432D01*
X5145836Y8384844D01*
X5138978Y8377986D01*
X5133441Y8370062D01*
X5129326Y8361273D01*
X5127904Y8355939D01*
X5125872Y8352028D01*
X5122418Y8349386D01*
X5118100Y8348421D01*
X5113782Y8349386D01*
X5110327Y8352028D01*
X5108295Y8355939D01*
X5106873Y8361273D01*
X5106212Y8362696D01*
X5105247Y8366963D01*
X5105247Y8483396D01*
X5105044Y8488019D01*
X5104485Y8492388D01*
X5103520Y8496706D01*
X5102199Y8500922D01*
X5100523Y8504986D01*
X5098440Y8508898D01*
X5096103Y8512657D01*
X5093411Y8516162D01*
X5090261Y8519566D01*
X5052466Y8557361D01*
X5049062Y8560511D01*
X5045557Y8563203D01*
X5041798Y8565540D01*
X5037886Y8567623D01*
X5033822Y8569299D01*
X5029606Y8570620D01*
X5025288Y8571585D01*
X5020919Y8572144D01*
X5016296Y8572347D01*
X4517085Y8572347D01*
X4513732Y8572906D01*
X4510735Y8574582D01*
X4508500Y8577122D01*
X4504994Y8582660D01*
X4500930Y8586724D01*
X4496104Y8589772D01*
X4490669Y8591651D01*
X4484420Y8592362D01*
X4405579Y8592362D01*
X4399280Y8591651D01*
X4393895Y8589772D01*
X4389018Y8586724D01*
X4384954Y8582660D01*
X4381906Y8577783D01*
X4380026Y8572398D01*
X4379315Y8566150D01*
X4379315Y8477250D01*
X4380026Y8471001D01*
X4381906Y8465616D01*
X4384954Y8460740D01*
X4389018Y8456676D01*
X4394606Y8453221D01*
X4397146Y8450935D01*
X4398772Y8447938D01*
X4399330Y8444585D01*
X4399330Y8303514D01*
X4398568Y8299653D01*
X4396384Y8296351D01*
X4335221Y8235188D01*
X4331919Y8232952D01*
X4328007Y8232190D01*
X4324146Y8232952D01*
X4320844Y8235188D01*
X4318660Y8238490D01*
X4317847Y8242350D01*
X4317847Y8447735D01*
X4318457Y8451088D01*
X4320082Y8454085D01*
X4323181Y8456676D01*
X4327194Y8460740D01*
X4330242Y8465616D01*
X4332173Y8471001D01*
X4332884Y8477250D01*
X4332884Y8566150D01*
X4332173Y8572398D01*
X4330242Y8577783D01*
X4327194Y8582660D01*
X4320082Y8589314D01*
X4318406Y8592312D01*
X4317847Y8595664D01*
X4317847Y8623503D01*
X4318609Y8627414D01*
X4320844Y8630716D01*
X4386783Y8696655D01*
X4390085Y8698890D01*
X4393996Y8699652D01*
X4508042Y8699652D01*
X4512360Y8698687D01*
X4514697Y8697569D01*
X4524146Y8695080D01*
X4533900Y8694216D01*
X4543653Y8695080D01*
X4553102Y8697569D01*
X4555439Y8698687D01*
X4559757Y8699652D01*
X5245303Y8699652D01*
X5249214Y8698890D01*
X5252516Y8696655D01*
X5381955Y8567216D01*
X5384190Y8563914D01*
X5384952Y8560003D01*
X5384952Y8366963D01*
X5383987Y8362696D01*
X5383326Y8361273D01*
X5381904Y8355939D01*
X5379872Y8352028D01*
X5376418Y8349386D01*
X5372100Y8348421D01*
X5367782Y8349386D01*
X5364327Y8352028D01*
X5362295Y8355939D01*
X5360873Y8361273D01*
X5356758Y8370062D01*
X5351221Y8377986D01*
X5344363Y8384844D01*
X5336387Y8390432D01*
X5329936Y8393430D01*
X5329936Y8321090D01*
X5369763Y8321090D01*
X5373674Y8320328D01*
X5376976Y8318144D01*
X5379161Y8314842D01*
X5379923Y8310930D01*
X5379923Y8203539D01*
X5379161Y8199678D01*
X5376976Y8196376D01*
X5373674Y8194192D01*
X5369763Y8193379D01*
X5329936Y8193379D01*
X5329936Y8121091D01*
X5336387Y8124088D01*
X5344363Y8129625D01*
X5351221Y8136483D01*
X5356758Y8144459D01*
X5360873Y8153247D01*
X5362295Y8158530D01*
X5364327Y8162442D01*
X5367782Y8165134D01*
X5372100Y8166100D01*
X5376418Y8165134D01*
X5379872Y8162442D01*
X5381904Y8158530D01*
X5383326Y8153247D01*
X5387441Y8144459D01*
X5392978Y8136483D01*
X5399836Y8129625D01*
X5407812Y8124088D01*
X5416600Y8119973D01*
X5425948Y8117484D01*
X5435600Y8116620D01*
X5445252Y8117484D01*
X5454599Y8119973D01*
X5463387Y8124088D01*
X5471363Y8129625D01*
X5478221Y8136483D01*
X5483758Y8144459D01*
X5487873Y8153247D01*
X5489295Y8158530D01*
X5491327Y8162442D01*
X5494782Y8165134D01*
X5499100Y8166100D01*
X5503418Y8165134D01*
X5506872Y8162442D01*
X5508904Y8158530D01*
X5510326Y8153247D01*
X5514441Y8144459D01*
X5519978Y8136483D01*
X5526836Y8129625D01*
X5534812Y8124088D01*
X5543600Y8119973D01*
X5552948Y8117484D01*
X5562600Y8116620D01*
X5572252Y8117484D01*
X5581599Y8119973D01*
X5590387Y8124088D01*
X5598363Y8129625D01*
X5605221Y8136483D01*
X5610758Y8144459D01*
X5614873Y8153247D01*
X5616295Y8158530D01*
X5618327Y8162442D01*
X5621782Y8165134D01*
X5626100Y8166100D01*
X5630418Y8165134D01*
X5633872Y8162442D01*
X5635904Y8158530D01*
X5637326Y8153247D01*
X5641441Y8144459D01*
X5646978Y8136483D01*
X5653836Y8129625D01*
X5661812Y8124088D01*
X5670600Y8119973D01*
X5679948Y8117484D01*
X5689600Y8116620D01*
X5699252Y8117484D01*
X5708599Y8119973D01*
X5717387Y8124088D01*
X5725363Y8129625D01*
X5732221Y8136483D01*
X5737758Y8144459D01*
X5741873Y8153247D01*
X5743295Y8158530D01*
X5745327Y8162442D01*
X5748782Y8165134D01*
X5753100Y8166100D01*
X5757418Y8165134D01*
X5760872Y8162442D01*
X5762904Y8158530D01*
X5764326Y8153247D01*
X5768441Y8144459D01*
X5773978Y8136483D01*
X5780836Y8129625D01*
X5788812Y8124088D01*
X5797600Y8119973D01*
X5806948Y8117484D01*
X5816600Y8116620D01*
X5826252Y8117484D01*
X5835599Y8119973D01*
X5844387Y8124088D01*
X5852363Y8129625D01*
X5859221Y8136483D01*
X5864758Y8144459D01*
X5868873Y8153247D01*
X5870295Y8158530D01*
X5872327Y8162442D01*
X5875782Y8165134D01*
X5880100Y8166100D01*
X5884418Y8165134D01*
X5887872Y8162442D01*
X5889904Y8158530D01*
X5891326Y8153247D01*
X5895441Y8144459D01*
X5900978Y8136483D01*
X5907836Y8129625D01*
X5915812Y8124088D01*
X5924600Y8119973D01*
X5933948Y8117484D01*
X5943600Y8116620D01*
X5953252Y8117484D01*
X5962599Y8119973D01*
X5971387Y8124088D01*
X5979363Y8129625D01*
X5986221Y8136483D01*
X5991758Y8144459D01*
X5995873Y8153247D01*
X5997295Y8158530D01*
X5999327Y8162442D01*
X6002782Y8165134D01*
X6007100Y8166100D01*
X6011418Y8165134D01*
X6014872Y8162442D01*
X6016904Y8158530D01*
X6018326Y8153247D01*
X6022441Y8144459D01*
X6027978Y8136483D01*
X6034836Y8129625D01*
X6042812Y8124088D01*
X6051600Y8119973D01*
X6060948Y8117484D01*
X6070600Y8116620D01*
X6080252Y8117484D01*
X6089599Y8119973D01*
X6098387Y8124088D01*
X6106363Y8129625D01*
X6113221Y8136483D01*
X6118758Y8144459D01*
X6122873Y8153247D01*
X6124295Y8158530D01*
X6126327Y8162442D01*
X6129782Y8165134D01*
X6134100Y8166100D01*
X6138418Y8165134D01*
X6141872Y8162442D01*
X6143904Y8158530D01*
X6145326Y8153247D01*
X6149441Y8144459D01*
X6154978Y8136483D01*
X6161836Y8129625D01*
X6169812Y8124088D01*
X6178600Y8119973D01*
X6187948Y8117484D01*
X6197600Y8116620D01*
X6207252Y8117484D01*
X6216599Y8119973D01*
X6225387Y8124088D01*
X6233363Y8129625D01*
X6240221Y8136483D01*
X6245758Y8144459D01*
X6249873Y8153247D01*
X6251295Y8158530D01*
X6253327Y8162442D01*
X6256782Y8165134D01*
X6261100Y8166100D01*
X6265418Y8165134D01*
X6268872Y8162442D01*
X6270904Y8158530D01*
X6272326Y8153247D01*
X6276441Y8144459D01*
X6281978Y8136483D01*
X6288836Y8129625D01*
X6296812Y8124088D01*
X6305600Y8119973D01*
X6314948Y8117484D01*
X6324600Y8116620D01*
X6334252Y8117484D01*
X6343599Y8119973D01*
X6352387Y8124088D01*
X6360363Y8129625D01*
X6367221Y8136483D01*
X6372758Y8144459D01*
X6376873Y8153247D01*
X6378295Y8158530D01*
X6380327Y8162442D01*
X6383782Y8165134D01*
X6388100Y8166100D01*
X6392418Y8165134D01*
X6395872Y8162442D01*
X6397904Y8158530D01*
X6399326Y8153247D01*
X6399987Y8151825D01*
X6400952Y8147507D01*
X6400952Y8076996D01*
X6400190Y8073085D01*
X6397955Y8069783D01*
X6344716Y8016544D01*
X6341414Y8014309D01*
X6337503Y8013547D01*
X5880303Y8013547D01*
X5875680Y8013344D01*
X5871311Y8012785D01*
X5866993Y8011820D01*
X5862777Y8010499D01*
X5858713Y8008823D01*
X5854801Y8006740D01*
X5851042Y8004403D01*
X5847537Y8001711D01*
X5844133Y7998561D01*
X5565038Y7719466D01*
X5561888Y7716062D01*
X5559196Y7712557D01*
X5556859Y7708798D01*
X5554776Y7704886D01*
X5553100Y7700822D01*
X5551779Y7696606D01*
X5550814Y7692288D01*
X5550255Y7687919D01*
X5550052Y7683296D01*
X5550052Y6998157D01*
X5549087Y6993839D01*
X5547969Y6991502D01*
X5545480Y6982053D01*
X5544616Y6972300D01*
X5545480Y6962546D01*
X5547969Y6953097D01*
X5552135Y6944258D01*
X5557723Y6936231D01*
X5564632Y6929323D01*
X5572658Y6923735D01*
X5581497Y6919569D01*
X5590946Y6917080D01*
X5600700Y6916216D01*
X5610453Y6917080D01*
X5619902Y6919569D01*
X5628741Y6923735D01*
X5636768Y6929323D01*
X5643676Y6936231D01*
X5649264Y6944258D01*
X5653430Y6953097D01*
X5655919Y6962546D01*
X5656783Y6972300D01*
X5655919Y6982053D01*
X5653430Y6991502D01*
X5652312Y6993839D01*
X5651347Y6998157D01*
X5651347Y7658303D01*
X5652109Y7662214D01*
X5654344Y7665516D01*
X5898083Y7909255D01*
X5901385Y7911490D01*
X5905296Y7912252D01*
X6362496Y7912252D01*
X6367119Y7912455D01*
X6371488Y7913014D01*
X6375806Y7913979D01*
X6380022Y7915300D01*
X6384086Y7916976D01*
X6387998Y7919059D01*
X6391757Y7921396D01*
X6395262Y7924088D01*
X6398666Y7927238D01*
X6487261Y8015833D01*
X6490411Y8019237D01*
X6493103Y8022742D01*
X6495440Y8026501D01*
X6497523Y8030413D01*
X6499199Y8034477D01*
X6500520Y8038693D01*
X6501485Y8043011D01*
X6502044Y8047380D01*
X6502247Y8052003D01*
X6502247Y8147507D01*
X6503212Y8151825D01*
X6503873Y8153247D01*
X6506362Y8162594D01*
X6507276Y8172703D01*
X6507276Y8341817D01*
X6506362Y8351926D01*
X6503873Y8361273D01*
X6499758Y8370062D01*
X6494221Y8377986D01*
X6487363Y8384844D01*
X6479387Y8390432D01*
X6470599Y8394496D01*
X6461252Y8397036D01*
X6451600Y8397849D01*
X6441948Y8397036D01*
X6432600Y8394496D01*
X6423812Y8390432D01*
X6415836Y8384844D01*
X6408978Y8377986D01*
X6403441Y8370062D01*
X6399326Y8361273D01*
X6397904Y8355939D01*
X6395872Y8352028D01*
X6392418Y8349386D01*
X6388100Y8348421D01*
X6383782Y8349386D01*
X6380327Y8352028D01*
X6378295Y8355939D01*
X6376873Y8361273D01*
X6376212Y8362696D01*
X6375247Y8366963D01*
X6375247Y8471103D01*
X6376009Y8475014D01*
X6378244Y8478316D01*
X6444183Y8544255D01*
X6447485Y8546490D01*
X6451396Y8547252D01*
X6515303Y8547252D01*
X6519214Y8546490D01*
X6522516Y8544255D01*
X6588455Y8478316D01*
X6590690Y8475014D01*
X6591452Y8471103D01*
X6591452Y7213396D01*
X6590690Y7209485D01*
X6588455Y7206183D01*
X6396075Y7013803D01*
X6393180Y7011771D01*
X6385458Y7008164D01*
X6377432Y7002576D01*
X6370523Y6995668D01*
X6364935Y6987641D01*
X6360769Y6978802D01*
X6358280Y6969353D01*
X6357416Y6959600D01*
X6358280Y6949846D01*
X6360769Y6940397D01*
X6364935Y6931558D01*
X6370523Y6923531D01*
X6377432Y6916623D01*
X6385458Y6911035D01*
X6394297Y6906869D01*
X6403746Y6904380D01*
X6413500Y6903516D01*
X6423253Y6904380D01*
X6432702Y6906869D01*
X6441541Y6911035D01*
X6449568Y6916623D01*
X6456476Y6923531D01*
X6462064Y6931558D01*
X6465671Y6939280D01*
X6467703Y6942175D01*
X6677761Y7152233D01*
X6680911Y7155637D01*
X6683603Y7159142D01*
X6685940Y7162901D01*
X6688023Y7166813D01*
X6689699Y7170877D01*
X6691020Y7175093D01*
X6691985Y7179411D01*
X6692544Y7183780D01*
X6692747Y7188403D01*
X6692747Y8496096D01*
X6692544Y8500719D01*
X6691985Y8505088D01*
X6691020Y8509406D01*
X6689699Y8513622D01*
X6688023Y8517686D01*
X6685940Y8521598D01*
X6683603Y8525357D01*
X6680911Y8528862D01*
X6677761Y8532266D01*
X6576466Y8633561D01*
X6573062Y8636711D01*
X6569557Y8639403D01*
X6565798Y8641740D01*
X6561886Y8643823D01*
X6557822Y8645499D01*
X6553606Y8646820D01*
X6549288Y8647785D01*
X6544919Y8648344D01*
X6540296Y8648547D01*
X6426403Y8648547D01*
X6421780Y8648344D01*
X6417411Y8647785D01*
X6413093Y8646820D01*
X6408877Y8645499D01*
X6404813Y8643823D01*
X6400901Y8641740D01*
X6397142Y8639403D01*
X6393637Y8636711D01*
X6390233Y8633561D01*
X6288938Y8532266D01*
X6285788Y8528862D01*
X6283096Y8525357D01*
X6280759Y8521598D01*
X6278676Y8517686D01*
X6277000Y8513622D01*
X6275679Y8509406D01*
X6274714Y8505088D01*
X6274155Y8500719D01*
X6273952Y8496096D01*
X6273952Y8366963D01*
X6272987Y8362696D01*
X6272326Y8361273D01*
X6270904Y8355939D01*
X6268872Y8352028D01*
X6265418Y8349386D01*
X6261100Y8348421D01*
X6256782Y8349386D01*
X6253327Y8352028D01*
X6251295Y8355939D01*
X6249873Y8361273D01*
X6245758Y8370062D01*
X6240221Y8377986D01*
X6233363Y8384844D01*
X6225387Y8390432D01*
X6216599Y8394496D01*
X6207252Y8397036D01*
X6197600Y8397849D01*
X6187948Y8397036D01*
X6178600Y8394496D01*
X6169812Y8390432D01*
X6161836Y8384844D01*
X6154978Y8377986D01*
X6149441Y8370062D01*
X6145326Y8361273D01*
X6143904Y8355939D01*
X6141872Y8352028D01*
X6138418Y8349386D01*
X6134100Y8348421D01*
X6129782Y8349386D01*
X6126327Y8352028D01*
X6124295Y8355939D01*
X6122873Y8361273D01*
X6118758Y8370062D01*
X6113221Y8377986D01*
X6106363Y8384844D01*
X6098387Y8390432D01*
X6089599Y8394496D01*
X6080252Y8397036D01*
X6070600Y8397849D01*
X6060948Y8397036D01*
X6051600Y8394496D01*
X6042812Y8390432D01*
X6034836Y8384844D01*
X6027978Y8377986D01*
X6022441Y8370062D01*
X6018326Y8361273D01*
X6016904Y8355939D01*
X6014872Y8352028D01*
X6011418Y8349386D01*
X6007100Y8348421D01*
X6002782Y8349386D01*
X5999327Y8352028D01*
X5997295Y8355939D01*
X5995873Y8361273D01*
X5991758Y8370062D01*
X5986221Y8377986D01*
X5979363Y8384844D01*
X5971387Y8390432D01*
X5962599Y8394496D01*
X5953252Y8397036D01*
X5943600Y8397849D01*
X5933948Y8397036D01*
X5924600Y8394496D01*
X5915812Y8390432D01*
X5907836Y8384844D01*
X5900978Y8377986D01*
X5895441Y8370062D01*
X5891326Y8361273D01*
X5889904Y8355939D01*
X5887872Y8352028D01*
X5884418Y8349386D01*
X5880100Y8348421D01*
X5875782Y8349386D01*
X5872327Y8352028D01*
X5870295Y8355939D01*
X5868873Y8361273D01*
X5864758Y8370062D01*
X5859221Y8377986D01*
X5852363Y8384844D01*
X5844387Y8390432D01*
X5835599Y8394496D01*
X5826252Y8397036D01*
X5816600Y8397849D01*
X5806948Y8397036D01*
X5797600Y8394496D01*
X5788812Y8390432D01*
X5780836Y8384844D01*
X5773978Y8377986D01*
X5768441Y8370062D01*
X5764326Y8361273D01*
X5762904Y8355939D01*
X5760872Y8352028D01*
X5757418Y8349386D01*
X5753100Y8348421D01*
X5748782Y8349386D01*
X5745327Y8352028D01*
X5743295Y8355939D01*
X5741873Y8361273D01*
X5737758Y8370062D01*
X5732221Y8377986D01*
X5725363Y8384844D01*
X5717387Y8390432D01*
X5708599Y8394496D01*
X5699252Y8397036D01*
X5689600Y8397849D01*
X5679948Y8397036D01*
X5670600Y8394496D01*
X5661812Y8390432D01*
X5653836Y8384844D01*
X5646978Y8377986D01*
X5641441Y8370062D01*
X5637326Y8361273D01*
X5635904Y8355939D01*
X5633872Y8352028D01*
X5630418Y8349386D01*
X5626100Y8348421D01*
X5621782Y8349386D01*
X5618327Y8352028D01*
X5616295Y8355939D01*
X5614873Y8361273D01*
X5610758Y8370062D01*
X5605221Y8377986D01*
X5598363Y8384844D01*
X5590387Y8390432D01*
X5581599Y8394496D01*
X5572252Y8397036D01*
X5562600Y8397849D01*
X5552948Y8397036D01*
X5543600Y8394496D01*
X5534812Y8390432D01*
X5526836Y8384844D01*
X5519978Y8377986D01*
X5514441Y8370062D01*
X5510326Y8361273D01*
X5508904Y8355939D01*
X5506872Y8352028D01*
X5503418Y8349386D01*
X5499100Y8348421D01*
X5494782Y8349386D01*
X5491327Y8352028D01*
X5489295Y8355939D01*
X5487873Y8361273D01*
X5487212Y8362696D01*
X5486247Y8366963D01*
X5486247Y8584996D01*
X5486044Y8589619D01*
X5485485Y8593988D01*
X5484520Y8598306D01*
X5483199Y8602522D01*
X5481523Y8606586D01*
X5479440Y8610498D01*
X5477103Y8614257D01*
X5474411Y8617762D01*
X5471261Y8621166D01*
X5410149Y8682278D01*
X5407914Y8685580D01*
X5407152Y8689492D01*
X5407914Y8693353D01*
X5410149Y8696655D01*
X5413451Y8698890D01*
X5417312Y8699652D01*
X5752642Y8699652D01*
X5756960Y8698687D01*
X5759297Y8697569D01*
X5768746Y8695080D01*
X5778500Y8694216D01*
X5788253Y8695080D01*
X5797702Y8697569D01*
X5806541Y8701735D01*
X5814568Y8707323D01*
X5821476Y8714232D01*
X5827064Y8722258D01*
X5831230Y8731097D01*
X5833719Y8740546D01*
X5834583Y8750300D01*
X5833719Y8760053D01*
X5831230Y8769502D01*
X5827064Y8778341D01*
X5821476Y8786368D01*
X5814568Y8793276D01*
X5806541Y8798864D01*
X5797702Y8803030D01*
X5788253Y8805519D01*
X5778500Y8806383D01*
X5768746Y8805519D01*
X5759297Y8803030D01*
X5756960Y8801912D01*
X5752642Y8800947D01*
X4559757Y8800947D01*
X4555439Y8801912D01*
X4553102Y8803030D01*
X4543653Y8805519D01*
X4533900Y8806383D01*
X4524146Y8805519D01*
X4521149Y8804757D01*
X4517440Y8804452D01*
X4513884Y8805519D01*
X4510938Y8807754D01*
X4509008Y8810904D01*
X4508347Y8814562D01*
X4508347Y9741103D01*
X4509109Y9745014D01*
X4511344Y9748316D01*
X4577283Y9814255D01*
X4580585Y9816490D01*
X4584496Y9817252D01*
X4813401Y9817252D01*
X4817262Y9816490D01*
X4820564Y9814255D01*
X4822748Y9810953D01*
X4823561Y9807092D01*
X4822748Y9803180D01*
X4820564Y9799878D01*
X4818583Y9797948D01*
X4815535Y9793071D01*
X4813655Y9787686D01*
X4812944Y9781438D01*
X4812944Y9768332D01*
X4848504Y9768332D01*
X4848504Y9807092D01*
X4849266Y9810953D01*
X4851501Y9814255D01*
X4854803Y9816490D01*
X4858664Y9817252D01*
X4883556Y9817252D01*
X4887417Y9816490D01*
X4890719Y9814255D01*
X4892954Y9810953D01*
X4893716Y9807092D01*
X4893716Y9768332D01*
X4932222Y9768332D01*
X4932222Y9807092D01*
X4933035Y9810953D01*
X4935220Y9814255D01*
X4938522Y9816490D01*
X4942382Y9817252D01*
X4959807Y9817252D01*
X4963668Y9816490D01*
X4966970Y9814255D01*
X4969154Y9810953D01*
X4969967Y9807092D01*
X4969967Y9768332D01*
X5012232Y9768332D01*
X5012232Y9807092D01*
X5013045Y9810953D01*
X5015230Y9814255D01*
X5018532Y9816490D01*
X5022392Y9817252D01*
X5039817Y9817252D01*
X5043678Y9816490D01*
X5046980Y9814255D01*
X5049164Y9810953D01*
X5049977Y9807092D01*
X5049977Y9765385D01*
X5052161Y9762083D01*
X5052923Y9758172D01*
X5052923Y9725812D01*
X5052161Y9721900D01*
X5049977Y9718598D01*
X5049977Y9676333D01*
X5055514Y9676333D01*
X5061813Y9677044D01*
X5063998Y9677806D01*
X5067350Y9678416D01*
X5070703Y9677806D01*
X5072888Y9677044D01*
X5079136Y9676333D01*
X5142992Y9676333D01*
X5149291Y9677044D01*
X5154676Y9678974D01*
X5159552Y9682022D01*
X5163616Y9686036D01*
X5166664Y9690912D01*
X5168544Y9696297D01*
X5169255Y9702596D01*
X5169255Y9781438D01*
X5168544Y9787686D01*
X5166664Y9793122D01*
X5163312Y9798405D01*
X5162143Y9801047D01*
X5161737Y9803841D01*
X5161737Y9836607D01*
X5161534Y9841230D01*
X5160975Y9845598D01*
X5160010Y9849916D01*
X5158689Y9854133D01*
X5157012Y9858197D01*
X5154930Y9862108D01*
X5152593Y9865868D01*
X5149900Y9869373D01*
X5146751Y9872776D01*
X5115966Y9903561D01*
X5112562Y9906711D01*
X5109057Y9909403D01*
X5105298Y9911740D01*
X5101386Y9913823D01*
X5097322Y9915499D01*
X5093106Y9916820D01*
X5088788Y9917785D01*
X5084419Y9918344D01*
X5079796Y9918547D01*
X4559503Y9918547D01*
X4554880Y9918344D01*
X4550511Y9917785D01*
X4546193Y9916820D01*
X4541977Y9915499D01*
X4537913Y9913823D01*
X4534001Y9911740D01*
X4530242Y9909403D01*
X4526737Y9906711D01*
X4523333Y9903561D01*
X4422038Y9802266D01*
X4418888Y9798862D01*
X4416196Y9795357D01*
X4413859Y9791598D01*
X4411776Y9787686D01*
X4410100Y9783622D01*
X4408779Y9779406D01*
X4407814Y9775088D01*
X4407255Y9770719D01*
X4407052Y9766096D01*
X4407052Y8811107D01*
X4406290Y8807246D01*
X4404055Y8803944D01*
X4400753Y8801709D01*
X4396892Y8800947D01*
X4369003Y8800947D01*
X4364380Y8800744D01*
X4360011Y8800185D01*
X4355693Y8799220D01*
X4351477Y8797899D01*
X4347413Y8796223D01*
X4343501Y8794140D01*
X4339742Y8791803D01*
X4336237Y8789111D01*
X4332833Y8785961D01*
X4231538Y8684666D01*
X4228388Y8681262D01*
X4225696Y8677757D01*
X4223359Y8673998D01*
X4221276Y8670086D01*
X4219600Y8666022D01*
X4218279Y8661806D01*
X4217314Y8657488D01*
X4216755Y8653119D01*
X4216552Y8648496D01*
X4216552Y8595664D01*
X4215993Y8592312D01*
X4214317Y8589314D01*
X4211269Y8586724D01*
X4207205Y8582660D01*
X4204157Y8577783D01*
X4202277Y8572398D01*
X4201566Y8566150D01*
X4201566Y8477250D01*
X4202277Y8471001D01*
X4204157Y8465616D01*
X4207205Y8460740D01*
X4214368Y8454085D01*
X4215993Y8451088D01*
X4216552Y8447735D01*
X4216552Y8036864D01*
X4215993Y8033512D01*
X4214368Y8030514D01*
X4211269Y8027924D01*
X4207205Y8023859D01*
X4204157Y8018983D01*
X4202277Y8013598D01*
X4201566Y8007350D01*
X4201566Y7918450D01*
X4202277Y7912201D01*
X4204157Y7906816D01*
X4207205Y7901940D01*
X4211269Y7897875D01*
X4216095Y7894828D01*
X4221530Y7892948D01*
X4227779Y7892237D01*
X4297934Y7892237D01*
X4301845Y7891475D01*
X4305147Y7889290D01*
X4307332Y7885988D01*
X4308094Y7882077D01*
X4307332Y7878216D01*
X4305147Y7874914D01*
X4144822Y7714488D01*
X4139539Y7707528D01*
X4135780Y7699959D01*
X4133443Y7691881D01*
X4132630Y7683042D01*
X4132681Y6564122D01*
X4133900Y6555435D01*
X4136593Y6547459D01*
X4140657Y6540144D01*
X4146346Y6533286D01*
X4414012Y6265722D01*
X4420971Y6260439D01*
X4428540Y6256680D01*
X4436618Y6254343D01*
X4445457Y6253530D01*
X4484776Y6253530D01*
X4488434Y6252870D01*
X4491634Y6250889D01*
X4501896Y6235649D01*
X4510887Y6225387D01*
X4521149Y6216396D01*
X4532528Y6208826D01*
X4544771Y6202781D01*
X4557674Y6198362D01*
X4571085Y6195720D01*
G37*
G36*
X4491126Y6090920D02*
G01*
X4538980Y6090920D01*
X4538980Y6138773D01*
X4532528Y6135573D01*
X4521149Y6128004D01*
X4510887Y6119012D01*
X4501896Y6108750D01*
X4494326Y6097371D01*
G37*
G36*
X6713220Y6090920D02*
G01*
X6761073Y6090920D01*
X6757873Y6097371D01*
X6750303Y6108750D01*
X6741312Y6119012D01*
X6731050Y6128004D01*
X6719671Y6135573D01*
X6713220Y6138773D01*
G37*
G36*
X6573926Y6090920D02*
G01*
X6621780Y6090920D01*
X6621780Y6138773D01*
X6615328Y6135573D01*
X6603949Y6128004D01*
X6593687Y6119012D01*
X6584696Y6108750D01*
X6577126Y6097371D01*
G37*
G36*
X4630420Y6090920D02*
G01*
X4678273Y6090920D01*
X4675073Y6097371D01*
X4667504Y6108750D01*
X4658512Y6119012D01*
X4648250Y6128004D01*
X4636871Y6135573D01*
X4630420Y6138773D01*
G37*
G36*
X6621780Y5951626D02*
G01*
X6621780Y5999480D01*
X6573926Y5999480D01*
X6577126Y5993028D01*
X6584696Y5981649D01*
X6593687Y5971387D01*
X6603949Y5962396D01*
X6615328Y5954826D01*
G37*

%LPD*%
D11*
X5778500Y8750300D02*
G01*
X5270500Y8750300D01*
X5041900Y3835387D02*
G01*
X5041900Y4025900D01*
X6127452Y3436620D02*
G01*
X6127452Y3320752D01*
X6070600Y3263900D01*
X4826015Y4813300D02*
G01*
X4826015Y3759184D01*
X4927587Y3657612D01*
X5041900Y3657612D01*
X5448300Y9829800D02*
G01*
X5562600Y9715500D01*
X5562600Y9268752D01*
X5906770Y3436620D02*
G01*
X6408420Y3436620D01*
X6502400Y3530600D01*
X6502400Y3771900D01*
X6438912Y3835387D01*
X6324600Y3835387D01*
X6146800Y4914900D02*
G01*
X6286500Y4914900D01*
X6324600Y4876800D01*
X6324600Y3835387D01*
X6134100Y3835387D02*
G01*
X6324600Y3835387D01*
X5041900Y3835387D02*
G01*
X5219700Y3835387D01*
X5448300Y7721600D02*
G01*
X5448300Y7620000D01*
X5194300Y7366000D01*
X4584700Y7366000D01*
X5308600Y8257247D02*
G01*
X5308600Y7861300D01*
X5448300Y7721600D01*
X5111089Y9742004D02*
G01*
X5111089Y9836810D01*
X5080000Y9867900D01*
X4559300Y9867900D01*
X4457700Y9766300D01*
X4457700Y8750300D01*
X4267215Y8521700D02*
G01*
X4267215Y7962900D01*
D24*
X4584700Y6553200D02*
G01*
X4432300Y6553200D01*
X4343400Y6642100D01*
X4343400Y7556500D01*
X4445000Y7658100D01*
X4444989Y7962900D01*
X4584700Y6299200D02*
G01*
X4445000Y6299200D01*
X4178300Y6565900D01*
X4178300Y7683500D01*
X4356100Y7861300D01*
X4356100Y8191500D01*
X4445000Y8280400D01*
X4444989Y8521700D01*
D11*
X4533900Y8750300D02*
G01*
X5270500Y8750300D01*
X5435600Y8585200D01*
X5435600Y8257247D01*
X4533900Y8750300D02*
G01*
X4368800Y8750300D01*
X4267200Y8648700D01*
X4267215Y8521700D01*
X5054600Y8257247D02*
G01*
X5054600Y8483600D01*
X5016500Y8521700D01*
X4444989Y8521700D01*
X4444989Y7962900D02*
G01*
X4864100Y7962900D01*
X4927600Y8026400D01*
X4927600Y8257247D01*
D10*
X4871110Y9742004D02*
G01*
X4674704Y9742004D01*
X4635500Y9702800D01*
X5031104Y9742004D02*
G01*
X4871110Y9742004D01*
X4800600Y9268752D02*
G01*
X4800600Y9423400D01*
X4871110Y9493910D01*
X4871110Y9561995D01*
X4927600Y9268713D02*
G01*
X4927600Y9372600D01*
X4950968Y9399778D01*
X4950968Y9562084D01*
X5054600Y9268713D02*
G01*
X5054600Y9410700D01*
X5031231Y9437878D01*
X5031231Y9562084D01*
X5181600Y9268752D02*
G01*
X5181600Y9372600D01*
X5111089Y9443110D01*
X5111089Y9561995D01*
D11*
X5600700Y6972300D02*
G01*
X5600700Y7683500D01*
X5880100Y7962900D01*
X6362700Y7962900D01*
X6451600Y8051800D01*
X6451600Y8257247D01*
X6413500Y6959600D02*
G01*
X6642100Y7188200D01*
X6642100Y8496300D01*
X6540500Y8597900D01*
X6426200Y8597900D01*
X6324600Y8496300D01*
X6324600Y8257286D01*
X6019800Y6959600D02*
G01*
X6019800Y6819900D01*
X6032500Y6807200D01*
X5675629Y4056379D02*
G01*
X5675629Y4230370D01*
X5549900Y4356100D01*
X5549912Y4660900D01*
X5675629Y4056379D02*
G01*
X5675629Y3436620D01*
X5675629Y3436620D02*
G01*
X5675629Y3605529D01*
X5727712Y3657612D01*
X6324600Y3657612D01*
X5447029Y3436620D02*
G01*
X5447029Y3606800D01*
X5396217Y3657612D01*
X5041900Y3657612D01*
D25*
X5727687Y4660900D02*
G01*
X5892800Y4660900D01*
X6146800Y4914900D01*
X5130800Y4660900D02*
G01*
X5549912Y4660900D01*
X4584700Y6807200D02*
G01*
X6667500Y6807200D01*
D11*
X4584700Y6045200D02*
G01*
X6667500Y6045200D01*
X4584700Y6299200D02*
G01*
X6667500Y6299200D01*
X4584700Y6553200D02*
G01*
X6667500Y6553200D01*
D25*
X774700Y6832600D02*
G01*
X787400Y6819900D01*
X2743200Y6819900D01*
X774700Y6070600D02*
G01*
X2730500Y6070600D01*
X2743200Y6057900D01*
D11*
X774700Y6578600D02*
G01*
X2730500Y6578600D01*
X2743200Y6565900D01*
X774700Y6324600D02*
G01*
X774700Y6248400D01*
X2743200Y6248400D01*
X2743200Y6311900D01*
X1892300Y6413500D02*
G01*
X1892300Y6378625D01*
X1762074Y6248400D01*
X1638300Y6413500D02*
G01*
X1638300Y6445935D01*
X1770964Y6578600D01*
D26*
X6451600Y8172246D02*
G01*
X6451600Y8342246D01*
X6324600Y8172246D02*
G01*
X6324600Y8342246D01*
X6197600Y8172246D02*
G01*
X6197600Y8342246D01*
X6070600Y8172246D02*
G01*
X6070600Y8342246D01*
X5943600Y8172246D02*
G01*
X5943600Y8342246D01*
X5816600Y8172246D02*
G01*
X5816600Y8342246D01*
X5689600Y8172246D02*
G01*
X5689600Y8342246D01*
X5562600Y8172246D02*
G01*
X5562600Y8342246D01*
X5435600Y8172246D02*
G01*
X5435600Y8342246D01*
X5308600Y8172246D02*
G01*
X5308600Y8342246D01*
X5181600Y8172246D02*
G01*
X5181600Y8342246D01*
X5054600Y8172246D02*
G01*
X5054600Y8342246D01*
X4927600Y8172246D02*
G01*
X4927600Y8342246D01*
X4800600Y8172246D02*
G01*
X4800600Y8342246D01*
X6451600Y9183751D02*
G01*
X6451600Y9353753D01*
X6324600Y9183751D02*
G01*
X6324600Y9353753D01*
X6197600Y9183751D02*
G01*
X6197600Y9353753D01*
X6070600Y9183751D02*
G01*
X6070600Y9353753D01*
X5943600Y9183751D02*
G01*
X5943600Y9353753D01*
X5816600Y9183751D02*
G01*
X5816600Y9353753D01*
X5689600Y9183751D02*
G01*
X5689600Y9353753D01*
X5562600Y9183751D02*
G01*
X5562600Y9353753D01*
X5435600Y9183751D02*
G01*
X5435600Y9353753D01*
X5308600Y9183751D02*
G01*
X5308600Y9353753D01*
X5181600Y9183751D02*
G01*
X5181600Y9353753D01*
X5054600Y9183751D02*
G01*
X5054600Y9353753D01*
X4927600Y9183751D02*
G01*
X4927600Y9353753D01*
X4800600Y9183751D02*
G01*
X4800600Y9353753D01*
G36*
X5767694Y4705901D02*
G01*
X5687695Y4705901D01*
X5687695Y4615898D01*
X5767694Y4615898D01*
G37*
G36*
X5589912Y4705898D02*
G01*
X5509912Y4705898D01*
X5509912Y4615901D01*
X5589912Y4615901D01*
G37*
G36*
X6279598Y3875394D02*
G01*
X6279598Y3795395D01*
X6369601Y3795395D01*
X6369601Y3875394D01*
G37*
G36*
X6279601Y3697612D02*
G01*
X6279601Y3617612D01*
X6369598Y3617612D01*
X6369598Y3697612D01*
G37*
G36*
X6089098Y3875394D02*
G01*
X6089098Y3795395D01*
X6179101Y3795395D01*
X6179101Y3875394D01*
G37*
G36*
X6089101Y3697612D02*
G01*
X6089101Y3617612D01*
X6179098Y3617612D01*
X6179098Y3697612D01*
G37*
G36*
X5174698Y3875394D02*
G01*
X5174698Y3795395D01*
X5264701Y3795395D01*
X5264701Y3875394D01*
G37*
G36*
X5174701Y3697612D02*
G01*
X5174701Y3617612D01*
X5264698Y3617612D01*
X5264698Y3697612D01*
G37*
G36*
X4996898Y3875394D02*
G01*
X4996898Y3795395D01*
X5086901Y3795395D01*
X5086901Y3875394D01*
G37*
G36*
X4996901Y3697612D02*
G01*
X4996901Y3617612D01*
X5086898Y3617612D01*
X5086898Y3697612D01*
G37*
G36*
X4307210Y8566698D02*
G01*
X4227210Y8566698D01*
X4227210Y8476701D01*
X4307210Y8476701D01*
G37*
G36*
X4484992Y8566701D02*
G01*
X4404992Y8566701D01*
X4404992Y8476698D01*
X4484992Y8476698D01*
G37*
G36*
X4307210Y8007898D02*
G01*
X4227210Y8007898D01*
X4227210Y7917901D01*
X4307210Y7917901D01*
G37*
G36*
X4484992Y8007901D02*
G01*
X4404992Y8007901D01*
X4404992Y7917898D01*
X4484992Y7917898D01*
G37*
G36*
X4903609Y9781997D02*
G01*
X4838611Y9781997D01*
X4838611Y9701997D01*
X4903609Y9701997D01*
G37*
G36*
X4903609Y9602002D02*
G01*
X4838611Y9602002D01*
X4838611Y9522002D01*
X4903609Y9522002D01*
G37*
G36*
X4976096Y9781997D02*
G01*
X4926093Y9781997D01*
X4926093Y9701997D01*
X4976096Y9701997D01*
G37*
G36*
X4976096Y9602002D02*
G01*
X4926093Y9602002D01*
X4926093Y9522002D01*
X4976096Y9522002D01*
G37*
G36*
X5056106Y9781997D02*
G01*
X5006103Y9781997D01*
X5006103Y9701997D01*
X5056106Y9701997D01*
G37*
G36*
X5056106Y9602002D02*
G01*
X5006103Y9602002D01*
X5006103Y9522002D01*
X5056106Y9522002D01*
G37*
G36*
X5143588Y9781997D02*
G01*
X5078590Y9781997D01*
X5078590Y9701997D01*
X5143588Y9701997D01*
G37*
G36*
X5143588Y9602002D02*
G01*
X5078590Y9602002D01*
X5078590Y9522002D01*
X5143588Y9522002D01*
G37*
G36*
X5961379Y3544570D02*
G01*
X5852159Y3544570D01*
X5852159Y3328670D01*
X5961379Y3328670D01*
G37*
G36*
X5730240Y3544570D02*
G01*
X5621020Y3544570D01*
X5621020Y3328670D01*
X5730240Y3328670D01*
G37*
G36*
X5501640Y3544570D02*
G01*
X5392420Y3544570D01*
X5392420Y3328670D01*
X5501640Y3328670D01*
G37*
G36*
X5850890Y4164329D02*
G01*
X5500370Y4164329D01*
X5500370Y3948429D01*
X5850890Y3948429D01*
G37*
D21*
G01*
X4902200Y7772400D03*
D22*
G01*
X5156200Y7772400D03*
D21*
G01*
X6096000Y7772400D03*
D22*
G01*
X6350000Y7772400D03*
D21*
G01*
X4584700Y6807200D03*
D22*
G01*
X4584700Y6553200D03*
G01*
X4584700Y6299200D03*
G01*
X4584700Y6045200D03*
D21*
G01*
X6667500Y6807200D03*
D22*
G01*
X6667500Y6553200D03*
G01*
X6667500Y6299200D03*
G01*
X6667500Y6045200D03*
D23*
G01*
X6146800Y4914900D03*
G01*
X6146800Y4660900D03*
G01*
X6146800Y4406900D03*
G01*
X5130800Y4406900D03*
G01*
X5130800Y4660900D03*
G01*
X5130800Y4914900D03*
D21*
G01*
X774700Y6832600D03*
D22*
G01*
X774700Y6578600D03*
G01*
X774700Y6324600D03*
G01*
X774700Y6070600D03*
D21*
G01*
X2743200Y6819900D03*
D22*
G01*
X2743200Y6565900D03*
G01*
X2743200Y6311900D03*
G01*
X2743200Y6057900D03*
G36*
X1305560Y5425439D02*
G01*
X1463039Y5425439D01*
X1463039Y5267960D01*
X1305560Y5267960D01*
G37*
G01*
X1638300Y5346700D03*
G01*
X1892300Y5346700D03*
G01*
X2146300Y5346700D03*
G36*
X1305560Y6492239D02*
G01*
X1463039Y6492239D01*
X1463039Y6334760D01*
X1305560Y6334760D01*
G37*
G01*
X1638300Y6413500D03*
G01*
X1892300Y6413500D03*
G01*
X2146300Y6413500D03*
G36*
X1305560Y7533639D02*
G01*
X1463039Y7533639D01*
X1463039Y7376160D01*
X1305560Y7376160D01*
G37*
G01*
X1638300Y7454900D03*
G01*
X1892300Y7454900D03*
G01*
X2146300Y7454900D03*
G36*
X1305560Y8460739D02*
G01*
X1463039Y8460739D01*
X1463039Y8303260D01*
X1305560Y8303260D01*
G37*
G01*
X1638300Y8382000D03*
G01*
X1892300Y8382000D03*
G01*
X2146300Y8382000D03*
D12*
G01*
X6019800Y6959600D03*
G01*
X5600700Y6972300D03*
G01*
X6413500Y6959600D03*
G01*
X4635500Y9702800D03*
G01*
X4533900Y8750300D03*
G01*
X5778500Y8750300D03*
G01*
X5448300Y7721600D03*
G01*
X4584700Y7366000D03*
G01*
X5448300Y9829800D03*
G01*
X5816600Y9144000D03*
G01*
X4826015Y4813300D03*
G01*
X6070600Y3263900D03*
G01*
X5041900Y4025900D03*
M02*
