M48
METRIC,LZ,000.000
;FILE_FORMAT=3:3
;TYPE=PLATED
;Layer: Drill PTH
;EasyEDA v6.4.19.4, 2021-06-08T16:32:54+08:00
;a09ed18009a84ab5a87bbd9c58a990bc,2444bf6f38dc4a26b464d521983d9d6f,10
;Gerber Generator version 0.2
;Holesize 1 = 0.305 mm
T01C0.305
;Holesize 2 = 0.600 mm
T02C0.600
;Holesize 3 = 0.889 mm
T03C0.889
;Holesize 4 = 1.000 mm
T04C1.000
;Holesize 5 = 1.200 mm
T05C1.200
;Holesize 6 = 3.000 mm
T06C3.000
%
G05
G90
T01
X019050Y-025400
X018288Y-027686
X019431Y-013208
X018161Y-013208
X007112Y-004953
X019431Y011245
X019431Y013245
X019431Y015245
X019431Y017245
X019431Y021209
X-000127Y-004953
X021971Y-012827
X023241Y-012827
X041067Y023242
X041067Y021245
X041021Y019177
X041021Y017145
X041021Y015240
X041021Y013208
X043053Y011049
X040259Y005969
X038354Y006985
X037084Y003175
X039116Y002921
X037084Y-012192
X039116Y-012192
X033020Y-016510
X033020Y-015367
X035687Y-004699
X022987Y-004699
X017018Y003302
X008255Y004445
X036957Y006477
X034798Y003175
X033909Y-013462
X037084Y-006286
X035814Y-012192
X035941Y002540
X024384Y004953
X025527Y-010033
T02
X023183Y-036078G85X023183Y-035478
X013393Y-036078G85X013393Y-035478
X023183Y-033078G85X023183Y-032478
X013393Y-033078G85X013393Y-032478
X-013462Y-032292
X-013462Y-036542
X-011337Y-034417
X-015587Y-034417
X-011962Y-032917
X-014962Y-035917
X-011962Y-035917
X-014962Y-032917
X-013462Y029938
X-013462Y025688
X-011337Y027813
X-015587Y027813
X-011962Y029313
X-014962Y026313
X-011962Y026313
X-014962Y029313
X048768Y029938
X048768Y025688
X050893Y027813
X046643Y027813
X050268Y029313
X047268Y026313
X050268Y026313
X047268Y029313
X048895Y-032292
X048895Y-036542
X051020Y-034417
X046770Y-034417
X050395Y-032917
X047395Y-035917
X050395Y-035917
X047395Y-032917
T03
X042926Y001524
X042926Y-001016
X042926Y-003556
X042926Y-006096
X-007112Y001524
X-007112Y-001016
X-007112Y-003556
X-007112Y-006096
X-007112Y005842
X-007112Y008382
X-007112Y010922
X-007112Y013462
X-007112Y016002
X-007112Y018542
X-007112Y021082
X-007112Y023622
X-007112Y026162
X-007112Y028702
X015113Y-021209
X017653Y-021209
T04
X001494Y-030813G85X-000706Y-030813
X001494Y-024813G85X-000706Y-024813
X005194Y-026213G85X005194Y-028413
T05
X042343Y-014006
X048843Y-014006
X048843Y-018506
X042343Y-018506
X048843Y-025745
X042343Y-025745
X042343Y-021245
X048843Y-021245
T06
X-013462Y-034417
X-013462Y027813
X048768Y027813
X048895Y-034417
M30
