G04 Layer: TopSolderMaskLayer*
G04 EasyEDA v6.4.19.4, 2021-06-08T16:32:54+08:00*
G04 a09ed18009a84ab5a87bbd9c58a990bc,2444bf6f38dc4a26b464d521983d9d6f,10*
G04 Gerber Generator version 0.2*
G04 Scale: 100 percent, Rotated: No, Reflected: No *
G04 Dimensions in millimeters *
G04 leading zeros omitted , absolute positions ,4 integer and 5 decimal *
%FSLAX45Y45*%
%MOMM*%

%ADD48C,1.1016*%
%ADD49C,1.6016*%
%ADD50C,0.8032*%
%ADD62C,1.6764*%
%ADD63C,5.7032*%
%ADD64C,2.1016*%
%ADD68C,1.7780*%

%LPD*%
D48*
X2318308Y-3547793D02*
G01*
X2318308Y-3607793D01*
X1339316Y-3547793D02*
G01*
X1339316Y-3607793D01*
X2318308Y-3247793D02*
G01*
X2318308Y-3307793D01*
X1339316Y-3247793D02*
G01*
X1339316Y-3307793D01*
D49*
X164396Y-3081299D02*
G01*
X-85603Y-3081299D01*
X164396Y-2481300D02*
G01*
X-85603Y-2481300D01*
X519404Y-2606286D02*
G01*
X519404Y-2856288D01*
D50*
X1244600Y-584812D02*
G01*
X1244600Y-492810D01*
X1117600Y-584812D02*
G01*
X1117600Y-492810D01*
X990600Y-584812D02*
G01*
X990600Y-492810D01*
X863600Y-584812D02*
G01*
X863600Y-492810D01*
X1244600Y-1132789D02*
G01*
X1244600Y-1040790D01*
X1117600Y-1132789D02*
G01*
X1117600Y-1040790D01*
X990600Y-1132789D02*
G01*
X990600Y-1040790D01*
X863600Y-1132789D02*
G01*
X863600Y-1040790D01*
X1562100Y-1621480D02*
G01*
X1562100Y-1741479D01*
X1689100Y-1621480D02*
G01*
X1689100Y-1741479D01*
X1816100Y-1621480D02*
G01*
X1816100Y-1741479D01*
X1943100Y-1621480D02*
G01*
X1943100Y-1741479D01*
X2070100Y-1621480D02*
G01*
X2070100Y-1741479D01*
X2197100Y-1621480D02*
G01*
X2197100Y-1741479D01*
X2324100Y-1621480D02*
G01*
X2324100Y-1741479D01*
X2451100Y-1621480D02*
G01*
X2451100Y-1741479D01*
X1562100Y-1027120D02*
G01*
X1562100Y-1147119D01*
X1689100Y-1027120D02*
G01*
X1689100Y-1147119D01*
X1816100Y-1027120D02*
G01*
X1816100Y-1147119D01*
X1943100Y-1027120D02*
G01*
X1943100Y-1147119D01*
X2070100Y-1027120D02*
G01*
X2070100Y-1147119D01*
X2197100Y-1027120D02*
G01*
X2197100Y-1147119D01*
X2324100Y-1027120D02*
G01*
X2324100Y-1147119D01*
X2451100Y-1027120D02*
G01*
X2451100Y-1147119D01*
G36*
X1476247Y-3207765D02*
G01*
X1476247Y-3047745D01*
X1536445Y-3047745D01*
X1536445Y-3207765D01*
G37*
G36*
X1553718Y-3207765D02*
G01*
X1553718Y-3047745D01*
X1613915Y-3047745D01*
X1613915Y-3207765D01*
G37*
G36*
X1634743Y-3207765D02*
G01*
X1634743Y-3047745D01*
X1672843Y-3047745D01*
X1672843Y-3207765D01*
G37*
G36*
X1683765Y-3207765D02*
G01*
X1683765Y-3047745D01*
X1721865Y-3047745D01*
X1721865Y-3207765D01*
G37*
G36*
X1734820Y-3207765D02*
G01*
X1734820Y-3047745D01*
X1772920Y-3047745D01*
X1772920Y-3207765D01*
G37*
G36*
X1784604Y-3207765D02*
G01*
X1784604Y-3047745D01*
X1822958Y-3047745D01*
X1822958Y-3207765D01*
G37*
G36*
X1834641Y-3207765D02*
G01*
X1834641Y-3047745D01*
X1872995Y-3047745D01*
X1872995Y-3207765D01*
G37*
G36*
X1884679Y-3207765D02*
G01*
X1884679Y-3047745D01*
X1922779Y-3047745D01*
X1922779Y-3207765D01*
G37*
G36*
X1934718Y-3207765D02*
G01*
X1934718Y-3047745D01*
X1972818Y-3047745D01*
X1972818Y-3207765D01*
G37*
G36*
X1984756Y-3207765D02*
G01*
X1984756Y-3047745D01*
X2022856Y-3047745D01*
X2022856Y-3207765D01*
G37*
G36*
X2043684Y-3207765D02*
G01*
X2043684Y-3047745D01*
X2103881Y-3047745D01*
X2103881Y-3207765D01*
G37*
G36*
X2121154Y-3207765D02*
G01*
X2121154Y-3047745D01*
X2181352Y-3047745D01*
X2181352Y-3207765D01*
G37*
G36*
X1653540Y-2889250D02*
G01*
X1653540Y-2798571D01*
X1750059Y-2798571D01*
X1750059Y-2889250D01*
G37*
G36*
X1653540Y-2738628D02*
G01*
X1653540Y-2647950D01*
X1750059Y-2647950D01*
X1750059Y-2738628D01*
G37*
G36*
X1958340Y-2889250D02*
G01*
X1958340Y-2798571D01*
X2054859Y-2798571D01*
X2054859Y-2889250D01*
G37*
G36*
X1958340Y-2738628D02*
G01*
X1958340Y-2647950D01*
X2054859Y-2647950D01*
X2054859Y-2738628D01*
G37*
G36*
X1842261Y71881D02*
G01*
X1842261Y182118D01*
X1942591Y182118D01*
X1942591Y71881D01*
G37*
G36*
X2019808Y71881D02*
G01*
X2019808Y182118D01*
X2120138Y182118D01*
X2120138Y71881D01*
G37*
G36*
X1842261Y236981D02*
G01*
X1842261Y347218D01*
X1942591Y347218D01*
X1942591Y236981D01*
G37*
G36*
X2019808Y236981D02*
G01*
X2019808Y347218D01*
X2120138Y347218D01*
X2120138Y236981D01*
G37*
G36*
X203961Y-1737613D02*
G01*
X203961Y-1437386D01*
X304038Y-1437386D01*
X304038Y-1737613D01*
G37*
G36*
X203961Y-2245613D02*
G01*
X203961Y-1945386D01*
X304038Y-1945386D01*
X304038Y-2245613D01*
G37*
G36*
X2243581Y-723392D02*
G01*
X2243581Y-623062D01*
X2353818Y-623062D01*
X2353818Y-723392D01*
G37*
G36*
X2243581Y-900937D02*
G01*
X2243581Y-800607D01*
X2353818Y-800607D01*
X2353818Y-900937D01*
G37*
G36*
X2599181Y-723392D02*
G01*
X2599181Y-623062D01*
X2709418Y-623062D01*
X2709418Y-723392D01*
G37*
G36*
X2599181Y-900937D02*
G01*
X2599181Y-800607D01*
X2709418Y-800607D01*
X2709418Y-900937D01*
G37*
G36*
X-150113Y-50037D02*
G01*
X-150113Y50037D01*
X150113Y50037D01*
X150113Y-50037D01*
G37*
G36*
X357886Y-50037D02*
G01*
X357886Y50037D01*
X658113Y50037D01*
X658113Y-50037D01*
G37*
G36*
X2421381Y-723392D02*
G01*
X2421381Y-623062D01*
X2531618Y-623062D01*
X2531618Y-723392D01*
G37*
G36*
X2421381Y-900937D02*
G01*
X2421381Y-800607D01*
X2531618Y-800607D01*
X2531618Y-900937D01*
G37*
G36*
X3302761Y71881D02*
G01*
X3302761Y182118D01*
X3402838Y182118D01*
X3402838Y71881D01*
G37*
G36*
X3124961Y71881D02*
G01*
X3124961Y182118D01*
X3225291Y182118D01*
X3225291Y71881D01*
G37*
G36*
X3302761Y-105918D02*
G01*
X3302761Y4318D01*
X3402838Y4318D01*
X3402838Y-105918D01*
G37*
G36*
X3124961Y-105918D02*
G01*
X3124961Y4318D01*
X3225291Y4318D01*
X3225291Y-105918D01*
G37*
G36*
X2599181Y-519937D02*
G01*
X2599181Y-419862D01*
X2709418Y-419862D01*
X2709418Y-519937D01*
G37*
G36*
X2599181Y-342392D02*
G01*
X2599181Y-242062D01*
X2709418Y-242062D01*
X2709418Y-342392D01*
G37*
G36*
X2421381Y-519937D02*
G01*
X2421381Y-419862D01*
X2531618Y-419862D01*
X2531618Y-519937D01*
G37*
G36*
X2421381Y-342392D02*
G01*
X2421381Y-242062D01*
X2531618Y-242062D01*
X2531618Y-342392D01*
G37*
G36*
X756665Y-313436D02*
G01*
X756665Y-92963D01*
X957072Y-92963D01*
X957072Y-313436D01*
G37*
G36*
X1176527Y-313436D02*
G01*
X1176527Y-92963D01*
X1376934Y-92963D01*
X1376934Y-313436D01*
G37*
G36*
X1176527Y-1532636D02*
G01*
X1176527Y-1312163D01*
X1376934Y-1312163D01*
X1376934Y-1532636D01*
G37*
G36*
X756665Y-1532636D02*
G01*
X756665Y-1312163D01*
X957072Y-1312163D01*
X957072Y-1532636D01*
G37*
G36*
X1578863Y-856234D02*
G01*
X1578863Y-655828D01*
X1799336Y-655828D01*
X1799336Y-856234D01*
G37*
G36*
X1578863Y-436371D02*
G01*
X1578863Y-235965D01*
X1799336Y-235965D01*
X1799336Y-436371D01*
G37*
G36*
X756665Y67563D02*
G01*
X756665Y288036D01*
X957072Y288036D01*
X957072Y67563D01*
G37*
G36*
X1176527Y67563D02*
G01*
X1176527Y288036D01*
X1376934Y288036D01*
X1376934Y67563D01*
G37*
G36*
X987043Y-1980184D02*
G01*
X987043Y-1839976D01*
X1197356Y-1839976D01*
X1197356Y-1980184D01*
G37*
G36*
X987043Y-2300223D02*
G01*
X987043Y-2160015D01*
X1197356Y-2160015D01*
X1197356Y-2300223D01*
G37*
G36*
X4208779Y68579D02*
G01*
X4208779Y236220D01*
X4376420Y236220D01*
X4376420Y68579D01*
G37*
D62*
G01*
X4292600Y-101600D03*
G01*
X4292600Y-355600D03*
G01*
X4292600Y-609600D03*
G36*
X-795020Y68579D02*
G01*
X-795020Y236220D01*
X-627379Y236220D01*
X-627379Y68579D01*
G37*
G01*
X-711200Y-101600D03*
G01*
X-711200Y-355600D03*
G01*
X-711200Y-609600D03*
G01*
X-711200Y584200D03*
G01*
X-711200Y838200D03*
G01*
X-711200Y1092200D03*
G01*
X-711200Y1346200D03*
G01*
X-711200Y1600200D03*
G01*
X-711200Y1854200D03*
G01*
X-711200Y2108200D03*
G01*
X-711200Y2362200D03*
G01*
X-711200Y2616200D03*
G36*
X-795020Y2786379D02*
G01*
X-795020Y2954020D01*
X-627379Y2954020D01*
X-627379Y2786379D01*
G37*
D63*
G01*
X-1346200Y-3441700D03*
D50*
G01*
X-1346200Y-3229203D03*
G01*
X-1346200Y-3654196D03*
G01*
X-1133703Y-3441700D03*
G01*
X-1558696Y-3441700D03*
G01*
X-1196187Y-3291712D03*
G01*
X-1496187Y-3591712D03*
G01*
X-1196187Y-3591712D03*
G01*
X-1496187Y-3291712D03*
D63*
G01*
X-1346200Y2781300D03*
D50*
G01*
X-1346200Y2993796D03*
G01*
X-1346200Y2568803D03*
G01*
X-1133703Y2781300D03*
G01*
X-1558696Y2781300D03*
G01*
X-1196187Y2931287D03*
G01*
X-1496187Y2631287D03*
G01*
X-1196187Y2631287D03*
G01*
X-1496187Y2931287D03*
D63*
G01*
X4876800Y2781300D03*
D50*
G01*
X4876800Y2993796D03*
G01*
X4876800Y2568803D03*
G01*
X5089296Y2781300D03*
G01*
X4664303Y2781300D03*
G01*
X5026812Y2931287D03*
G01*
X4726813Y2631287D03*
G01*
X5026812Y2631287D03*
G01*
X4726813Y2931287D03*
D63*
G01*
X4889500Y-3441700D03*
D50*
G01*
X4889500Y-3229203D03*
G01*
X4889500Y-3654196D03*
G01*
X5101996Y-3441700D03*
G01*
X4677003Y-3441700D03*
G01*
X5039512Y-3291712D03*
G01*
X4739513Y-3591712D03*
G01*
X5039512Y-3591712D03*
G01*
X4739513Y-3291712D03*
D64*
G01*
X4234306Y-1400606D03*
G01*
X4884293Y-1400606D03*
G01*
X4884293Y-1850593D03*
G01*
X4234306Y-1850593D03*
G01*
X4884293Y-2574493D03*
G01*
X4234306Y-2574493D03*
G01*
X4234306Y-2124506D03*
G01*
X4884293Y-2124506D03*
G36*
X93726Y-1377187D02*
G01*
X93726Y-1136904D01*
X414274Y-1136904D01*
X414274Y-1377187D01*
G37*
G36*
X93726Y-717295D02*
G01*
X93726Y-477012D01*
X414274Y-477012D01*
X414274Y-717295D01*
G37*
G36*
X390397Y2815081D02*
G01*
X390397Y2925318D01*
X490727Y2925318D01*
X490727Y2815081D01*
G37*
G36*
X220472Y2815081D02*
G01*
X220472Y2925318D01*
X320547Y2925318D01*
X320547Y2815081D01*
G37*
G36*
X390397Y2561081D02*
G01*
X390397Y2671318D01*
X490727Y2671318D01*
X490727Y2561081D01*
G37*
G36*
X220472Y2561081D02*
G01*
X220472Y2671318D01*
X320547Y2671318D01*
X320547Y2561081D01*
G37*
G36*
X390397Y2307081D02*
G01*
X390397Y2417318D01*
X490727Y2417318D01*
X490727Y2307081D01*
G37*
G36*
X220472Y2307081D02*
G01*
X220472Y2417318D01*
X320547Y2417318D01*
X320547Y2307081D01*
G37*
G36*
X390397Y2053081D02*
G01*
X390397Y2163318D01*
X490727Y2163318D01*
X490727Y2053081D01*
G37*
G36*
X220472Y2053081D02*
G01*
X220472Y2163318D01*
X320547Y2163318D01*
X320547Y2053081D01*
G37*
G36*
X390397Y1799081D02*
G01*
X390397Y1909318D01*
X490727Y1909318D01*
X490727Y1799081D01*
G37*
G36*
X220472Y1799081D02*
G01*
X220472Y1909318D01*
X320547Y1909318D01*
X320547Y1799081D01*
G37*
G36*
X390397Y529081D02*
G01*
X390397Y639318D01*
X490727Y639318D01*
X490727Y529081D01*
G37*
G36*
X220472Y529081D02*
G01*
X220472Y639318D01*
X320547Y639318D01*
X320547Y529081D01*
G37*
G36*
X390397Y783081D02*
G01*
X390397Y893318D01*
X490727Y893318D01*
X490727Y783081D01*
G37*
G36*
X220472Y783081D02*
G01*
X220472Y893318D01*
X320547Y893318D01*
X320547Y783081D01*
G37*
G36*
X390397Y1037081D02*
G01*
X390397Y1147318D01*
X490727Y1147318D01*
X490727Y1037081D01*
G37*
G36*
X220472Y1037081D02*
G01*
X220472Y1147318D01*
X320547Y1147318D01*
X320547Y1037081D01*
G37*
G36*
X-588518Y-1955292D02*
G01*
X-588518Y-1854962D01*
X-478281Y-1854962D01*
X-478281Y-1955292D01*
G37*
G36*
X-588518Y-2132837D02*
G01*
X-588518Y-2032507D01*
X-478281Y-2032507D01*
X-478281Y-2132837D01*
G37*
G36*
X864361Y-2861818D02*
G01*
X864361Y-2751581D01*
X964691Y-2751581D01*
X964691Y-2861818D01*
G37*
G36*
X1041908Y-2861818D02*
G01*
X1041908Y-2751581D01*
X1142238Y-2751581D01*
X1142238Y-2861818D01*
G37*
G36*
X390397Y1291081D02*
G01*
X390397Y1401318D01*
X490727Y1401318D01*
X490727Y1291081D01*
G37*
G36*
X220472Y1291081D02*
G01*
X220472Y1401318D01*
X320547Y1401318D01*
X320547Y1291081D01*
G37*
G36*
X390397Y1545081D02*
G01*
X390397Y1655318D01*
X490727Y1655318D01*
X490727Y1545081D01*
G37*
G36*
X220472Y1545081D02*
G01*
X220472Y1655318D01*
X320547Y1655318D01*
X320547Y1545081D01*
G37*
G36*
X1664461Y452881D02*
G01*
X1664461Y563118D01*
X1764791Y563118D01*
X1764791Y452881D01*
G37*
G36*
X1842008Y452881D02*
G01*
X1842008Y563118D01*
X1942338Y563118D01*
X1942338Y452881D01*
G37*
G36*
X4496561Y2268981D02*
G01*
X4496561Y2379218D01*
X4596638Y2379218D01*
X4596638Y2268981D01*
G37*
G36*
X4318761Y2268981D02*
G01*
X4318761Y2379218D01*
X4419091Y2379218D01*
X4419091Y2268981D01*
G37*
G36*
X4318761Y2065781D02*
G01*
X4318761Y2176018D01*
X4419091Y2176018D01*
X4419091Y2065781D01*
G37*
G36*
X4496561Y2065781D02*
G01*
X4496561Y2176018D01*
X4596638Y2176018D01*
X4596638Y2065781D01*
G37*
G36*
X1422400Y-2209800D02*
G01*
X1422400Y-2032000D01*
X1600200Y-2032000D01*
X1600200Y-2209800D01*
G37*
D68*
G01*
X1765300Y-2120900D03*
G36*
X3062224Y-1670812D02*
G01*
X3062224Y-1580387D01*
X3207511Y-1580387D01*
X3207511Y-1670812D01*
G37*
G36*
X2812288Y-1765807D02*
G01*
X2812288Y-1675384D01*
X2957575Y-1675384D01*
X2957575Y-1765807D01*
G37*
G36*
X2812288Y-1575815D02*
G01*
X2812288Y-1485392D01*
X2957575Y-1485392D01*
X2957575Y-1575815D01*
G37*
G36*
X3062224Y-2369312D02*
G01*
X3062224Y-2278887D01*
X3207511Y-2278887D01*
X3207511Y-2369312D01*
G37*
G36*
X2812288Y-2464307D02*
G01*
X2812288Y-2373884D01*
X2957575Y-2373884D01*
X2957575Y-2464307D01*
G37*
G36*
X2812288Y-2274315D02*
G01*
X2812288Y-2183892D01*
X2957575Y-2183892D01*
X2957575Y-2274315D01*
G37*
G36*
X-94487Y2804921D02*
G01*
X-94487Y2935478D01*
X25907Y2935478D01*
X25907Y2804921D01*
G37*
G36*
X-254507Y2804921D02*
G01*
X-254507Y2935478D01*
X-134112Y2935478D01*
X-134112Y2804921D01*
G37*
G36*
X-94487Y2550921D02*
G01*
X-94487Y2681478D01*
X25907Y2681478D01*
X25907Y2550921D01*
G37*
G36*
X-254507Y2550921D02*
G01*
X-254507Y2681478D01*
X-134112Y2681478D01*
X-134112Y2550921D01*
G37*
G36*
X-94487Y2296921D02*
G01*
X-94487Y2427478D01*
X25907Y2427478D01*
X25907Y2296921D01*
G37*
G36*
X-254507Y2296921D02*
G01*
X-254507Y2427478D01*
X-134112Y2427478D01*
X-134112Y2296921D01*
G37*
G36*
X-94487Y2042921D02*
G01*
X-94487Y2173478D01*
X25907Y2173478D01*
X25907Y2042921D01*
G37*
G36*
X-254507Y2042921D02*
G01*
X-254507Y2173478D01*
X-134112Y2173478D01*
X-134112Y2042921D01*
G37*
G36*
X-94487Y1788921D02*
G01*
X-94487Y1919478D01*
X25907Y1919478D01*
X25907Y1788921D01*
G37*
G36*
X-254507Y1788921D02*
G01*
X-254507Y1919478D01*
X-134112Y1919478D01*
X-134112Y1788921D01*
G37*
G36*
X-94487Y518921D02*
G01*
X-94487Y649478D01*
X25907Y649478D01*
X25907Y518921D01*
G37*
G36*
X-254507Y518921D02*
G01*
X-254507Y649478D01*
X-134112Y649478D01*
X-134112Y518921D01*
G37*
G36*
X-94487Y772921D02*
G01*
X-94487Y903478D01*
X25907Y903478D01*
X25907Y772921D01*
G37*
G36*
X-254507Y772921D02*
G01*
X-254507Y903478D01*
X-134112Y903478D01*
X-134112Y772921D01*
G37*
G36*
X-94487Y1026921D02*
G01*
X-94487Y1157478D01*
X25907Y1157478D01*
X25907Y1026921D01*
G37*
G36*
X-254507Y1026921D02*
G01*
X-254507Y1157478D01*
X-134112Y1157478D01*
X-134112Y1026921D01*
G37*
G36*
X-94487Y1280921D02*
G01*
X-94487Y1411478D01*
X25907Y1411478D01*
X25907Y1280921D01*
G37*
G36*
X-254507Y1280921D02*
G01*
X-254507Y1411478D01*
X-134112Y1411478D01*
X-134112Y1280921D01*
G37*
G36*
X-94487Y1534921D02*
G01*
X-94487Y1665478D01*
X25907Y1665478D01*
X25907Y1534921D01*
G37*
G36*
X-254507Y1534921D02*
G01*
X-254507Y1665478D01*
X-134112Y1665478D01*
X-134112Y1534921D01*
G37*
G36*
X2599181Y-2082292D02*
G01*
X2599181Y-1981962D01*
X2709418Y-1981962D01*
X2709418Y-2082292D01*
G37*
G36*
X2599181Y-2259837D02*
G01*
X2599181Y-2159507D01*
X2709418Y-2159507D01*
X2709418Y-2259837D01*
G37*
G36*
X2599181Y-1764537D02*
G01*
X2599181Y-1664207D01*
X2709418Y-1664207D01*
X2709418Y-1764537D01*
G37*
G36*
X2599181Y-1586992D02*
G01*
X2599181Y-1486662D01*
X2709418Y-1486662D01*
X2709418Y-1586992D01*
G37*
G36*
X4674361Y2268981D02*
G01*
X4674361Y2379218D01*
X4774691Y2379218D01*
X4774691Y2268981D01*
G37*
G36*
X4851908Y2268981D02*
G01*
X4851908Y2379218D01*
X4952238Y2379218D01*
X4952238Y2268981D01*
G37*
G36*
X4674361Y2065781D02*
G01*
X4674361Y2176018D01*
X4774691Y2176018D01*
X4774691Y2065781D01*
G37*
G36*
X4851908Y2065781D02*
G01*
X4851908Y2176018D01*
X4952238Y2176018D01*
X4952238Y2065781D01*
G37*
G36*
X1664461Y643381D02*
G01*
X1664461Y753618D01*
X1764791Y753618D01*
X1764791Y643381D01*
G37*
G36*
X1842008Y643381D02*
G01*
X1842008Y753618D01*
X1942338Y753618D01*
X1942338Y643381D01*
G37*
G36*
X-398018Y-1955292D02*
G01*
X-398018Y-1854962D01*
X-287781Y-1854962D01*
X-287781Y-1955292D01*
G37*
G36*
X-398018Y-2132837D02*
G01*
X-398018Y-2032507D01*
X-287781Y-2032507D01*
X-287781Y-2132837D01*
G37*
G36*
X864361Y-2671318D02*
G01*
X864361Y-2561081D01*
X964691Y-2561081D01*
X964691Y-2671318D01*
G37*
G36*
X1041908Y-2671318D02*
G01*
X1041908Y-2561081D01*
X1142238Y-2561081D01*
X1142238Y-2671318D01*
G37*
G36*
X3446272Y-1543304D02*
G01*
X3446272Y-1468120D01*
X3536441Y-1468120D01*
X3536441Y-1543304D01*
G37*
G36*
X3626358Y-1543304D02*
G01*
X3626358Y-1468120D01*
X3716527Y-1468120D01*
X3716527Y-1543304D01*
G37*
G36*
X3446272Y-1615694D02*
G01*
X3446272Y-1555495D01*
X3536441Y-1555495D01*
X3536441Y-1615694D01*
G37*
G36*
X3626358Y-1615694D02*
G01*
X3626358Y-1555495D01*
X3716527Y-1555495D01*
X3716527Y-1615694D01*
G37*
G36*
X3446272Y-1695704D02*
G01*
X3446272Y-1635505D01*
X3536441Y-1635505D01*
X3536441Y-1695704D01*
G37*
G36*
X3626358Y-1695704D02*
G01*
X3626358Y-1635505D01*
X3716527Y-1635505D01*
X3716527Y-1695704D01*
G37*
G36*
X3446272Y-1783079D02*
G01*
X3446272Y-1707895D01*
X3536441Y-1707895D01*
X3536441Y-1783079D01*
G37*
G36*
X3626358Y-1783079D02*
G01*
X3626358Y-1707895D01*
X3716527Y-1707895D01*
X3716527Y-1783079D01*
G37*
G36*
X3446272Y-2241804D02*
G01*
X3446272Y-2166620D01*
X3536441Y-2166620D01*
X3536441Y-2241804D01*
G37*
G36*
X3626358Y-2241804D02*
G01*
X3626358Y-2166620D01*
X3716527Y-2166620D01*
X3716527Y-2241804D01*
G37*
G36*
X3446272Y-2314194D02*
G01*
X3446272Y-2253995D01*
X3536441Y-2253995D01*
X3536441Y-2314194D01*
G37*
G36*
X3626358Y-2314194D02*
G01*
X3626358Y-2253995D01*
X3716527Y-2253995D01*
X3716527Y-2314194D01*
G37*
G36*
X3446272Y-2394204D02*
G01*
X3446272Y-2334005D01*
X3536441Y-2334005D01*
X3536441Y-2394204D01*
G37*
G36*
X3626358Y-2394204D02*
G01*
X3626358Y-2334005D01*
X3716527Y-2334005D01*
X3716527Y-2394204D01*
G37*
G36*
X3446272Y-2481579D02*
G01*
X3446272Y-2406395D01*
X3536441Y-2406395D01*
X3536441Y-2481579D01*
G37*
G36*
X3626358Y-2481579D02*
G01*
X3626358Y-2406395D01*
X3716527Y-2406395D01*
X3716527Y-2481579D01*
G37*
G36*
X3704843Y2269489D02*
G01*
X3704843Y2379471D01*
X3915156Y2379471D01*
X3915156Y2269489D01*
G37*
G36*
X3704843Y2069337D02*
G01*
X3704843Y2179573D01*
X3915156Y2179573D01*
X3915156Y2069337D01*
G37*
G36*
X3704843Y1869439D02*
G01*
X3704843Y1979421D01*
X3915156Y1979421D01*
X3915156Y1869439D01*
G37*
G36*
X3704843Y1669287D02*
G01*
X3704843Y1779523D01*
X3914902Y1779523D01*
X3914902Y1669287D01*
G37*
G36*
X3704843Y1469389D02*
G01*
X3704843Y1579626D01*
X3915156Y1579626D01*
X3915156Y1469389D01*
G37*
G36*
X3704843Y1269492D02*
G01*
X3704843Y1379473D01*
X3915156Y1379473D01*
X3915156Y1269492D01*
G37*
G36*
X3704843Y1069339D02*
G01*
X3704843Y1179576D01*
X3914902Y1179576D01*
X3914902Y1069339D01*
G37*
G36*
X3704590Y869442D02*
G01*
X3704590Y979423D01*
X3914902Y979423D01*
X3914902Y869442D01*
G37*
G36*
X3454400Y669289D02*
G01*
X3454400Y879347D01*
X3564636Y879347D01*
X3564636Y669289D01*
G37*
G36*
X3254502Y669289D02*
G01*
X3254502Y879602D01*
X3364738Y879602D01*
X3364738Y669289D01*
G37*
G36*
X3054604Y669289D02*
G01*
X3054604Y879602D01*
X3164840Y879602D01*
X3164840Y669289D01*
G37*
G36*
X2854452Y669289D02*
G01*
X2854452Y879602D01*
X2964688Y879602D01*
X2964688Y669289D01*
G37*
G36*
X2654554Y669544D02*
G01*
X2654554Y879602D01*
X2764790Y879602D01*
X2764790Y669544D01*
G37*
G36*
X2454909Y669289D02*
G01*
X2454909Y879347D01*
X2564891Y879347D01*
X2564891Y669289D01*
G37*
G36*
X2104643Y869442D02*
G01*
X2104643Y979423D01*
X2314956Y979423D01*
X2314956Y869442D01*
G37*
G36*
X2104643Y1069339D02*
G01*
X2104643Y1179576D01*
X2314956Y1179576D01*
X2314956Y1069339D01*
G37*
G36*
X2104643Y1269492D02*
G01*
X2104643Y1379473D01*
X2314956Y1379473D01*
X2314956Y1269492D01*
G37*
G36*
X2104643Y1469389D02*
G01*
X2104643Y1579626D01*
X2314956Y1579626D01*
X2314956Y1469389D01*
G37*
G36*
X2104643Y1669287D02*
G01*
X2104643Y1779523D01*
X2314956Y1779523D01*
X2314956Y1669287D01*
G37*
G36*
X2104643Y1869439D02*
G01*
X2104643Y1979421D01*
X2314956Y1979421D01*
X2314956Y1869439D01*
G37*
G36*
X2104643Y2069337D02*
G01*
X2104643Y2179573D01*
X2314956Y2179573D01*
X2314956Y2069337D01*
G37*
G36*
X2104643Y2269489D02*
G01*
X2104643Y2379471D01*
X2314956Y2379471D01*
X2314956Y2269489D01*
G37*
G36*
X3314700Y-405129D02*
G01*
X3314700Y-168910D01*
X3444240Y-168910D01*
X3444240Y-405129D01*
G37*
G36*
X3083559Y-405129D02*
G01*
X3083559Y-168910D01*
X3213100Y-168910D01*
X3213100Y-405129D01*
G37*
G36*
X2854959Y-405129D02*
G01*
X2854959Y-168910D01*
X2984500Y-168910D01*
X2984500Y-405129D01*
G37*
G36*
X2962909Y-1024889D02*
G01*
X2962909Y-788670D01*
X3333750Y-788670D01*
X3333750Y-1024889D01*
G37*
G36*
X4066540Y908050D02*
G01*
X4066540Y998728D01*
X4163059Y998728D01*
X4163059Y908050D01*
G37*
G36*
X4066540Y1058671D02*
G01*
X4066540Y1149350D01*
X4163059Y1149350D01*
X4163059Y1058671D01*
G37*
M02*
