G04 Layer: BottomSilkLayer*
G04 EasyEDA v6.4.19.4, 2021-06-08T16:32:54+08:00*
G04 a09ed18009a84ab5a87bbd9c58a990bc,2444bf6f38dc4a26b464d521983d9d6f,10*
G04 Gerber Generator version 0.2*
G04 Scale: 100 percent, Rotated: No, Reflected: No *
G04 Dimensions in millimeters *
G04 leading zeros omitted , absolute positions ,4 integer and 5 decimal *
%FSLAX45Y45*%
%MOMM*%

%ADD42C,0.2032*%

%LPD*%
D42*
X4432300Y-2970021D02*
G01*
X4432300Y-3163823D01*
X4432300Y-2970021D02*
G01*
X4367529Y-2970021D01*
X4339843Y-2979165D01*
X4321556Y-2997707D01*
X4312158Y-3016250D01*
X4303013Y-3043936D01*
X4303013Y-3089910D01*
X4312158Y-3117850D01*
X4321556Y-3136137D01*
X4339843Y-3154679D01*
X4367529Y-3163823D01*
X4432300Y-3163823D01*
X4242054Y-3089910D02*
G01*
X4131309Y-3089910D01*
X4131309Y-3071621D01*
X4140454Y-3053079D01*
X4149597Y-3043936D01*
X4168140Y-3034537D01*
X4195825Y-3034537D01*
X4214368Y-3043936D01*
X4232909Y-3062223D01*
X4242054Y-3089910D01*
X4242054Y-3108452D01*
X4232909Y-3136137D01*
X4214368Y-3154679D01*
X4195825Y-3163823D01*
X4168140Y-3163823D01*
X4149597Y-3154679D01*
X4131309Y-3136137D01*
X3968750Y-3062223D02*
G01*
X3977893Y-3043936D01*
X4005579Y-3034537D01*
X4033265Y-3034537D01*
X4060952Y-3043936D01*
X4070350Y-3062223D01*
X4060952Y-3080765D01*
X4042409Y-3089910D01*
X3996436Y-3099307D01*
X3977893Y-3108452D01*
X3968750Y-3126994D01*
X3968750Y-3136137D01*
X3977893Y-3154679D01*
X4005579Y-3163823D01*
X4033265Y-3163823D01*
X4060952Y-3154679D01*
X4070350Y-3136137D01*
X3907790Y-2970021D02*
G01*
X3898391Y-2979165D01*
X3889247Y-2970021D01*
X3898391Y-2960623D01*
X3907790Y-2970021D01*
X3898391Y-3034537D02*
G01*
X3898391Y-3163823D01*
X3717290Y-3034537D02*
G01*
X3717290Y-3182365D01*
X3726688Y-3210052D01*
X3735831Y-3219450D01*
X3754374Y-3228594D01*
X3782059Y-3228594D01*
X3800602Y-3219450D01*
X3717290Y-3062223D02*
G01*
X3735831Y-3043936D01*
X3754374Y-3034537D01*
X3782059Y-3034537D01*
X3800602Y-3043936D01*
X3818890Y-3062223D01*
X3828288Y-3089910D01*
X3828288Y-3108452D01*
X3818890Y-3136137D01*
X3800602Y-3154679D01*
X3782059Y-3163823D01*
X3754374Y-3163823D01*
X3735831Y-3154679D01*
X3717290Y-3136137D01*
X3656329Y-3034537D02*
G01*
X3656329Y-3163823D01*
X3656329Y-3071621D02*
G01*
X3628643Y-3043936D01*
X3610356Y-3034537D01*
X3582670Y-3034537D01*
X3564127Y-3043936D01*
X3554729Y-3071621D01*
X3554729Y-3163823D01*
X3484625Y-3117850D02*
G01*
X3493770Y-3126994D01*
X3484625Y-3136137D01*
X3475481Y-3126994D01*
X3484625Y-3117850D01*
X3414522Y-2970021D02*
G01*
X3414522Y-3163823D01*
X3414522Y-3062223D02*
G01*
X3395979Y-3043936D01*
X3377438Y-3034537D01*
X3349752Y-3034537D01*
X3331209Y-3043936D01*
X3312922Y-3062223D01*
X3303524Y-3089910D01*
X3303524Y-3108452D01*
X3312922Y-3136137D01*
X3331209Y-3154679D01*
X3349752Y-3163823D01*
X3377438Y-3163823D01*
X3395979Y-3154679D01*
X3414522Y-3136137D01*
X3233420Y-3034537D02*
G01*
X3178047Y-3163823D01*
X3122675Y-3034537D02*
G01*
X3178047Y-3163823D01*
X3196590Y-3200907D01*
X3214877Y-3219450D01*
X3233420Y-3228594D01*
X3242563Y-3228594D01*
X2845561Y-2970021D02*
G01*
X2919475Y-3163823D01*
X2845561Y-2970021D02*
G01*
X2771647Y-3163823D01*
X2891790Y-3099307D02*
G01*
X2799334Y-3099307D01*
X2710688Y-2970021D02*
G01*
X2710688Y-3163823D01*
X2649727Y-2970021D02*
G01*
X2649727Y-3163823D01*
X2649727Y-2970021D02*
G01*
X2566670Y-2970021D01*
X2538729Y-2979165D01*
X2529586Y-2988310D01*
X2520441Y-3006852D01*
X2520441Y-3025394D01*
X2529586Y-3043936D01*
X2538729Y-3053079D01*
X2566670Y-3062223D01*
X2649727Y-3062223D01*
X2584958Y-3062223D02*
G01*
X2520441Y-3163823D01*
M02*
