G04 Layer: BottomLayer*
G04 EasyEDA v6.4.19.4, 2021-06-08T16:32:54+08:00*
G04 a09ed18009a84ab5a87bbd9c58a990bc,2444bf6f38dc4a26b464d521983d9d6f,10*
G04 Gerber Generator version 0.2*
G04 Scale: 100 percent, Rotated: No, Reflected: No *
G04 Dimensions in millimeters *
G04 leading zeros omitted , absolute positions ,4 integer and 5 decimal *
%FSLAX45Y45*%
%MOMM*%

%ADD10C,0.2540*%
%ADD11C,0.5000*%
%ADD12C,0.8000*%
%ADD13C,0.6000*%
%ADD14C,0.6096*%
%ADD35R,1.5748X1.5748*%
%ADD36C,1.5748*%
%ADD37C,5.5000*%
%ADD38C,2.0000*%
%ADD39C,1.0000*%
%ADD40C,1.5000*%

%LPD*%
G36*
X-1526336Y-3806951D02*
G01*
X-1544777Y-3805986D01*
X-1561693Y-3803446D01*
X-1578254Y-3799230D01*
X-1594358Y-3793439D01*
X-1609801Y-3786073D01*
X-1624431Y-3777234D01*
X-1638147Y-3767023D01*
X-1650796Y-3755491D01*
X-1662226Y-3742791D01*
X-1672386Y-3729024D01*
X-1681124Y-3714343D01*
X-1688439Y-3698849D01*
X-1694129Y-3682695D01*
X-1698243Y-3666134D01*
X-1700682Y-3649167D01*
X-1701546Y-3631742D01*
X-1701546Y2966567D01*
X-1700580Y2984957D01*
X-1698040Y3001873D01*
X-1693824Y3018485D01*
X-1688033Y3034538D01*
X-1680667Y3049981D01*
X-1671828Y3064662D01*
X-1661617Y3078378D01*
X-1650085Y3090976D01*
X-1637385Y3102457D01*
X-1623618Y3112617D01*
X-1608937Y3121355D01*
X-1593443Y3128619D01*
X-1577340Y3134309D01*
X-1560728Y3138424D01*
X-1543812Y3140913D01*
X-1526336Y3141726D01*
X2172512Y3141726D01*
X2176424Y3140964D01*
X2179726Y3138779D01*
X2181910Y3135477D01*
X2182672Y3131566D01*
X2182672Y2477109D01*
X2183485Y2470658D01*
X2185568Y2465222D01*
X2189073Y2460142D01*
X2192070Y2457094D01*
X2195626Y2454503D01*
X2201113Y2452014D01*
X2208479Y2450846D01*
X3822090Y2450846D01*
X3828542Y2451608D01*
X3833977Y2453690D01*
X3839057Y2457196D01*
X3842105Y2460244D01*
X3844696Y2463800D01*
X3847185Y2469286D01*
X3848354Y2476652D01*
X3848354Y3131566D01*
X3849115Y3135477D01*
X3851351Y3138728D01*
X3854602Y3140964D01*
X3858514Y3141726D01*
X5072075Y3141726D01*
X5090414Y3140811D01*
X5107279Y3138271D01*
X5123891Y3134055D01*
X5139944Y3128213D01*
X5155387Y3120898D01*
X5170068Y3112058D01*
X5183733Y3101797D01*
X5196382Y3090316D01*
X5207863Y3077565D01*
X5217972Y3063798D01*
X5226761Y3049117D01*
X5234025Y3033623D01*
X5239715Y3017520D01*
X5243830Y3000908D01*
X5246319Y2983992D01*
X5247132Y2966567D01*
X5247132Y-3631742D01*
X5246217Y-3650183D01*
X5243626Y-3667099D01*
X5239461Y-3683660D01*
X5233619Y-3699764D01*
X5226304Y-3715207D01*
X5217464Y-3729837D01*
X5207203Y-3743553D01*
X5195671Y-3756202D01*
X5182971Y-3767632D01*
X5169204Y-3777792D01*
X5154523Y-3786530D01*
X5139029Y-3793794D01*
X5122926Y-3799535D01*
X5106314Y-3803650D01*
X5089398Y-3806088D01*
X5071973Y-3806951D01*
G37*

%LPC*%
G36*
X4864709Y2480919D02*
G01*
X4888890Y2480919D01*
X4913020Y2482850D01*
X4936947Y2486710D01*
X4960467Y2492502D01*
X4983429Y2500172D01*
X5005679Y2509672D01*
X5027117Y2520950D01*
X5047589Y2533853D01*
X5066944Y2548432D01*
X5085080Y2564485D01*
X5101844Y2581910D01*
X5117134Y2600706D01*
X5130901Y2620619D01*
X5142992Y2641600D01*
X5153406Y2663444D01*
X5161991Y2686100D01*
X5168696Y2709367D01*
X5173573Y2733090D01*
X5176469Y2757119D01*
X5177434Y2781300D01*
X5176469Y2805480D01*
X5173573Y2829509D01*
X5168696Y2853232D01*
X5161991Y2876499D01*
X5153406Y2899156D01*
X5142992Y2921000D01*
X5130901Y2941980D01*
X5117134Y2961894D01*
X5101844Y2980639D01*
X5085080Y2998114D01*
X5066944Y3014167D01*
X5047589Y3028746D01*
X5027117Y3041650D01*
X5005679Y3052927D01*
X4983429Y3062427D01*
X4960467Y3070098D01*
X4936947Y3075889D01*
X4913020Y3079750D01*
X4888890Y3081680D01*
X4864709Y3081680D01*
X4840579Y3079750D01*
X4816652Y3075889D01*
X4793132Y3070098D01*
X4770170Y3062427D01*
X4747920Y3052927D01*
X4726482Y3041650D01*
X4706010Y3028746D01*
X4686655Y3014167D01*
X4668520Y2998114D01*
X4651756Y2980639D01*
X4636465Y2961894D01*
X4622698Y2941980D01*
X4610608Y2921000D01*
X4600194Y2899156D01*
X4591608Y2876499D01*
X4584903Y2853232D01*
X4580026Y2829509D01*
X4577130Y2805480D01*
X4576165Y2781300D01*
X4577130Y2757119D01*
X4580026Y2733090D01*
X4584903Y2709367D01*
X4591608Y2686100D01*
X4600194Y2663444D01*
X4610608Y2641600D01*
X4622698Y2620619D01*
X4636465Y2600706D01*
X4651756Y2581910D01*
X4668520Y2564485D01*
X4686655Y2548432D01*
X4706010Y2533853D01*
X4726482Y2520950D01*
X4747920Y2509672D01*
X4770170Y2500172D01*
X4793132Y2492502D01*
X4816652Y2486710D01*
X4840579Y2482850D01*
G37*
G36*
X1307947Y-3676396D02*
G01*
X1307947Y-3624173D01*
X1265682Y-3624173D01*
X1267053Y-3630117D01*
X1271168Y-3640632D01*
X1276807Y-3650386D01*
X1283868Y-3659225D01*
X1292148Y-3666947D01*
X1301496Y-3673297D01*
G37*
G36*
X1370634Y-3676396D02*
G01*
X1377086Y-3673297D01*
X1386433Y-3666947D01*
X1394714Y-3659225D01*
X1401775Y-3650386D01*
X1407414Y-3640632D01*
X1411579Y-3630117D01*
X1412900Y-3624173D01*
X1370634Y-3624173D01*
G37*
G36*
X2286965Y-3676396D02*
G01*
X2286965Y-3624173D01*
X2244699Y-3624173D01*
X2246020Y-3630117D01*
X2250186Y-3640632D01*
X2255824Y-3650386D01*
X2262886Y-3659225D01*
X2271166Y-3666947D01*
X2280513Y-3673297D01*
G37*
G36*
X2349652Y-3676396D02*
G01*
X2356104Y-3673297D01*
X2365451Y-3666947D01*
X2373731Y-3659225D01*
X2380792Y-3650386D01*
X2386431Y-3640632D01*
X2390546Y-3630117D01*
X2391918Y-3624173D01*
X2349652Y-3624173D01*
G37*
G36*
X1370634Y-3531463D02*
G01*
X1412900Y-3531463D01*
X1411579Y-3525520D01*
X1407414Y-3515004D01*
X1401775Y-3505200D01*
X1394714Y-3496360D01*
X1386433Y-3488690D01*
X1377086Y-3482289D01*
X1370634Y-3479190D01*
G37*
G36*
X2244699Y-3531463D02*
G01*
X2286965Y-3531463D01*
X2286965Y-3479190D01*
X2280513Y-3482289D01*
X2271166Y-3488690D01*
X2262886Y-3496360D01*
X2255824Y-3505200D01*
X2250186Y-3515004D01*
X2246020Y-3525520D01*
G37*
G36*
X2349652Y-3531463D02*
G01*
X2391918Y-3531463D01*
X2390546Y-3525520D01*
X2386431Y-3515004D01*
X2380792Y-3505200D01*
X2373731Y-3496360D01*
X2365451Y-3488690D01*
X2356104Y-3482289D01*
X2349652Y-3479190D01*
G37*
G36*
X1265682Y-3531463D02*
G01*
X1307947Y-3531463D01*
X1307947Y-3479190D01*
X1301496Y-3482289D01*
X1292148Y-3488690D01*
X1283868Y-3496360D01*
X1276807Y-3505200D01*
X1271168Y-3515004D01*
X1267053Y-3525520D01*
G37*
G36*
X2349652Y-3376422D02*
G01*
X2356104Y-3373272D01*
X2365451Y-3366922D01*
X2373731Y-3359251D01*
X2380792Y-3350412D01*
X2386431Y-3340608D01*
X2390546Y-3330092D01*
X2391918Y-3324148D01*
X2349652Y-3324148D01*
G37*
G36*
X1307947Y-3376422D02*
G01*
X1307947Y-3324148D01*
X1265682Y-3324148D01*
X1267053Y-3330092D01*
X1271168Y-3340608D01*
X1276807Y-3350412D01*
X1283868Y-3359251D01*
X1292148Y-3366922D01*
X1301496Y-3373272D01*
G37*
G36*
X1370634Y-3376422D02*
G01*
X1377086Y-3373272D01*
X1386433Y-3366922D01*
X1394714Y-3359251D01*
X1401775Y-3350412D01*
X1407414Y-3340608D01*
X1411579Y-3330092D01*
X1412900Y-3324148D01*
X1370634Y-3324148D01*
G37*
G36*
X2286965Y-3376422D02*
G01*
X2286965Y-3324148D01*
X2244699Y-3324148D01*
X2246020Y-3330092D01*
X2250186Y-3340608D01*
X2255824Y-3350412D01*
X2262886Y-3359251D01*
X2271166Y-3366922D01*
X2280513Y-3373272D01*
G37*
G36*
X1506728Y-3363366D02*
G01*
X1518208Y-3362045D01*
X1529384Y-3358997D01*
X1539951Y-3354222D01*
X1549654Y-3347923D01*
X1558290Y-3340252D01*
X1565656Y-3331311D01*
X1571599Y-3321354D01*
X1575917Y-3310636D01*
X1578559Y-3299358D01*
X1579422Y-3287826D01*
X1578559Y-3276244D01*
X1575917Y-3264966D01*
X1571599Y-3254248D01*
X1565656Y-3244291D01*
X1558290Y-3235350D01*
X1549654Y-3227679D01*
X1539951Y-3221380D01*
X1529384Y-3216605D01*
X1518208Y-3213557D01*
X1506728Y-3212236D01*
X1495145Y-3212693D01*
X1483766Y-3214878D01*
X1472895Y-3218789D01*
X1462684Y-3224326D01*
X1453489Y-3231337D01*
X1445463Y-3239668D01*
X1438808Y-3249168D01*
X1433677Y-3259531D01*
X1430172Y-3270554D01*
X1428394Y-3282035D01*
X1428394Y-3293567D01*
X1430172Y-3305048D01*
X1432052Y-3310940D01*
X1432458Y-3314293D01*
X1433322Y-3315360D01*
X1438808Y-3326434D01*
X1445463Y-3335934D01*
X1453489Y-3344265D01*
X1462684Y-3351276D01*
X1472895Y-3356813D01*
X1483766Y-3360724D01*
X1495145Y-3362909D01*
G37*
G36*
X2156714Y-3363366D02*
G01*
X2168194Y-3362045D01*
X2179370Y-3358997D01*
X2189937Y-3354222D01*
X2199640Y-3347923D01*
X2208326Y-3340252D01*
X2215692Y-3331311D01*
X2221585Y-3321354D01*
X2223922Y-3315563D01*
X2225548Y-3313226D01*
X2225649Y-3311651D01*
X2228545Y-3299307D01*
X2229459Y-3287826D01*
X2228545Y-3276244D01*
X2225903Y-3264966D01*
X2221585Y-3254248D01*
X2215692Y-3244291D01*
X2208326Y-3235350D01*
X2199640Y-3227679D01*
X2189937Y-3221380D01*
X2179370Y-3216605D01*
X2168194Y-3213557D01*
X2156714Y-3212236D01*
X2145131Y-3212693D01*
X2133803Y-3214878D01*
X2122881Y-3218789D01*
X2112721Y-3224326D01*
X2103526Y-3231337D01*
X2095500Y-3239668D01*
X2088794Y-3249168D01*
X2083663Y-3259531D01*
X2080158Y-3270554D01*
X2078431Y-3282035D01*
X2078431Y-3293567D01*
X2080158Y-3305048D01*
X2083663Y-3316071D01*
X2088794Y-3326434D01*
X2095500Y-3335934D01*
X2103526Y-3344265D01*
X2112721Y-3351276D01*
X2122881Y-3356813D01*
X2133803Y-3360724D01*
X2145131Y-3362909D01*
G37*
G36*
X1265682Y-3231438D02*
G01*
X1307947Y-3231438D01*
X1307947Y-3179216D01*
X1301496Y-3182315D01*
X1292148Y-3188665D01*
X1283868Y-3196386D01*
X1276807Y-3205175D01*
X1271168Y-3214979D01*
X1267053Y-3225495D01*
G37*
G36*
X1370634Y-3231438D02*
G01*
X1412900Y-3231438D01*
X1411579Y-3225495D01*
X1407414Y-3214979D01*
X1401775Y-3205175D01*
X1394714Y-3196386D01*
X1386433Y-3188665D01*
X1377086Y-3182315D01*
X1370634Y-3179216D01*
G37*
G36*
X2244699Y-3231438D02*
G01*
X2286965Y-3231438D01*
X2286965Y-3179216D01*
X2280513Y-3182315D01*
X2271166Y-3188665D01*
X2262886Y-3196386D01*
X2255824Y-3205175D01*
X2250186Y-3214979D01*
X2246020Y-3225495D01*
G37*
G36*
X2349652Y-3231438D02*
G01*
X2391918Y-3231438D01*
X2390546Y-3225495D01*
X2386431Y-3214979D01*
X2380792Y-3205175D01*
X2373731Y-3196386D01*
X2365451Y-3188665D01*
X2356104Y-3182315D01*
X2349652Y-3179216D01*
G37*
G36*
X-85242Y-3181959D02*
G01*
X-66954Y-3181959D01*
X-66954Y-3125165D01*
X-175920Y-3125165D01*
X-172770Y-3131616D01*
X-165455Y-3142538D01*
X-156768Y-3152444D01*
X-146862Y-3161131D01*
X-135890Y-3168446D01*
X-124104Y-3174288D01*
X-111658Y-3178505D01*
X-98755Y-3181096D01*
G37*
G36*
X145745Y-3181959D02*
G01*
X164084Y-3181959D01*
X177546Y-3181096D01*
X190449Y-3178505D01*
X202895Y-3174288D01*
X214731Y-3168446D01*
X225653Y-3161131D01*
X235559Y-3152444D01*
X244246Y-3142538D01*
X251561Y-3131616D01*
X254762Y-3125165D01*
X145745Y-3125165D01*
G37*
G36*
X-175920Y-3037433D02*
G01*
X-66954Y-3037433D01*
X-66954Y-2980639D01*
X-85242Y-2980639D01*
X-98755Y-2981553D01*
X-111658Y-2984093D01*
X-124104Y-2988310D01*
X-135890Y-2994152D01*
X-146862Y-3001467D01*
X-156768Y-3010154D01*
X-165455Y-3020060D01*
X-172770Y-3030982D01*
G37*
G36*
X145745Y-3037433D02*
G01*
X254762Y-3037433D01*
X251561Y-3030982D01*
X244246Y-3020060D01*
X235559Y-3010154D01*
X225653Y-3001467D01*
X214731Y-2994152D01*
X202895Y-2988310D01*
X190449Y-2984093D01*
X177546Y-2981553D01*
X164084Y-2980639D01*
X145745Y-2980639D01*
G37*
G36*
X475538Y-2946654D02*
G01*
X475538Y-2837637D01*
X418744Y-2837637D01*
X418744Y-2855976D01*
X419608Y-2869438D01*
X422198Y-2882341D01*
X426415Y-2894787D01*
X432257Y-2906623D01*
X439572Y-2917545D01*
X448259Y-2927451D01*
X458114Y-2936138D01*
X469087Y-2943453D01*
G37*
G36*
X563270Y-2946654D02*
G01*
X569722Y-2943453D01*
X580644Y-2936138D01*
X590550Y-2927451D01*
X599236Y-2917545D01*
X606552Y-2906623D01*
X612394Y-2894787D01*
X616610Y-2882341D01*
X619150Y-2869438D01*
X620064Y-2855976D01*
X620064Y-2837637D01*
X563270Y-2837637D01*
G37*
G36*
X1828800Y-2824683D02*
G01*
X1838553Y-2823819D01*
X1848002Y-2821330D01*
X1856841Y-2817164D01*
X1864868Y-2811576D01*
X1871776Y-2804668D01*
X1877364Y-2796641D01*
X1881530Y-2787802D01*
X1884019Y-2778353D01*
X1884883Y-2768600D01*
X1884019Y-2758846D01*
X1881530Y-2749397D01*
X1877364Y-2740558D01*
X1871776Y-2732532D01*
X1870151Y-2730906D01*
X1867916Y-2727604D01*
X1867154Y-2723692D01*
X1867154Y-2599944D01*
X1867966Y-2595981D01*
X1870252Y-2592628D01*
X1873656Y-2590495D01*
X1877669Y-2589784D01*
X1881632Y-2590749D01*
X1885797Y-2592730D01*
X1895246Y-2595219D01*
X1905000Y-2596083D01*
X1914753Y-2595219D01*
X1924202Y-2592730D01*
X1933041Y-2588564D01*
X1941068Y-2582976D01*
X1947976Y-2576068D01*
X1953564Y-2568041D01*
X1957730Y-2559202D01*
X1960219Y-2549753D01*
X1960930Y-2541676D01*
X1961845Y-2538222D01*
X1963877Y-2535377D01*
X2185771Y-2313482D01*
X2190851Y-2307285D01*
X2194407Y-2300681D01*
X2196592Y-2293467D01*
X2197354Y-2285492D01*
X2197354Y-1537208D01*
X2196592Y-1529232D01*
X2194407Y-1522018D01*
X2190851Y-1515414D01*
X2185771Y-1509217D01*
X2001977Y-1325422D01*
X1999945Y-1322578D01*
X1999030Y-1319123D01*
X1998319Y-1311046D01*
X1995830Y-1301597D01*
X1991664Y-1292758D01*
X1986076Y-1284732D01*
X1979168Y-1277823D01*
X1971141Y-1272235D01*
X1962302Y-1268069D01*
X1952853Y-1265580D01*
X1943100Y-1264716D01*
X1933346Y-1265580D01*
X1923897Y-1268069D01*
X1915058Y-1272235D01*
X1907032Y-1277823D01*
X1900123Y-1284732D01*
X1894535Y-1292758D01*
X1890369Y-1301597D01*
X1889404Y-1305255D01*
X1887372Y-1309166D01*
X1883918Y-1311808D01*
X1879600Y-1312773D01*
X1875282Y-1311808D01*
X1871827Y-1309166D01*
X1869795Y-1305255D01*
X1868830Y-1301597D01*
X1864664Y-1292758D01*
X1859076Y-1284732D01*
X1852168Y-1277823D01*
X1844141Y-1272235D01*
X1835302Y-1268069D01*
X1825853Y-1265580D01*
X1816100Y-1264716D01*
X1806346Y-1265580D01*
X1796897Y-1268069D01*
X1788058Y-1272235D01*
X1780032Y-1277823D01*
X1773123Y-1284732D01*
X1767535Y-1292758D01*
X1763369Y-1301597D01*
X1760880Y-1311046D01*
X1760016Y-1320800D01*
X1760880Y-1330553D01*
X1763369Y-1340002D01*
X1767535Y-1348841D01*
X1773123Y-1356868D01*
X1780032Y-1363776D01*
X1788058Y-1369364D01*
X1796897Y-1373530D01*
X1806346Y-1376019D01*
X1814423Y-1376730D01*
X1817878Y-1377645D01*
X1820722Y-1379677D01*
X1990648Y-1549603D01*
X1992884Y-1552905D01*
X1993646Y-1556816D01*
X1993646Y-2240483D01*
X1992884Y-2244394D01*
X1990648Y-2247696D01*
X1802028Y-2436317D01*
X1796948Y-2442514D01*
X1793392Y-2449118D01*
X1791207Y-2456332D01*
X1790446Y-2464308D01*
X1790446Y-2723692D01*
X1789684Y-2727604D01*
X1787448Y-2730906D01*
X1785823Y-2732532D01*
X1780235Y-2740558D01*
X1776069Y-2749397D01*
X1773580Y-2758846D01*
X1772716Y-2768600D01*
X1773580Y-2778353D01*
X1776069Y-2787802D01*
X1780235Y-2796641D01*
X1785823Y-2804668D01*
X1792732Y-2811576D01*
X1800758Y-2817164D01*
X1809597Y-2821330D01*
X1819046Y-2823819D01*
G37*
G36*
X4290669Y-2686659D02*
G01*
X4292701Y-2685745D01*
X4305655Y-2677871D01*
X4317593Y-2668524D01*
X4328363Y-2657805D01*
X4337710Y-2645867D01*
X4345533Y-2632862D01*
X4346448Y-2630830D01*
X4290669Y-2630830D01*
G37*
G36*
X4940655Y-2686659D02*
G01*
X4942687Y-2685745D01*
X4955641Y-2677871D01*
X4967579Y-2668524D01*
X4978349Y-2657805D01*
X4987696Y-2645867D01*
X4995519Y-2632862D01*
X4996434Y-2630830D01*
X4940655Y-2630830D01*
G37*
G36*
X4827930Y-2686659D02*
G01*
X4827930Y-2630830D01*
X4772152Y-2630830D01*
X4773066Y-2632862D01*
X4780889Y-2645867D01*
X4790236Y-2657805D01*
X4801006Y-2668524D01*
X4812944Y-2677871D01*
X4825898Y-2685745D01*
G37*
G36*
X4177944Y-2686659D02*
G01*
X4177944Y-2630830D01*
X4122165Y-2630830D01*
X4123080Y-2632862D01*
X4130903Y-2645867D01*
X4140250Y-2657805D01*
X4151020Y-2668524D01*
X4162958Y-2677871D01*
X4175912Y-2685745D01*
G37*
G36*
X563270Y-2624937D02*
G01*
X620064Y-2624937D01*
X620064Y-2606649D01*
X619150Y-2593187D01*
X616610Y-2580233D01*
X612394Y-2567787D01*
X606552Y-2556002D01*
X599236Y-2545029D01*
X590550Y-2535123D01*
X580644Y-2526487D01*
X569722Y-2519172D01*
X563270Y-2515971D01*
G37*
G36*
X418744Y-2624937D02*
G01*
X475538Y-2624937D01*
X475538Y-2515971D01*
X469087Y-2519172D01*
X458114Y-2526487D01*
X448259Y-2535123D01*
X439572Y-2545029D01*
X432257Y-2556002D01*
X426415Y-2567787D01*
X422198Y-2580233D01*
X419608Y-2593187D01*
X418744Y-2606649D01*
G37*
G36*
X-85242Y-2581960D02*
G01*
X164084Y-2581960D01*
X177546Y-2581097D01*
X190449Y-2578506D01*
X202895Y-2574290D01*
X214731Y-2568448D01*
X225653Y-2561132D01*
X235559Y-2552446D01*
X244246Y-2542540D01*
X251561Y-2531618D01*
X257352Y-2519832D01*
X261620Y-2507335D01*
X264160Y-2494432D01*
X265023Y-2481326D01*
X264160Y-2468168D01*
X261620Y-2455265D01*
X257352Y-2442768D01*
X251561Y-2430983D01*
X244246Y-2420061D01*
X235559Y-2410155D01*
X225653Y-2401468D01*
X214731Y-2394153D01*
X202895Y-2388311D01*
X190449Y-2384094D01*
X177546Y-2381554D01*
X164084Y-2380640D01*
X-85242Y-2380640D01*
X-98755Y-2381554D01*
X-111658Y-2384094D01*
X-124104Y-2388311D01*
X-135890Y-2394153D01*
X-146862Y-2401468D01*
X-156768Y-2410155D01*
X-165455Y-2420061D01*
X-172770Y-2430983D01*
X-178562Y-2442768D01*
X-182778Y-2455265D01*
X-185369Y-2468168D01*
X-186232Y-2481326D01*
X-185369Y-2494432D01*
X-182778Y-2507335D01*
X-178562Y-2519832D01*
X-172770Y-2531618D01*
X-165455Y-2542540D01*
X-156768Y-2552446D01*
X-146862Y-2561132D01*
X-135890Y-2568448D01*
X-124104Y-2574290D01*
X-111658Y-2578506D01*
X-98755Y-2581097D01*
G37*
G36*
X4772152Y-2518156D02*
G01*
X4827930Y-2518156D01*
X4827930Y-2462326D01*
X4825898Y-2463241D01*
X4812944Y-2471115D01*
X4801006Y-2480462D01*
X4790236Y-2491181D01*
X4780889Y-2503119D01*
X4773066Y-2516124D01*
G37*
G36*
X4122165Y-2518156D02*
G01*
X4177944Y-2518156D01*
X4177944Y-2462326D01*
X4175912Y-2463241D01*
X4162958Y-2471115D01*
X4151020Y-2480462D01*
X4140250Y-2491181D01*
X4130903Y-2503119D01*
X4123080Y-2516124D01*
G37*
G36*
X4290669Y-2518156D02*
G01*
X4346448Y-2518156D01*
X4345533Y-2516124D01*
X4337710Y-2503119D01*
X4328363Y-2491181D01*
X4317593Y-2480462D01*
X4305655Y-2471115D01*
X4292701Y-2463241D01*
X4290669Y-2462326D01*
G37*
G36*
X4940655Y-2518156D02*
G01*
X4996434Y-2518156D01*
X4995519Y-2516124D01*
X4987696Y-2503119D01*
X4978349Y-2491181D01*
X4967579Y-2480462D01*
X4955641Y-2471115D01*
X4942687Y-2463241D01*
X4940655Y-2462326D01*
G37*
G36*
X4877409Y-3742080D02*
G01*
X4901590Y-3742080D01*
X4925720Y-3740150D01*
X4949647Y-3736289D01*
X4973167Y-3730498D01*
X4996129Y-3722827D01*
X5018379Y-3713327D01*
X5039817Y-3702050D01*
X5060289Y-3689146D01*
X5079644Y-3674567D01*
X5097780Y-3658514D01*
X5114544Y-3641090D01*
X5129834Y-3622294D01*
X5143601Y-3602380D01*
X5155692Y-3581400D01*
X5166106Y-3559556D01*
X5174691Y-3536899D01*
X5181396Y-3513632D01*
X5186273Y-3489909D01*
X5189169Y-3465880D01*
X5190134Y-3441700D01*
X5189169Y-3417519D01*
X5186273Y-3393490D01*
X5181396Y-3369767D01*
X5174691Y-3346500D01*
X5166106Y-3323844D01*
X5155692Y-3302000D01*
X5143601Y-3281019D01*
X5129834Y-3261106D01*
X5114544Y-3242360D01*
X5097780Y-3224885D01*
X5079644Y-3208832D01*
X5060289Y-3194253D01*
X5039817Y-3181350D01*
X5018379Y-3170072D01*
X4996129Y-3160572D01*
X4973167Y-3152902D01*
X4949647Y-3147110D01*
X4925720Y-3143250D01*
X4901590Y-3141319D01*
X4877409Y-3141319D01*
X4853279Y-3143250D01*
X4829352Y-3147110D01*
X4805832Y-3152902D01*
X4782870Y-3160572D01*
X4760620Y-3170072D01*
X4739182Y-3181350D01*
X4718710Y-3194253D01*
X4699355Y-3208832D01*
X4681220Y-3224885D01*
X4664456Y-3242360D01*
X4649165Y-3261106D01*
X4635398Y-3281019D01*
X4623308Y-3302000D01*
X4612894Y-3323844D01*
X4604308Y-3346500D01*
X4597603Y-3369767D01*
X4592726Y-3393490D01*
X4589830Y-3417519D01*
X4588865Y-3441700D01*
X4589830Y-3465880D01*
X4592726Y-3489909D01*
X4597603Y-3513632D01*
X4604308Y-3536899D01*
X4612894Y-3559556D01*
X4623308Y-3581400D01*
X4635398Y-3602380D01*
X4649165Y-3622294D01*
X4664456Y-3641090D01*
X4681220Y-3658514D01*
X4699355Y-3674567D01*
X4718710Y-3689146D01*
X4739182Y-3702050D01*
X4760620Y-3713327D01*
X4782870Y-3722827D01*
X4805832Y-3730498D01*
X4829352Y-3736289D01*
X4853279Y-3740150D01*
G37*
G36*
X4234332Y-2250135D02*
G01*
X4249470Y-2249220D01*
X4264355Y-2246477D01*
X4278833Y-2241956D01*
X4292701Y-2235758D01*
X4305655Y-2227884D01*
X4317593Y-2218537D01*
X4328363Y-2207818D01*
X4337710Y-2195880D01*
X4345533Y-2182876D01*
X4351782Y-2169058D01*
X4356303Y-2154580D01*
X4359046Y-2139645D01*
X4359960Y-2124506D01*
X4359046Y-2109368D01*
X4356303Y-2094433D01*
X4351782Y-2079955D01*
X4345533Y-2066137D01*
X4337710Y-2053132D01*
X4328363Y-2041194D01*
X4317593Y-2030475D01*
X4305655Y-2021128D01*
X4292701Y-2013254D01*
X4278833Y-2007057D01*
X4264355Y-2002536D01*
X4249470Y-1999792D01*
X4234332Y-1998878D01*
X4219143Y-1999792D01*
X4204258Y-2002536D01*
X4189780Y-2007057D01*
X4175912Y-2013254D01*
X4162958Y-2021128D01*
X4151020Y-2030475D01*
X4140250Y-2041194D01*
X4130903Y-2053132D01*
X4123080Y-2066137D01*
X4116832Y-2079955D01*
X4112310Y-2094433D01*
X4109567Y-2109368D01*
X4108653Y-2124506D01*
X4109567Y-2139645D01*
X4112310Y-2154580D01*
X4116832Y-2169058D01*
X4123080Y-2182876D01*
X4130903Y-2195880D01*
X4140250Y-2207818D01*
X4151020Y-2218537D01*
X4162958Y-2227884D01*
X4175912Y-2235758D01*
X4189780Y-2241956D01*
X4204258Y-2246477D01*
X4219143Y-2249220D01*
G37*
G36*
X1433118Y-2225294D02*
G01*
X1589481Y-2225294D01*
X1595729Y-2224582D01*
X1601165Y-2222703D01*
X1605991Y-2219655D01*
X1610055Y-2215591D01*
X1613103Y-2210765D01*
X1614982Y-2205329D01*
X1615694Y-2199081D01*
X1615694Y-2067458D01*
X1616456Y-2063546D01*
X1618691Y-2060295D01*
X1621942Y-2058060D01*
X1625854Y-2057298D01*
X1629765Y-2058060D01*
X1633016Y-2060295D01*
X1661007Y-2088235D01*
X1662938Y-2090928D01*
X1663903Y-2094077D01*
X1663801Y-2097430D01*
X1661820Y-2107285D01*
X1660906Y-2120900D01*
X1661820Y-2134514D01*
X1664462Y-2147925D01*
X1668881Y-2160828D01*
X1674926Y-2173071D01*
X1682496Y-2184450D01*
X1691487Y-2194712D01*
X1701749Y-2203704D01*
X1713128Y-2211273D01*
X1725371Y-2217318D01*
X1738274Y-2221738D01*
X1751685Y-2224379D01*
X1765300Y-2225294D01*
X1778914Y-2224379D01*
X1792325Y-2221738D01*
X1805228Y-2217318D01*
X1817471Y-2211273D01*
X1828850Y-2203704D01*
X1839112Y-2194712D01*
X1848104Y-2184450D01*
X1855673Y-2173071D01*
X1861718Y-2160828D01*
X1866138Y-2147925D01*
X1868779Y-2134514D01*
X1869693Y-2120900D01*
X1868779Y-2107285D01*
X1866138Y-2093874D01*
X1861718Y-2080971D01*
X1855673Y-2068728D01*
X1848104Y-2057349D01*
X1839112Y-2047087D01*
X1828850Y-2038096D01*
X1817471Y-2030526D01*
X1805228Y-2024481D01*
X1792325Y-2020062D01*
X1778914Y-2017420D01*
X1765300Y-2016506D01*
X1751685Y-2017420D01*
X1741830Y-2019401D01*
X1738477Y-2019503D01*
X1735328Y-2018538D01*
X1732635Y-2016607D01*
X764844Y-1048816D01*
X762609Y-1045514D01*
X761847Y-1041603D01*
X761847Y-521157D01*
X762812Y-516839D01*
X763930Y-514502D01*
X766419Y-505053D01*
X767283Y-495300D01*
X766419Y-485546D01*
X763930Y-476097D01*
X759764Y-467258D01*
X754176Y-459232D01*
X747268Y-452323D01*
X739241Y-446735D01*
X730402Y-442569D01*
X720953Y-440080D01*
X711200Y-439216D01*
X701446Y-440080D01*
X691997Y-442569D01*
X683158Y-446735D01*
X675132Y-452323D01*
X668223Y-459232D01*
X662635Y-467258D01*
X658469Y-476097D01*
X655980Y-485546D01*
X655116Y-495300D01*
X655980Y-505053D01*
X658469Y-514502D01*
X659587Y-516839D01*
X660552Y-521157D01*
X660552Y-1066596D01*
X660755Y-1071219D01*
X661314Y-1075588D01*
X662279Y-1079906D01*
X663600Y-1084122D01*
X665276Y-1088186D01*
X667359Y-1092098D01*
X669696Y-1095857D01*
X672388Y-1099362D01*
X675538Y-1102766D01*
X1571904Y-1999183D01*
X1574139Y-2002434D01*
X1574901Y-2006346D01*
X1574139Y-2010257D01*
X1571904Y-2013508D01*
X1568653Y-2015743D01*
X1564741Y-2016506D01*
X1433118Y-2016506D01*
X1426870Y-2017217D01*
X1421434Y-2019096D01*
X1416608Y-2022144D01*
X1412544Y-2026208D01*
X1409496Y-2031034D01*
X1407617Y-2036470D01*
X1406906Y-2042718D01*
X1406906Y-2199081D01*
X1407617Y-2205329D01*
X1409496Y-2210765D01*
X1412544Y-2215591D01*
X1416608Y-2219655D01*
X1421434Y-2222703D01*
X1426870Y-2224582D01*
G37*
G36*
X4234332Y-1976221D02*
G01*
X4249470Y-1975307D01*
X4264355Y-1972564D01*
X4278833Y-1968042D01*
X4292701Y-1961845D01*
X4305655Y-1953971D01*
X4317593Y-1944624D01*
X4328363Y-1933905D01*
X4337710Y-1921967D01*
X4345533Y-1908962D01*
X4351782Y-1895144D01*
X4356303Y-1880666D01*
X4359046Y-1865731D01*
X4359960Y-1850593D01*
X4359046Y-1835454D01*
X4356303Y-1820519D01*
X4351782Y-1806041D01*
X4345533Y-1792224D01*
X4337710Y-1779219D01*
X4328363Y-1767281D01*
X4317593Y-1756562D01*
X4305655Y-1747215D01*
X4292701Y-1739341D01*
X4278833Y-1733143D01*
X4264355Y-1728622D01*
X4249470Y-1725879D01*
X4234332Y-1724964D01*
X4219143Y-1725879D01*
X4204258Y-1728622D01*
X4189780Y-1733143D01*
X4175912Y-1739341D01*
X4162958Y-1747215D01*
X4151020Y-1756562D01*
X4140250Y-1767281D01*
X4130903Y-1779219D01*
X4123080Y-1792224D01*
X4116832Y-1806041D01*
X4112310Y-1820519D01*
X4109567Y-1835454D01*
X4108653Y-1850593D01*
X4109567Y-1865731D01*
X4112310Y-1880666D01*
X4116832Y-1895144D01*
X4123080Y-1908962D01*
X4130903Y-1921967D01*
X4140250Y-1933905D01*
X4151020Y-1944624D01*
X4162958Y-1953971D01*
X4175912Y-1961845D01*
X4189780Y-1968042D01*
X4204258Y-1972564D01*
X4219143Y-1975307D01*
G37*
G36*
X4884318Y-1976221D02*
G01*
X4899456Y-1975307D01*
X4914341Y-1972564D01*
X4928819Y-1968042D01*
X4942687Y-1961845D01*
X4955641Y-1953971D01*
X4967579Y-1944624D01*
X4978349Y-1933905D01*
X4987696Y-1921967D01*
X4995519Y-1908962D01*
X5001768Y-1895144D01*
X5006289Y-1880666D01*
X5009032Y-1865731D01*
X5009946Y-1850593D01*
X5009032Y-1835454D01*
X5006289Y-1820519D01*
X5001768Y-1806041D01*
X4995519Y-1792224D01*
X4987696Y-1779219D01*
X4978349Y-1767281D01*
X4967579Y-1756562D01*
X4955641Y-1747215D01*
X4942687Y-1739341D01*
X4928819Y-1733143D01*
X4914341Y-1728622D01*
X4899456Y-1725879D01*
X4884318Y-1724964D01*
X4869129Y-1725879D01*
X4854244Y-1728622D01*
X4839766Y-1733143D01*
X4825898Y-1739341D01*
X4812944Y-1747215D01*
X4801006Y-1756562D01*
X4790236Y-1767281D01*
X4780889Y-1779219D01*
X4773066Y-1792224D01*
X4766818Y-1806041D01*
X4762296Y-1820519D01*
X4759553Y-1835454D01*
X4758639Y-1850593D01*
X4759553Y-1865731D01*
X4762296Y-1880666D01*
X4766818Y-1895144D01*
X4773066Y-1908962D01*
X4780889Y-1921967D01*
X4790236Y-1933905D01*
X4801006Y-1944624D01*
X4812944Y-1953971D01*
X4825898Y-1961845D01*
X4839766Y-1968042D01*
X4854244Y-1972564D01*
X4869129Y-1975307D01*
G37*
G36*
X3302000Y-1707083D02*
G01*
X3311753Y-1706219D01*
X3321202Y-1703730D01*
X3330041Y-1699564D01*
X3338068Y-1693976D01*
X3339693Y-1692351D01*
X3342995Y-1690116D01*
X3346907Y-1689354D01*
X3822192Y-1689354D01*
X3830167Y-1688592D01*
X3837381Y-1686407D01*
X3843985Y-1682851D01*
X3850182Y-1677771D01*
X3938371Y-1589582D01*
X3943451Y-1583385D01*
X3947007Y-1576781D01*
X3949192Y-1569567D01*
X3949954Y-1561592D01*
X3949954Y-1264107D01*
X3950715Y-1260195D01*
X3952951Y-1256893D01*
X3954576Y-1255268D01*
X3960164Y-1247241D01*
X3964330Y-1238402D01*
X3966819Y-1228953D01*
X3967683Y-1219200D01*
X3966819Y-1209446D01*
X3964330Y-1199997D01*
X3960164Y-1191158D01*
X3954576Y-1183132D01*
X3947668Y-1176223D01*
X3945077Y-1174445D01*
X3942181Y-1171346D01*
X3940810Y-1167282D01*
X3941216Y-1163066D01*
X3943350Y-1159357D01*
X3946753Y-1156868D01*
X3950919Y-1155954D01*
X4380992Y-1155954D01*
X4388967Y-1155192D01*
X4396181Y-1153007D01*
X4402785Y-1149451D01*
X4408982Y-1144371D01*
X4890871Y-662482D01*
X4895951Y-656285D01*
X4899507Y-649681D01*
X4901692Y-642467D01*
X4902454Y-634492D01*
X4902454Y1566418D01*
X4901692Y1574393D01*
X4899507Y1581607D01*
X4895951Y1588211D01*
X4890871Y1594408D01*
X4165650Y2319375D01*
X4163618Y2322271D01*
X4162704Y2325674D01*
X4161942Y2333955D01*
X4159453Y2343404D01*
X4155287Y2352294D01*
X4149699Y2360269D01*
X4142790Y2367178D01*
X4134764Y2372817D01*
X4125925Y2376932D01*
X4116476Y2379472D01*
X4106722Y2380335D01*
X4096969Y2379472D01*
X4087520Y2376932D01*
X4078681Y2372817D01*
X4070654Y2367178D01*
X4063746Y2360269D01*
X4058158Y2352294D01*
X4053992Y2343404D01*
X4051503Y2333955D01*
X4050639Y2324201D01*
X4051503Y2314498D01*
X4053992Y2305050D01*
X4058158Y2296160D01*
X4063746Y2288184D01*
X4070654Y2281275D01*
X4078681Y2275636D01*
X4087520Y2271522D01*
X4096969Y2268982D01*
X4104894Y2268270D01*
X4108297Y2267356D01*
X4111193Y2265375D01*
X4822748Y1554022D01*
X4824984Y1550720D01*
X4825746Y1546809D01*
X4825746Y-614883D01*
X4824984Y-618794D01*
X4822748Y-622096D01*
X4804003Y-640892D01*
X4800244Y-643280D01*
X4795824Y-643788D01*
X4791557Y-642416D01*
X4788357Y-639318D01*
X4786731Y-635203D01*
X4788154Y-621792D01*
X4788154Y1480820D01*
X4787392Y1488795D01*
X4785207Y1496009D01*
X4781651Y1502613D01*
X4776571Y1508810D01*
X4165600Y2119731D01*
X4163568Y2122627D01*
X4162653Y2126030D01*
X4161942Y2134209D01*
X4159453Y2143658D01*
X4155287Y2152497D01*
X4149699Y2160524D01*
X4142790Y2167432D01*
X4134764Y2173020D01*
X4125925Y2177186D01*
X4116476Y2179675D01*
X4106722Y2180539D01*
X4096969Y2179675D01*
X4087520Y2177186D01*
X4078681Y2173020D01*
X4070654Y2167432D01*
X4063746Y2160524D01*
X4058158Y2152497D01*
X4053992Y2143658D01*
X4051503Y2134209D01*
X4050639Y2124456D01*
X4051503Y2114702D01*
X4053992Y2105253D01*
X4058158Y2096414D01*
X4063746Y2088388D01*
X4070654Y2081479D01*
X4078681Y2075891D01*
X4087520Y2071725D01*
X4096969Y2069236D01*
X4104995Y2068525D01*
X4108399Y2067610D01*
X4111294Y2065578D01*
X4708448Y1468424D01*
X4710684Y1465122D01*
X4711446Y1461211D01*
X4711446Y-602183D01*
X4710684Y-606094D01*
X4708448Y-609396D01*
X4330496Y-987348D01*
X4327194Y-989584D01*
X4323283Y-990346D01*
X2667508Y-990346D01*
X2659532Y-991108D01*
X2652318Y-993292D01*
X2645714Y-996848D01*
X2639517Y-1001928D01*
X2400096Y-1241348D01*
X2396794Y-1243584D01*
X2392883Y-1244346D01*
X2369007Y-1244346D01*
X2365095Y-1243584D01*
X2361793Y-1241348D01*
X2360168Y-1239723D01*
X2352141Y-1234135D01*
X2343302Y-1229969D01*
X2333853Y-1227480D01*
X2324100Y-1226616D01*
X2314346Y-1227480D01*
X2304897Y-1229969D01*
X2296058Y-1234135D01*
X2288032Y-1239723D01*
X2281123Y-1246632D01*
X2275535Y-1254658D01*
X2271369Y-1263497D01*
X2270404Y-1267155D01*
X2268372Y-1271066D01*
X2264918Y-1273708D01*
X2260600Y-1274673D01*
X2256282Y-1273708D01*
X2252827Y-1271066D01*
X2250795Y-1267155D01*
X2249830Y-1263497D01*
X2245664Y-1254658D01*
X2240076Y-1246632D01*
X2233168Y-1239723D01*
X2225141Y-1234135D01*
X2216302Y-1229969D01*
X2206853Y-1227480D01*
X2197100Y-1226616D01*
X2187346Y-1227480D01*
X2177897Y-1229969D01*
X2169058Y-1234135D01*
X2161032Y-1239723D01*
X2154123Y-1246632D01*
X2148535Y-1254658D01*
X2144369Y-1263497D01*
X2141880Y-1272946D01*
X2141016Y-1282700D01*
X2141880Y-1292453D01*
X2144369Y-1301902D01*
X2148535Y-1310741D01*
X2154123Y-1318768D01*
X2161032Y-1325676D01*
X2169058Y-1331264D01*
X2177897Y-1335430D01*
X2187346Y-1337919D01*
X2195423Y-1338630D01*
X2198878Y-1339545D01*
X2201722Y-1341577D01*
X2245817Y-1385671D01*
X2252014Y-1390751D01*
X2258618Y-1394307D01*
X2265832Y-1396492D01*
X2273808Y-1397254D01*
X2437892Y-1397254D01*
X2445867Y-1396492D01*
X2453081Y-1394307D01*
X2459685Y-1390751D01*
X2465882Y-1385671D01*
X2692603Y-1158951D01*
X2695905Y-1156716D01*
X2699816Y-1155954D01*
X3542080Y-1155954D01*
X3546246Y-1156868D01*
X3549650Y-1159357D01*
X3551783Y-1163066D01*
X3552190Y-1167282D01*
X3550818Y-1171346D01*
X3547922Y-1174445D01*
X3545332Y-1176223D01*
X3538423Y-1183132D01*
X3532835Y-1191158D01*
X3528669Y-1199997D01*
X3526180Y-1209446D01*
X3525469Y-1217523D01*
X3524554Y-1220978D01*
X3522522Y-1223822D01*
X3442208Y-1304137D01*
X3438956Y-1306322D01*
X3435045Y-1307084D01*
X3431133Y-1306322D01*
X3418941Y-1297635D01*
X3410102Y-1293469D01*
X3400653Y-1290980D01*
X3390900Y-1290116D01*
X3381146Y-1290980D01*
X3371697Y-1293469D01*
X3362858Y-1297635D01*
X3354832Y-1303223D01*
X3347923Y-1310132D01*
X3342335Y-1318158D01*
X3338169Y-1326997D01*
X3335680Y-1336446D01*
X3334816Y-1346200D01*
X3335680Y-1355953D01*
X3338169Y-1365402D01*
X3342335Y-1374241D01*
X3347923Y-1382268D01*
X3354832Y-1389176D01*
X3362858Y-1394764D01*
X3371697Y-1398930D01*
X3381146Y-1401419D01*
X3390900Y-1402283D01*
X3400653Y-1401419D01*
X3410102Y-1398930D01*
X3418941Y-1394764D01*
X3426968Y-1389176D01*
X3428593Y-1387551D01*
X3431895Y-1385316D01*
X3435807Y-1384554D01*
X3453892Y-1384554D01*
X3461867Y-1383792D01*
X3469081Y-1381607D01*
X3475685Y-1378051D01*
X3481882Y-1372971D01*
X3576777Y-1278077D01*
X3579622Y-1276045D01*
X3583076Y-1275130D01*
X3591153Y-1274419D01*
X3600602Y-1271930D01*
X3609441Y-1267764D01*
X3617468Y-1262176D01*
X3624376Y-1255268D01*
X3629964Y-1247241D01*
X3634130Y-1238402D01*
X3635095Y-1234744D01*
X3637127Y-1230833D01*
X3640582Y-1228191D01*
X3644900Y-1227226D01*
X3649218Y-1228191D01*
X3652672Y-1230833D01*
X3654704Y-1234744D01*
X3655669Y-1238402D01*
X3659835Y-1247241D01*
X3665423Y-1255268D01*
X3667048Y-1256893D01*
X3669284Y-1260195D01*
X3670046Y-1264107D01*
X3670046Y-1414983D01*
X3669284Y-1418894D01*
X3667048Y-1422196D01*
X3593896Y-1495348D01*
X3590594Y-1497584D01*
X3586683Y-1498346D01*
X3346907Y-1498346D01*
X3342995Y-1497584D01*
X3339693Y-1495348D01*
X3338068Y-1493723D01*
X3330041Y-1488135D01*
X3321202Y-1483969D01*
X3311753Y-1481480D01*
X3302000Y-1480616D01*
X3292246Y-1481480D01*
X3282797Y-1483969D01*
X3273958Y-1488135D01*
X3265932Y-1493723D01*
X3259023Y-1500632D01*
X3253435Y-1508658D01*
X3249269Y-1517497D01*
X3246780Y-1526946D01*
X3245916Y-1536700D01*
X3246780Y-1546453D01*
X3249269Y-1555902D01*
X3253435Y-1564741D01*
X3259023Y-1572768D01*
X3265932Y-1579676D01*
X3274314Y-1585518D01*
X3277006Y-1588312D01*
X3278428Y-1591919D01*
X3278428Y-1595780D01*
X3277006Y-1599387D01*
X3274314Y-1602181D01*
X3265932Y-1608023D01*
X3259023Y-1614932D01*
X3253435Y-1622958D01*
X3249269Y-1631797D01*
X3246780Y-1641246D01*
X3245916Y-1651000D01*
X3246780Y-1660753D01*
X3249269Y-1670202D01*
X3253435Y-1679041D01*
X3259023Y-1687068D01*
X3265932Y-1693976D01*
X3273958Y-1699564D01*
X3282797Y-1703730D01*
X3292246Y-1706219D01*
G37*
G36*
X4290669Y-1512773D02*
G01*
X4292701Y-1511858D01*
X4305655Y-1503984D01*
X4317593Y-1494637D01*
X4328363Y-1483918D01*
X4337710Y-1471980D01*
X4345533Y-1458976D01*
X4346448Y-1456944D01*
X4290669Y-1456944D01*
G37*
G36*
X4940655Y-1512773D02*
G01*
X4942687Y-1511858D01*
X4955641Y-1503984D01*
X4967579Y-1494637D01*
X4978349Y-1483918D01*
X4987696Y-1471980D01*
X4995519Y-1458976D01*
X4996434Y-1456944D01*
X4940655Y-1456944D01*
G37*
G36*
X4177944Y-1512773D02*
G01*
X4177944Y-1456944D01*
X4122165Y-1456944D01*
X4123080Y-1458976D01*
X4130903Y-1471980D01*
X4140250Y-1483918D01*
X4151020Y-1494637D01*
X4162958Y-1503984D01*
X4175912Y-1511858D01*
G37*
G36*
X4827930Y-1512773D02*
G01*
X4827930Y-1456944D01*
X4772152Y-1456944D01*
X4773066Y-1458976D01*
X4780889Y-1471980D01*
X4790236Y-1483918D01*
X4801006Y-1494637D01*
X4812944Y-1503984D01*
X4825898Y-1511858D01*
G37*
G36*
X4122165Y-1344269D02*
G01*
X4177944Y-1344269D01*
X4177944Y-1288440D01*
X4175912Y-1289354D01*
X4162958Y-1297228D01*
X4151020Y-1306576D01*
X4140250Y-1317294D01*
X4130903Y-1329232D01*
X4123080Y-1342237D01*
G37*
G36*
X4772152Y-1344269D02*
G01*
X4827930Y-1344269D01*
X4827930Y-1288440D01*
X4825898Y-1289354D01*
X4812944Y-1297228D01*
X4801006Y-1306576D01*
X4790236Y-1317294D01*
X4780889Y-1329232D01*
X4773066Y-1342237D01*
G37*
G36*
X4940655Y-1344269D02*
G01*
X4996434Y-1344269D01*
X4995519Y-1342237D01*
X4987696Y-1329232D01*
X4978349Y-1317294D01*
X4967579Y-1306576D01*
X4955641Y-1297228D01*
X4942687Y-1289354D01*
X4940655Y-1288440D01*
G37*
G36*
X4290669Y-1344269D02*
G01*
X4346448Y-1344269D01*
X4345533Y-1342237D01*
X4337710Y-1329232D01*
X4328363Y-1317294D01*
X4317593Y-1306576D01*
X4305655Y-1297228D01*
X4292701Y-1289354D01*
X4290669Y-1288440D01*
G37*
G36*
X-1358290Y-3742080D02*
G01*
X-1334109Y-3742080D01*
X-1309979Y-3740150D01*
X-1286052Y-3736289D01*
X-1262532Y-3730498D01*
X-1239570Y-3722827D01*
X-1217320Y-3713327D01*
X-1195882Y-3702050D01*
X-1175410Y-3689146D01*
X-1156055Y-3674567D01*
X-1137920Y-3658514D01*
X-1121156Y-3641090D01*
X-1105865Y-3622294D01*
X-1092098Y-3602380D01*
X-1080008Y-3581400D01*
X-1069594Y-3559556D01*
X-1061008Y-3536899D01*
X-1054303Y-3513632D01*
X-1049426Y-3489909D01*
X-1046530Y-3465880D01*
X-1045565Y-3441700D01*
X-1046530Y-3417519D01*
X-1049426Y-3393490D01*
X-1054303Y-3369767D01*
X-1061008Y-3346500D01*
X-1069594Y-3323844D01*
X-1080008Y-3302000D01*
X-1092098Y-3281019D01*
X-1105865Y-3261106D01*
X-1121156Y-3242360D01*
X-1137920Y-3224885D01*
X-1156055Y-3208832D01*
X-1175410Y-3194253D01*
X-1195882Y-3181350D01*
X-1217320Y-3170072D01*
X-1239570Y-3160572D01*
X-1262532Y-3152902D01*
X-1286052Y-3147110D01*
X-1309979Y-3143250D01*
X-1334109Y-3141319D01*
X-1358290Y-3141319D01*
X-1382420Y-3143250D01*
X-1406347Y-3147110D01*
X-1429867Y-3152902D01*
X-1452829Y-3160572D01*
X-1475079Y-3170072D01*
X-1496517Y-3181350D01*
X-1516989Y-3194253D01*
X-1536344Y-3208832D01*
X-1554480Y-3224885D01*
X-1571244Y-3242360D01*
X-1586534Y-3261106D01*
X-1600301Y-3281019D01*
X-1612392Y-3302000D01*
X-1622806Y-3323844D01*
X-1631391Y-3346500D01*
X-1638096Y-3369767D01*
X-1642973Y-3393490D01*
X-1645869Y-3417519D01*
X-1646834Y-3441700D01*
X-1645869Y-3465880D01*
X-1642973Y-3489909D01*
X-1638096Y-3513632D01*
X-1631391Y-3536899D01*
X-1622806Y-3559556D01*
X-1612392Y-3581400D01*
X-1600301Y-3602380D01*
X-1586534Y-3622294D01*
X-1571244Y-3641090D01*
X-1554480Y-3658514D01*
X-1536344Y-3674567D01*
X-1516989Y-3689146D01*
X-1496517Y-3702050D01*
X-1475079Y-3713327D01*
X-1452829Y-3722827D01*
X-1429867Y-3730498D01*
X-1406347Y-3736289D01*
X-1382420Y-3740150D01*
G37*
G36*
X-665480Y-703173D02*
G01*
X-659028Y-699973D01*
X-647649Y-692404D01*
X-637387Y-683412D01*
X-628396Y-673150D01*
X-620826Y-661771D01*
X-617626Y-655320D01*
X-665480Y-655320D01*
G37*
G36*
X-756920Y-703173D02*
G01*
X-756920Y-655320D01*
X-804773Y-655320D01*
X-801573Y-661771D01*
X-794004Y-673150D01*
X-785012Y-683412D01*
X-774750Y-692404D01*
X-763371Y-699973D01*
G37*
G36*
X4338320Y-703173D02*
G01*
X4344771Y-699973D01*
X4356150Y-692404D01*
X4366412Y-683412D01*
X4375404Y-673150D01*
X4382973Y-661771D01*
X4386173Y-655320D01*
X4338320Y-655320D01*
G37*
G36*
X4246880Y-703173D02*
G01*
X4246880Y-655320D01*
X4199026Y-655320D01*
X4202226Y-661771D01*
X4209796Y-673150D01*
X4218787Y-683412D01*
X4229049Y-692404D01*
X4240428Y-699973D01*
G37*
G36*
X3708400Y-684733D02*
G01*
X3718153Y-683869D01*
X3727602Y-681329D01*
X3736441Y-677214D01*
X3744468Y-671576D01*
X3751376Y-664667D01*
X3756964Y-656691D01*
X3761130Y-647801D01*
X3763619Y-638352D01*
X3764483Y-628650D01*
X3763619Y-618896D01*
X3761130Y-609447D01*
X3756964Y-600557D01*
X3751376Y-592582D01*
X3744468Y-585673D01*
X3736441Y-580034D01*
X3727602Y-575919D01*
X3718153Y-573379D01*
X3708400Y-572516D01*
X3698646Y-573379D01*
X3689197Y-575919D01*
X3680358Y-580034D01*
X3672332Y-585673D01*
X3665423Y-592582D01*
X3659835Y-600557D01*
X3655669Y-609447D01*
X3653180Y-618896D01*
X3652316Y-628650D01*
X3653180Y-638352D01*
X3655669Y-647801D01*
X3659835Y-656691D01*
X3665423Y-664667D01*
X3672332Y-671576D01*
X3680358Y-677214D01*
X3689197Y-681329D01*
X3698646Y-683869D01*
G37*
G36*
X-804773Y-563880D02*
G01*
X-756920Y-563880D01*
X-756920Y-516026D01*
X-763371Y-519226D01*
X-774750Y-526796D01*
X-785012Y-535787D01*
X-794004Y-546049D01*
X-801573Y-557428D01*
G37*
G36*
X-665480Y-563880D02*
G01*
X-617626Y-563880D01*
X-620826Y-557428D01*
X-628396Y-546049D01*
X-637387Y-535787D01*
X-647649Y-526796D01*
X-659028Y-519226D01*
X-665480Y-516026D01*
G37*
G36*
X4338320Y-563880D02*
G01*
X4386173Y-563880D01*
X4382973Y-557428D01*
X4375404Y-546049D01*
X4366412Y-535787D01*
X4356150Y-526796D01*
X4344771Y-519226D01*
X4338320Y-516026D01*
G37*
G36*
X4199026Y-563880D02*
G01*
X4246880Y-563880D01*
X4246880Y-516026D01*
X4240428Y-519226D01*
X4229049Y-526796D01*
X4218787Y-535787D01*
X4209796Y-546049D01*
X4202226Y-557428D01*
G37*
G36*
X-711200Y-459993D02*
G01*
X-697585Y-459079D01*
X-684174Y-456438D01*
X-671271Y-452018D01*
X-659028Y-445973D01*
X-647649Y-438404D01*
X-637387Y-429412D01*
X-628396Y-419150D01*
X-620826Y-407771D01*
X-616762Y-399643D01*
X-614527Y-396646D01*
X-611378Y-394665D01*
X-607669Y-393954D01*
X4189069Y-393954D01*
X4192778Y-394665D01*
X4195927Y-396646D01*
X4198162Y-399643D01*
X4202226Y-407771D01*
X4209796Y-419150D01*
X4218787Y-429412D01*
X4229049Y-438404D01*
X4240428Y-445973D01*
X4252671Y-452018D01*
X4265574Y-456438D01*
X4278985Y-459079D01*
X4292600Y-459993D01*
X4306214Y-459079D01*
X4319625Y-456438D01*
X4332528Y-452018D01*
X4344771Y-445973D01*
X4356150Y-438404D01*
X4366412Y-429412D01*
X4375404Y-419150D01*
X4382973Y-407771D01*
X4387037Y-399643D01*
X4389272Y-396646D01*
X4392422Y-394665D01*
X4396130Y-393954D01*
X4507992Y-393954D01*
X4515967Y-393192D01*
X4523181Y-391007D01*
X4529785Y-387451D01*
X4535982Y-382371D01*
X4674971Y-243382D01*
X4680051Y-237185D01*
X4683607Y-230581D01*
X4685792Y-223367D01*
X4686554Y-215392D01*
X4686554Y1371092D01*
X4685792Y1379067D01*
X4683607Y1386281D01*
X4680051Y1392885D01*
X4674971Y1399082D01*
X4160977Y1913077D01*
X4158945Y1915922D01*
X4158030Y1919376D01*
X4157319Y1927453D01*
X4154830Y1936902D01*
X4150664Y1945741D01*
X4145076Y1953768D01*
X4138168Y1960676D01*
X4130141Y1966264D01*
X4121302Y1970430D01*
X4111853Y1972919D01*
X4102100Y1973783D01*
X4092346Y1972919D01*
X4082897Y1970430D01*
X4074058Y1966264D01*
X4066032Y1960676D01*
X4059123Y1953768D01*
X4053535Y1945741D01*
X4049369Y1936902D01*
X4046880Y1927453D01*
X4046016Y1917700D01*
X4046880Y1907946D01*
X4049369Y1898497D01*
X4053535Y1889658D01*
X4059123Y1881632D01*
X4066032Y1874723D01*
X4074058Y1869135D01*
X4082897Y1864969D01*
X4092346Y1862480D01*
X4100423Y1861769D01*
X4103878Y1860854D01*
X4106722Y1858822D01*
X4606848Y1358696D01*
X4609084Y1355394D01*
X4609846Y1351483D01*
X4609846Y-195783D01*
X4609084Y-199694D01*
X4606848Y-202996D01*
X4495596Y-314248D01*
X4492294Y-316484D01*
X4488383Y-317246D01*
X4396130Y-317246D01*
X4392422Y-316534D01*
X4389272Y-314553D01*
X4387037Y-311556D01*
X4382973Y-303428D01*
X4375404Y-292049D01*
X4366412Y-281787D01*
X4356150Y-272796D01*
X4344771Y-265226D01*
X4332528Y-259181D01*
X4319625Y-254762D01*
X4306214Y-252120D01*
X4292600Y-251206D01*
X4278985Y-252120D01*
X4265574Y-254762D01*
X4252671Y-259181D01*
X4240428Y-265226D01*
X4229049Y-272796D01*
X4218787Y-281787D01*
X4209796Y-292049D01*
X4202226Y-303428D01*
X4198162Y-311556D01*
X4195927Y-314553D01*
X4192778Y-316534D01*
X4189069Y-317246D01*
X-607669Y-317246D01*
X-611378Y-316534D01*
X-614527Y-314553D01*
X-616762Y-311556D01*
X-620826Y-303428D01*
X-628396Y-292049D01*
X-637387Y-281787D01*
X-647649Y-272796D01*
X-659028Y-265226D01*
X-671271Y-259181D01*
X-684174Y-254762D01*
X-697585Y-252120D01*
X-711200Y-251206D01*
X-724814Y-252120D01*
X-738225Y-254762D01*
X-751128Y-259181D01*
X-763371Y-265226D01*
X-774750Y-272796D01*
X-785012Y-281787D01*
X-794004Y-292049D01*
X-801573Y-303428D01*
X-807618Y-315671D01*
X-812038Y-328574D01*
X-814679Y-341985D01*
X-815594Y-355600D01*
X-814679Y-369214D01*
X-812038Y-382625D01*
X-807618Y-395528D01*
X-801573Y-407771D01*
X-794004Y-419150D01*
X-785012Y-429412D01*
X-774750Y-438404D01*
X-763371Y-445973D01*
X-751128Y-452018D01*
X-738225Y-456438D01*
X-724814Y-459079D01*
G37*
G36*
X-711200Y-205994D02*
G01*
X-697585Y-205079D01*
X-684174Y-202438D01*
X-671271Y-198018D01*
X-659028Y-191973D01*
X-647649Y-184404D01*
X-637387Y-175412D01*
X-628396Y-165150D01*
X-620826Y-153771D01*
X-616762Y-145643D01*
X-614527Y-142646D01*
X-611378Y-140665D01*
X-607669Y-139954D01*
X4189069Y-139954D01*
X4192778Y-140665D01*
X4195927Y-142646D01*
X4198162Y-145643D01*
X4202226Y-153771D01*
X4209796Y-165150D01*
X4218787Y-175412D01*
X4229049Y-184404D01*
X4240428Y-191973D01*
X4252671Y-198018D01*
X4265574Y-202438D01*
X4278985Y-205079D01*
X4292600Y-205994D01*
X4306214Y-205079D01*
X4319625Y-202438D01*
X4332528Y-198018D01*
X4344771Y-191973D01*
X4356150Y-184404D01*
X4366412Y-175412D01*
X4375404Y-165150D01*
X4382973Y-153771D01*
X4389018Y-141528D01*
X4393438Y-128625D01*
X4396079Y-115214D01*
X4396994Y-101600D01*
X4396079Y-87985D01*
X4393438Y-74574D01*
X4390491Y-65989D01*
X4389983Y-62280D01*
X4390796Y-58623D01*
X4392930Y-55524D01*
X4560671Y112217D01*
X4565751Y118414D01*
X4569307Y125018D01*
X4571492Y132232D01*
X4572254Y140208D01*
X4572254Y1282192D01*
X4571492Y1290167D01*
X4569307Y1297381D01*
X4565751Y1303985D01*
X4560671Y1310182D01*
X4160977Y1709877D01*
X4158945Y1712722D01*
X4158030Y1716176D01*
X4157319Y1724253D01*
X4154830Y1733702D01*
X4150664Y1742541D01*
X4145076Y1750568D01*
X4138168Y1757476D01*
X4130141Y1763064D01*
X4121302Y1767230D01*
X4111853Y1769719D01*
X4102100Y1770583D01*
X4092346Y1769719D01*
X4082897Y1767230D01*
X4074058Y1763064D01*
X4066032Y1757476D01*
X4059123Y1750568D01*
X4053535Y1742541D01*
X4049369Y1733702D01*
X4046880Y1724253D01*
X4046016Y1714500D01*
X4046880Y1704746D01*
X4049369Y1695297D01*
X4053535Y1686458D01*
X4059123Y1678432D01*
X4066032Y1671523D01*
X4074058Y1665935D01*
X4082897Y1661769D01*
X4092346Y1659280D01*
X4100423Y1658569D01*
X4103878Y1657654D01*
X4106722Y1655622D01*
X4492548Y1269796D01*
X4494784Y1266494D01*
X4495546Y1262583D01*
X4495546Y159816D01*
X4494784Y155905D01*
X4492548Y152603D01*
X4414316Y74371D01*
X4411065Y72186D01*
X4407154Y71424D01*
X4403242Y72186D01*
X4399991Y74371D01*
X4397756Y77673D01*
X4396994Y81584D01*
X4396994Y230581D01*
X4396282Y236829D01*
X4394403Y242265D01*
X4391355Y247091D01*
X4387291Y251155D01*
X4382465Y254203D01*
X4377029Y256082D01*
X4370781Y256794D01*
X4214418Y256794D01*
X4208170Y256082D01*
X4202734Y254203D01*
X4197908Y251155D01*
X4193844Y247091D01*
X4190796Y242265D01*
X4188917Y236829D01*
X4188206Y230581D01*
X4188206Y228193D01*
X4187444Y224332D01*
X4185208Y221030D01*
X4181957Y218846D01*
X4178046Y218033D01*
X3928364Y218033D01*
X3924300Y218897D01*
X3920896Y221284D01*
X3918762Y224840D01*
X3918204Y228955D01*
X3919372Y232968D01*
X3922014Y236169D01*
X3925722Y238048D01*
X3930802Y239369D01*
X3939641Y243535D01*
X3947668Y249123D01*
X3954576Y256032D01*
X3960164Y264058D01*
X3964330Y272897D01*
X3966819Y282346D01*
X3967530Y290423D01*
X3968445Y293878D01*
X3970477Y296722D01*
X4052671Y378917D01*
X4057751Y385114D01*
X4061307Y391718D01*
X4063492Y398932D01*
X4064254Y406908D01*
X4064254Y551992D01*
X4065015Y555904D01*
X4067251Y559206D01*
X4068876Y560832D01*
X4074464Y568858D01*
X4078630Y577697D01*
X4081119Y587146D01*
X4081983Y596900D01*
X4081119Y606653D01*
X4078630Y616102D01*
X4074464Y624941D01*
X4068876Y632968D01*
X4061968Y639876D01*
X4053941Y645464D01*
X4045102Y649630D01*
X4035653Y652119D01*
X4025900Y652983D01*
X4016146Y652119D01*
X4006697Y649630D01*
X3997858Y645464D01*
X3989832Y639876D01*
X3982923Y632968D01*
X3977335Y624941D01*
X3973169Y616102D01*
X3970680Y606653D01*
X3969816Y596900D01*
X3970680Y587146D01*
X3973169Y577697D01*
X3977335Y568858D01*
X3982923Y560832D01*
X3984548Y559206D01*
X3986784Y555904D01*
X3987546Y551992D01*
X3987546Y426516D01*
X3986784Y422605D01*
X3984548Y419303D01*
X3916222Y350977D01*
X3913378Y348945D01*
X3909923Y348030D01*
X3901846Y347319D01*
X3892397Y344830D01*
X3883558Y340664D01*
X3875532Y335076D01*
X3868623Y328168D01*
X3863035Y320141D01*
X3858869Y311302D01*
X3856380Y301853D01*
X3855516Y292100D01*
X3856380Y282346D01*
X3858869Y272897D01*
X3863035Y264058D01*
X3868623Y256032D01*
X3875532Y249123D01*
X3883558Y243535D01*
X3892397Y239369D01*
X3897477Y238048D01*
X3901186Y236169D01*
X3903827Y232968D01*
X3904996Y228955D01*
X3904437Y224840D01*
X3902303Y221284D01*
X3898900Y218897D01*
X3894836Y218033D01*
X3654958Y218033D01*
X3650996Y218846D01*
X3647643Y221132D01*
X3645458Y224586D01*
X3644798Y228549D01*
X3645712Y232511D01*
X3646830Y234797D01*
X3649319Y244246D01*
X3650183Y254000D01*
X3649319Y263753D01*
X3646576Y273964D01*
X3646373Y277977D01*
X3647694Y281787D01*
X3650386Y284784D01*
X3654044Y286461D01*
X3658057Y286613D01*
X3661816Y285191D01*
X3672332Y274523D01*
X3680358Y268935D01*
X3689197Y264769D01*
X3698646Y262280D01*
X3708400Y261416D01*
X3718153Y262280D01*
X3727602Y264769D01*
X3736441Y268935D01*
X3744468Y274523D01*
X3751376Y281432D01*
X3756964Y289458D01*
X3761130Y298297D01*
X3763619Y307746D01*
X3764330Y315823D01*
X3765245Y319278D01*
X3767277Y322122D01*
X3862171Y417017D01*
X3867251Y423214D01*
X3870807Y429818D01*
X3872992Y437032D01*
X3873754Y445008D01*
X3873754Y653592D01*
X3874515Y657504D01*
X3876751Y660806D01*
X3878376Y662432D01*
X3883964Y670458D01*
X3888130Y679297D01*
X3890619Y688746D01*
X3891483Y698500D01*
X3890619Y708253D01*
X3888130Y717702D01*
X3883964Y726541D01*
X3878376Y734568D01*
X3871468Y741476D01*
X3863441Y747064D01*
X3854602Y751230D01*
X3845153Y753719D01*
X3835400Y754583D01*
X3825646Y753719D01*
X3816197Y751230D01*
X3807358Y747064D01*
X3799332Y741476D01*
X3792423Y734568D01*
X3786835Y726541D01*
X3782669Y717702D01*
X3780180Y708253D01*
X3779316Y698500D01*
X3780180Y688746D01*
X3782669Y679297D01*
X3786835Y670458D01*
X3792423Y662432D01*
X3794048Y660806D01*
X3796284Y657504D01*
X3797046Y653592D01*
X3797046Y464616D01*
X3796284Y460705D01*
X3794048Y457403D01*
X3713022Y376377D01*
X3710178Y374345D01*
X3706723Y373430D01*
X3698646Y372719D01*
X3689197Y370230D01*
X3680358Y366064D01*
X3672332Y360476D01*
X3665423Y353568D01*
X3659835Y345541D01*
X3655669Y336702D01*
X3653180Y327253D01*
X3652316Y317500D01*
X3653180Y307746D01*
X3655923Y297535D01*
X3656126Y293522D01*
X3654806Y289712D01*
X3652113Y286715D01*
X3648456Y285038D01*
X3644442Y284886D01*
X3640683Y286308D01*
X3630168Y296976D01*
X3622141Y302564D01*
X3613302Y306730D01*
X3603853Y309219D01*
X3594100Y310083D01*
X3584346Y309219D01*
X3574897Y306730D01*
X3566058Y302564D01*
X3558032Y296976D01*
X3556406Y295351D01*
X3553104Y293116D01*
X3549192Y292354D01*
X2699816Y292354D01*
X2695905Y293116D01*
X2692603Y295351D01*
X2497277Y490677D01*
X2495245Y493522D01*
X2494330Y496976D01*
X2493619Y505053D01*
X2491130Y514502D01*
X2486964Y523341D01*
X2481376Y531368D01*
X2474468Y538276D01*
X2466441Y543864D01*
X2457602Y548030D01*
X2448153Y550519D01*
X2438400Y551383D01*
X2428646Y550519D01*
X2419197Y548030D01*
X2410358Y543864D01*
X2402332Y538276D01*
X2395423Y531368D01*
X2389835Y523341D01*
X2385669Y514502D01*
X2383180Y505053D01*
X2382316Y495300D01*
X2383180Y485546D01*
X2385669Y476097D01*
X2389835Y467258D01*
X2395423Y459232D01*
X2402332Y452323D01*
X2410358Y446735D01*
X2419197Y442569D01*
X2428646Y440080D01*
X2436723Y439369D01*
X2440178Y438454D01*
X2443022Y436422D01*
X2644038Y235407D01*
X2646273Y232105D01*
X2647035Y228193D01*
X2646273Y224332D01*
X2644038Y221030D01*
X2640787Y218846D01*
X2636875Y218033D01*
X-596646Y218033D01*
X-600557Y218846D01*
X-603808Y221030D01*
X-606044Y224332D01*
X-606806Y228193D01*
X-606806Y230581D01*
X-607517Y236829D01*
X-609396Y242265D01*
X-612444Y247091D01*
X-616508Y251155D01*
X-621334Y254203D01*
X-626770Y256082D01*
X-633018Y256794D01*
X-789381Y256794D01*
X-795629Y256082D01*
X-801065Y254203D01*
X-805891Y251155D01*
X-809955Y247091D01*
X-813003Y242265D01*
X-814882Y236829D01*
X-815594Y230581D01*
X-815594Y74218D01*
X-814882Y67970D01*
X-813003Y62534D01*
X-809955Y57708D01*
X-805891Y53644D01*
X-801065Y50596D01*
X-795629Y48717D01*
X-789381Y48006D01*
X-633018Y48006D01*
X-626770Y48717D01*
X-621334Y50596D01*
X-616508Y53644D01*
X-612444Y57708D01*
X-609396Y62534D01*
X-607517Y67970D01*
X-606806Y74218D01*
X-606806Y76606D01*
X-606044Y80467D01*
X-603808Y83769D01*
X-600557Y85953D01*
X-596646Y86766D01*
X4178046Y86766D01*
X4181957Y85953D01*
X4185208Y83769D01*
X4187444Y80467D01*
X4188206Y76606D01*
X4188206Y74218D01*
X4188917Y67970D01*
X4190796Y62534D01*
X4193844Y57708D01*
X4197908Y53644D01*
X4202734Y50596D01*
X4208170Y48717D01*
X4214418Y48006D01*
X4363415Y48006D01*
X4367326Y47244D01*
X4370628Y45008D01*
X4372813Y41757D01*
X4373575Y37846D01*
X4372813Y33934D01*
X4370628Y30683D01*
X4338675Y-1270D01*
X4335576Y-3403D01*
X4331919Y-4216D01*
X4328210Y-3708D01*
X4319625Y-762D01*
X4306214Y1879D01*
X4292600Y2794D01*
X4278985Y1879D01*
X4265574Y-762D01*
X4252671Y-5181D01*
X4240428Y-11226D01*
X4229049Y-18796D01*
X4218787Y-27787D01*
X4209796Y-38049D01*
X4202226Y-49428D01*
X4198162Y-57556D01*
X4195927Y-60553D01*
X4192778Y-62534D01*
X4189069Y-63246D01*
X-607669Y-63246D01*
X-611378Y-62534D01*
X-614527Y-60553D01*
X-616762Y-57556D01*
X-620826Y-49428D01*
X-628396Y-38049D01*
X-637387Y-27787D01*
X-647649Y-18796D01*
X-659028Y-11226D01*
X-671271Y-5181D01*
X-684174Y-762D01*
X-697585Y1879D01*
X-711200Y2794D01*
X-724814Y1879D01*
X-738225Y-762D01*
X-751128Y-5181D01*
X-763371Y-11226D01*
X-774750Y-18796D01*
X-785012Y-27787D01*
X-794004Y-38049D01*
X-801573Y-49428D01*
X-807618Y-61671D01*
X-812038Y-74574D01*
X-814679Y-87985D01*
X-815594Y-101600D01*
X-814679Y-115214D01*
X-812038Y-128625D01*
X-807618Y-141528D01*
X-801573Y-153771D01*
X-794004Y-165150D01*
X-785012Y-175412D01*
X-774750Y-184404D01*
X-763371Y-191973D01*
X-751128Y-198018D01*
X-738225Y-202438D01*
X-724814Y-205079D01*
G37*
G36*
X-711200Y479806D02*
G01*
X-697585Y480720D01*
X-684174Y483362D01*
X-671271Y487781D01*
X-659028Y493826D01*
X-647649Y501396D01*
X-637387Y510387D01*
X-628396Y520649D01*
X-620826Y532028D01*
X-616762Y540156D01*
X-614527Y543153D01*
X-611378Y545134D01*
X-607669Y545846D01*
X2183892Y545846D01*
X2191867Y546608D01*
X2199081Y548792D01*
X2205685Y552348D01*
X2211882Y557428D01*
X2718003Y1063548D01*
X2721305Y1065784D01*
X2725216Y1066546D01*
X4260392Y1066546D01*
X4264304Y1065784D01*
X4267606Y1063548D01*
X4269232Y1061923D01*
X4277258Y1056335D01*
X4286097Y1052169D01*
X4295546Y1049680D01*
X4305300Y1048816D01*
X4315053Y1049680D01*
X4324502Y1052169D01*
X4333341Y1056335D01*
X4341368Y1061923D01*
X4348276Y1068832D01*
X4353864Y1076858D01*
X4358030Y1085697D01*
X4360519Y1095146D01*
X4361383Y1104900D01*
X4360519Y1114653D01*
X4358030Y1124102D01*
X4353864Y1132941D01*
X4348276Y1140968D01*
X4341368Y1147876D01*
X4333341Y1153464D01*
X4324502Y1157630D01*
X4315053Y1160119D01*
X4305300Y1160983D01*
X4295546Y1160119D01*
X4286097Y1157630D01*
X4277258Y1153464D01*
X4269232Y1147876D01*
X4267606Y1146251D01*
X4264304Y1144016D01*
X4260392Y1143254D01*
X2705608Y1143254D01*
X2697632Y1142492D01*
X2690418Y1140307D01*
X2683814Y1136751D01*
X2677617Y1131671D01*
X2171496Y625551D01*
X2168194Y623316D01*
X2164283Y622554D01*
X-607669Y622554D01*
X-611378Y623265D01*
X-614527Y625246D01*
X-616762Y628243D01*
X-620826Y636371D01*
X-628396Y647750D01*
X-637387Y658012D01*
X-647649Y667004D01*
X-659028Y674573D01*
X-671271Y680618D01*
X-684174Y685038D01*
X-697585Y687679D01*
X-711200Y688594D01*
X-724814Y687679D01*
X-738225Y685038D01*
X-751128Y680618D01*
X-763371Y674573D01*
X-774750Y667004D01*
X-785012Y658012D01*
X-794004Y647750D01*
X-801573Y636371D01*
X-807618Y624128D01*
X-812038Y611225D01*
X-814679Y597814D01*
X-815594Y584200D01*
X-814679Y570585D01*
X-812038Y557174D01*
X-807618Y544271D01*
X-801573Y532028D01*
X-794004Y520649D01*
X-785012Y510387D01*
X-774750Y501396D01*
X-763371Y493826D01*
X-751128Y487781D01*
X-738225Y483362D01*
X-724814Y480720D01*
G37*
G36*
X-711200Y733806D02*
G01*
X-697585Y734720D01*
X-684174Y737362D01*
X-671271Y741781D01*
X-659028Y747826D01*
X-647649Y755396D01*
X-637387Y764387D01*
X-628396Y774649D01*
X-620826Y786028D01*
X-616762Y794156D01*
X-614527Y797153D01*
X-611378Y799134D01*
X-607669Y799846D01*
X2158492Y799846D01*
X2166467Y800608D01*
X2173681Y802792D01*
X2180285Y806348D01*
X2186482Y811428D01*
X2654503Y1279448D01*
X2657805Y1281684D01*
X2661716Y1282446D01*
X4057192Y1282446D01*
X4061104Y1281684D01*
X4064406Y1279448D01*
X4066032Y1277823D01*
X4074058Y1272235D01*
X4082897Y1268069D01*
X4092346Y1265580D01*
X4102100Y1264716D01*
X4111853Y1265580D01*
X4121302Y1268069D01*
X4130141Y1272235D01*
X4138168Y1277823D01*
X4145076Y1284732D01*
X4150664Y1292758D01*
X4154830Y1301597D01*
X4157319Y1311046D01*
X4158183Y1320800D01*
X4157319Y1330553D01*
X4154830Y1340002D01*
X4150664Y1348841D01*
X4145076Y1356868D01*
X4138168Y1363776D01*
X4130141Y1369364D01*
X4121302Y1373530D01*
X4111853Y1376019D01*
X4102100Y1376883D01*
X4092346Y1376019D01*
X4082897Y1373530D01*
X4074058Y1369364D01*
X4066032Y1363776D01*
X4064406Y1362151D01*
X4061104Y1359916D01*
X4057192Y1359154D01*
X2642108Y1359154D01*
X2634132Y1358392D01*
X2626918Y1356207D01*
X2620314Y1352651D01*
X2614117Y1347571D01*
X2146096Y879551D01*
X2142794Y877316D01*
X2138883Y876553D01*
X-607669Y876553D01*
X-611378Y877265D01*
X-614527Y879246D01*
X-616762Y882243D01*
X-620826Y890371D01*
X-628396Y901750D01*
X-637387Y912012D01*
X-647649Y921003D01*
X-659028Y928573D01*
X-671271Y934618D01*
X-684174Y939037D01*
X-697585Y941679D01*
X-711200Y942594D01*
X-724814Y941679D01*
X-738225Y939037D01*
X-751128Y934618D01*
X-763371Y928573D01*
X-774750Y921003D01*
X-785012Y912012D01*
X-794004Y901750D01*
X-801573Y890371D01*
X-807618Y878128D01*
X-812038Y865225D01*
X-814679Y851814D01*
X-815594Y838200D01*
X-814679Y824585D01*
X-812038Y811174D01*
X-807618Y798271D01*
X-801573Y786028D01*
X-794004Y774649D01*
X-785012Y764387D01*
X-774750Y755396D01*
X-763371Y747826D01*
X-751128Y741781D01*
X-738225Y737362D01*
X-724814Y734720D01*
G37*
G36*
X1486408Y926846D02*
G01*
X2107692Y926846D01*
X2115667Y927608D01*
X2122881Y929792D01*
X2129485Y933348D01*
X2135682Y938428D01*
X2679903Y1482648D01*
X2683205Y1484884D01*
X2687116Y1485646D01*
X4057192Y1485646D01*
X4061104Y1484884D01*
X4064406Y1482648D01*
X4066032Y1481023D01*
X4074058Y1475435D01*
X4082897Y1471269D01*
X4092346Y1468780D01*
X4102100Y1467916D01*
X4111853Y1468780D01*
X4121302Y1471269D01*
X4130141Y1475435D01*
X4138168Y1481023D01*
X4145076Y1487932D01*
X4150664Y1495958D01*
X4154830Y1504797D01*
X4157319Y1514246D01*
X4158183Y1524000D01*
X4157319Y1533753D01*
X4154830Y1543202D01*
X4150664Y1552041D01*
X4145076Y1560068D01*
X4138168Y1566976D01*
X4130141Y1572564D01*
X4121302Y1576730D01*
X4111853Y1579219D01*
X4102100Y1580083D01*
X4092346Y1579219D01*
X4082897Y1576730D01*
X4074058Y1572564D01*
X4066032Y1566976D01*
X4064406Y1565351D01*
X4061104Y1563116D01*
X4057192Y1562354D01*
X2667508Y1562354D01*
X2659532Y1561592D01*
X2652318Y1559407D01*
X2645714Y1555851D01*
X2639517Y1550771D01*
X2095296Y1006551D01*
X2091994Y1004316D01*
X2088083Y1003553D01*
X1506016Y1003553D01*
X1502105Y1004316D01*
X1498803Y1006551D01*
X1386382Y1118971D01*
X1380185Y1124051D01*
X1373581Y1127607D01*
X1366367Y1129792D01*
X1358392Y1130554D01*
X-607669Y1130554D01*
X-611378Y1131265D01*
X-614527Y1133246D01*
X-616762Y1136243D01*
X-620826Y1144371D01*
X-628396Y1155750D01*
X-637387Y1166012D01*
X-647649Y1175004D01*
X-659028Y1182573D01*
X-671271Y1188618D01*
X-684174Y1193038D01*
X-697585Y1195679D01*
X-711200Y1196594D01*
X-724814Y1195679D01*
X-738225Y1193038D01*
X-751128Y1188618D01*
X-763371Y1182573D01*
X-774750Y1175004D01*
X-785012Y1166012D01*
X-794004Y1155750D01*
X-801573Y1144371D01*
X-807618Y1132128D01*
X-812038Y1119225D01*
X-814679Y1105814D01*
X-815594Y1092200D01*
X-814679Y1078585D01*
X-812038Y1065174D01*
X-807618Y1052271D01*
X-801573Y1040028D01*
X-794004Y1028649D01*
X-785012Y1018387D01*
X-774750Y1009396D01*
X-763371Y1001826D01*
X-751128Y995781D01*
X-738225Y991362D01*
X-724814Y988720D01*
X-711200Y987806D01*
X-697585Y988720D01*
X-684174Y991362D01*
X-671271Y995781D01*
X-659028Y1001826D01*
X-647649Y1009396D01*
X-637387Y1018387D01*
X-628396Y1028649D01*
X-620826Y1040028D01*
X-616762Y1048156D01*
X-614527Y1051153D01*
X-611378Y1053134D01*
X-607669Y1053846D01*
X1338783Y1053846D01*
X1342694Y1053084D01*
X1345996Y1050848D01*
X1458417Y938428D01*
X1464614Y933348D01*
X1471218Y929792D01*
X1478432Y927608D01*
G37*
G36*
X1943100Y1068374D02*
G01*
X1952853Y1069238D01*
X1962302Y1071727D01*
X1971141Y1075893D01*
X1979168Y1081481D01*
X1986076Y1088390D01*
X1991664Y1096416D01*
X1995830Y1105255D01*
X1998319Y1114704D01*
X1999183Y1124458D01*
X1998319Y1134211D01*
X1995830Y1143660D01*
X1991664Y1152499D01*
X1986076Y1160526D01*
X1979168Y1167434D01*
X1971141Y1173022D01*
X1962302Y1177188D01*
X1952853Y1179677D01*
X1943100Y1180541D01*
X1933346Y1179677D01*
X1923897Y1177188D01*
X1915058Y1173022D01*
X1907032Y1167434D01*
X1905406Y1165809D01*
X1902104Y1163574D01*
X1898192Y1162812D01*
X1524558Y1162812D01*
X1520647Y1163574D01*
X1517345Y1165809D01*
X802182Y1880971D01*
X795985Y1886051D01*
X789381Y1889607D01*
X782167Y1891792D01*
X774192Y1892554D01*
X-607669Y1892554D01*
X-611378Y1893265D01*
X-614527Y1895246D01*
X-616762Y1898243D01*
X-620826Y1906371D01*
X-628396Y1917750D01*
X-637387Y1928012D01*
X-647649Y1937004D01*
X-659028Y1944573D01*
X-671271Y1950618D01*
X-684174Y1955038D01*
X-697585Y1957679D01*
X-711200Y1958593D01*
X-724814Y1957679D01*
X-738225Y1955038D01*
X-751128Y1950618D01*
X-763371Y1944573D01*
X-774750Y1937004D01*
X-785012Y1928012D01*
X-794004Y1917750D01*
X-801573Y1906371D01*
X-807618Y1894128D01*
X-812038Y1881225D01*
X-814679Y1867814D01*
X-815594Y1854200D01*
X-814679Y1840585D01*
X-812038Y1827174D01*
X-807618Y1814271D01*
X-801573Y1802028D01*
X-794004Y1790649D01*
X-785012Y1780387D01*
X-774750Y1771396D01*
X-763371Y1763826D01*
X-751128Y1757781D01*
X-738225Y1753362D01*
X-724814Y1750720D01*
X-711200Y1749806D01*
X-697585Y1750720D01*
X-684174Y1753362D01*
X-671271Y1757781D01*
X-659028Y1763826D01*
X-647649Y1771396D01*
X-637387Y1780387D01*
X-628396Y1790649D01*
X-620826Y1802028D01*
X-616762Y1810156D01*
X-614527Y1813153D01*
X-611378Y1815134D01*
X-607669Y1815846D01*
X754583Y1815846D01*
X758494Y1815084D01*
X761796Y1812848D01*
X1476959Y1097686D01*
X1483156Y1092606D01*
X1489760Y1089050D01*
X1496974Y1086866D01*
X1504950Y1086104D01*
X1898192Y1086104D01*
X1902104Y1085342D01*
X1905406Y1083106D01*
X1907032Y1081481D01*
X1915058Y1075893D01*
X1923897Y1071727D01*
X1933346Y1069238D01*
G37*
G36*
X-711200Y1241806D02*
G01*
X-697585Y1242720D01*
X-684174Y1245362D01*
X-671271Y1249781D01*
X-659028Y1255826D01*
X-647649Y1263396D01*
X-637387Y1272387D01*
X-628396Y1282649D01*
X-620826Y1294028D01*
X-614781Y1306271D01*
X-610362Y1319174D01*
X-607720Y1332585D01*
X-606806Y1346200D01*
X-607720Y1359814D01*
X-610362Y1373225D01*
X-614781Y1386128D01*
X-620826Y1398371D01*
X-628396Y1409750D01*
X-637387Y1420012D01*
X-647649Y1429004D01*
X-659028Y1436573D01*
X-671271Y1442618D01*
X-684174Y1447038D01*
X-697585Y1449679D01*
X-711200Y1450594D01*
X-724814Y1449679D01*
X-738225Y1447038D01*
X-751128Y1442618D01*
X-763371Y1436573D01*
X-774750Y1429004D01*
X-785012Y1420012D01*
X-794004Y1409750D01*
X-801573Y1398371D01*
X-807618Y1386128D01*
X-812038Y1373225D01*
X-814679Y1359814D01*
X-815594Y1346200D01*
X-814679Y1332585D01*
X-812038Y1319174D01*
X-807618Y1306271D01*
X-801573Y1294028D01*
X-794004Y1282649D01*
X-785012Y1272387D01*
X-774750Y1263396D01*
X-763371Y1255826D01*
X-751128Y1249781D01*
X-738225Y1245362D01*
X-724814Y1242720D01*
G37*
G36*
X1943100Y1268374D02*
G01*
X1952853Y1269238D01*
X1962302Y1271727D01*
X1971141Y1275892D01*
X1979168Y1281480D01*
X1986076Y1288389D01*
X1991664Y1296416D01*
X1995830Y1305255D01*
X1998319Y1314704D01*
X1999183Y1324457D01*
X1998319Y1334211D01*
X1995830Y1343660D01*
X1991664Y1352499D01*
X1986076Y1360525D01*
X1979168Y1367434D01*
X1971141Y1373022D01*
X1962302Y1377188D01*
X1952853Y1379677D01*
X1943100Y1380540D01*
X1933346Y1379677D01*
X1923897Y1377188D01*
X1915058Y1373022D01*
X1907032Y1367434D01*
X1905304Y1365707D01*
X1902002Y1363472D01*
X1898091Y1362710D01*
X1565960Y1362710D01*
X1562049Y1363472D01*
X1558747Y1365707D01*
X789482Y2134971D01*
X783285Y2140051D01*
X776681Y2143607D01*
X769467Y2145792D01*
X761492Y2146554D01*
X-607669Y2146554D01*
X-611378Y2147265D01*
X-614527Y2149246D01*
X-616762Y2152243D01*
X-620826Y2160371D01*
X-628396Y2171750D01*
X-637387Y2182012D01*
X-647649Y2191004D01*
X-659028Y2198573D01*
X-671271Y2204618D01*
X-684174Y2209038D01*
X-697585Y2211679D01*
X-711200Y2212594D01*
X-724814Y2211679D01*
X-738225Y2209038D01*
X-751128Y2204618D01*
X-763371Y2198573D01*
X-774750Y2191004D01*
X-785012Y2182012D01*
X-794004Y2171750D01*
X-801573Y2160371D01*
X-807618Y2148128D01*
X-812038Y2135225D01*
X-814679Y2121814D01*
X-815594Y2108200D01*
X-814679Y2094585D01*
X-812038Y2081174D01*
X-807618Y2068271D01*
X-801573Y2056028D01*
X-794004Y2044649D01*
X-785012Y2034387D01*
X-774750Y2025396D01*
X-763371Y2017826D01*
X-751128Y2011781D01*
X-738225Y2007362D01*
X-724814Y2004720D01*
X-711200Y2003806D01*
X-697585Y2004720D01*
X-684174Y2007362D01*
X-671271Y2011781D01*
X-659028Y2017826D01*
X-647649Y2025396D01*
X-637387Y2034387D01*
X-628396Y2044649D01*
X-620826Y2056028D01*
X-616762Y2064156D01*
X-614527Y2067153D01*
X-611378Y2069134D01*
X-607669Y2069846D01*
X741883Y2069846D01*
X745794Y2069084D01*
X749096Y2066848D01*
X1518361Y1297584D01*
X1524558Y1292504D01*
X1531162Y1288948D01*
X1538376Y1286764D01*
X1546352Y1286002D01*
X1898294Y1286002D01*
X1902206Y1285240D01*
X1905507Y1283004D01*
X1907032Y1281480D01*
X1915058Y1275892D01*
X1923897Y1271727D01*
X1933346Y1269238D01*
G37*
G36*
X1943100Y1468374D02*
G01*
X1952853Y1469237D01*
X1962302Y1471726D01*
X1971141Y1475892D01*
X1979168Y1481480D01*
X1986076Y1488389D01*
X1991664Y1496415D01*
X1995830Y1505254D01*
X1998319Y1514703D01*
X1999183Y1524457D01*
X1998319Y1534210D01*
X1995830Y1543659D01*
X1991664Y1552498D01*
X1986076Y1560525D01*
X1979168Y1567434D01*
X1971141Y1573022D01*
X1962302Y1577187D01*
X1952853Y1579676D01*
X1943100Y1580540D01*
X1933346Y1579676D01*
X1923897Y1577187D01*
X1915058Y1573022D01*
X1907032Y1567434D01*
X1905457Y1565859D01*
X1902155Y1563624D01*
X1898243Y1562862D01*
X1569008Y1562862D01*
X1565097Y1563624D01*
X1561795Y1565859D01*
X738682Y2388971D01*
X732485Y2394051D01*
X725881Y2397607D01*
X718667Y2399792D01*
X710692Y2400554D01*
X-607669Y2400554D01*
X-611378Y2401265D01*
X-614527Y2403246D01*
X-616762Y2406243D01*
X-620826Y2414371D01*
X-628396Y2425750D01*
X-637387Y2436012D01*
X-647649Y2445004D01*
X-659028Y2452573D01*
X-671271Y2458618D01*
X-684174Y2463038D01*
X-697585Y2465679D01*
X-711200Y2466594D01*
X-724814Y2465679D01*
X-738225Y2463038D01*
X-751128Y2458618D01*
X-763371Y2452573D01*
X-774750Y2445004D01*
X-785012Y2436012D01*
X-794004Y2425750D01*
X-801573Y2414371D01*
X-807618Y2402128D01*
X-812038Y2389225D01*
X-814679Y2375814D01*
X-815594Y2362200D01*
X-814679Y2348585D01*
X-812038Y2335174D01*
X-807618Y2322271D01*
X-801573Y2310028D01*
X-794004Y2298649D01*
X-785012Y2288387D01*
X-774750Y2279396D01*
X-763371Y2271826D01*
X-751128Y2265781D01*
X-738225Y2261362D01*
X-724814Y2258720D01*
X-711200Y2257806D01*
X-697585Y2258720D01*
X-684174Y2261362D01*
X-671271Y2265781D01*
X-659028Y2271826D01*
X-647649Y2279396D01*
X-637387Y2288387D01*
X-628396Y2298649D01*
X-620826Y2310028D01*
X-616762Y2318156D01*
X-614527Y2321153D01*
X-611378Y2323134D01*
X-607669Y2323846D01*
X691083Y2323846D01*
X694994Y2323084D01*
X698296Y2320848D01*
X1521409Y1497736D01*
X1527606Y1492656D01*
X1534210Y1489100D01*
X1541424Y1486916D01*
X1549400Y1486154D01*
X1898142Y1486154D01*
X1902053Y1485392D01*
X1905355Y1483156D01*
X1907032Y1481480D01*
X1915058Y1475892D01*
X1923897Y1471726D01*
X1933346Y1469237D01*
G37*
G36*
X-711200Y1495806D02*
G01*
X-697585Y1496720D01*
X-684174Y1499362D01*
X-671271Y1503781D01*
X-659028Y1509826D01*
X-647649Y1517396D01*
X-637387Y1526387D01*
X-628396Y1536649D01*
X-620826Y1548028D01*
X-614781Y1560271D01*
X-610362Y1573174D01*
X-607720Y1586585D01*
X-606806Y1600200D01*
X-607720Y1613814D01*
X-610362Y1627225D01*
X-614781Y1640128D01*
X-620826Y1652371D01*
X-628396Y1663750D01*
X-637387Y1674012D01*
X-647649Y1683004D01*
X-659028Y1690573D01*
X-671271Y1696618D01*
X-684174Y1701038D01*
X-697585Y1703679D01*
X-711200Y1704593D01*
X-724814Y1703679D01*
X-738225Y1701038D01*
X-751128Y1696618D01*
X-763371Y1690573D01*
X-774750Y1683004D01*
X-785012Y1674012D01*
X-794004Y1663750D01*
X-801573Y1652371D01*
X-807618Y1640128D01*
X-812038Y1627225D01*
X-814679Y1613814D01*
X-815594Y1600200D01*
X-814679Y1586585D01*
X-812038Y1573174D01*
X-807618Y1560271D01*
X-801573Y1548028D01*
X-794004Y1536649D01*
X-785012Y1526387D01*
X-774750Y1517396D01*
X-763371Y1509826D01*
X-751128Y1503781D01*
X-738225Y1499362D01*
X-724814Y1496720D01*
G37*
G36*
X1943100Y1668373D02*
G01*
X1952853Y1669237D01*
X1962302Y1671726D01*
X1971141Y1675892D01*
X1979168Y1681480D01*
X1986076Y1688388D01*
X1991664Y1696415D01*
X1995830Y1705254D01*
X1998319Y1714703D01*
X1999183Y1724456D01*
X1998319Y1734210D01*
X1995830Y1743659D01*
X1991664Y1752498D01*
X1986076Y1760524D01*
X1979168Y1767433D01*
X1971141Y1773021D01*
X1962302Y1777187D01*
X1952853Y1779676D01*
X1943100Y1780539D01*
X1933346Y1779676D01*
X1923897Y1777187D01*
X1915058Y1773021D01*
X1907032Y1767433D01*
X1905355Y1765757D01*
X1902053Y1763522D01*
X1898142Y1762760D01*
X1623110Y1762760D01*
X1619199Y1763522D01*
X1615897Y1765757D01*
X738682Y2642971D01*
X732485Y2648051D01*
X725881Y2651607D01*
X718667Y2653792D01*
X710692Y2654554D01*
X-607669Y2654554D01*
X-611378Y2655265D01*
X-614527Y2657246D01*
X-616762Y2660243D01*
X-620826Y2668371D01*
X-628396Y2679750D01*
X-637387Y2690012D01*
X-647649Y2699004D01*
X-659028Y2706573D01*
X-671271Y2712618D01*
X-684174Y2717038D01*
X-697585Y2719679D01*
X-711200Y2720594D01*
X-724814Y2719679D01*
X-738225Y2717038D01*
X-751128Y2712618D01*
X-763371Y2706573D01*
X-774750Y2699004D01*
X-785012Y2690012D01*
X-794004Y2679750D01*
X-801573Y2668371D01*
X-807618Y2656128D01*
X-812038Y2643225D01*
X-814679Y2629814D01*
X-815594Y2616200D01*
X-814679Y2602585D01*
X-812038Y2589174D01*
X-807618Y2576271D01*
X-801573Y2564028D01*
X-794004Y2552649D01*
X-785012Y2542387D01*
X-774750Y2533396D01*
X-763371Y2525826D01*
X-751128Y2519781D01*
X-738225Y2515362D01*
X-724814Y2512720D01*
X-711200Y2511806D01*
X-697585Y2512720D01*
X-684174Y2515362D01*
X-671271Y2519781D01*
X-659028Y2525826D01*
X-647649Y2533396D01*
X-637387Y2542387D01*
X-628396Y2552649D01*
X-620826Y2564028D01*
X-616762Y2572156D01*
X-614527Y2575153D01*
X-611378Y2577134D01*
X-607669Y2577846D01*
X691083Y2577846D01*
X694994Y2577084D01*
X698296Y2574848D01*
X1575511Y1697634D01*
X1581708Y1692554D01*
X1588312Y1688998D01*
X1595526Y1686814D01*
X1603502Y1686052D01*
X1898243Y1686052D01*
X1902155Y1685289D01*
X1905457Y1683054D01*
X1907032Y1681480D01*
X1915058Y1675892D01*
X1923897Y1671726D01*
X1933346Y1669237D01*
G37*
G36*
X1943100Y2064816D02*
G01*
X1952853Y2065680D01*
X1962302Y2068169D01*
X1971141Y2072335D01*
X1979168Y2077923D01*
X1986076Y2084832D01*
X1991664Y2092858D01*
X1995830Y2101697D01*
X1998319Y2111146D01*
X1999183Y2120900D01*
X1998319Y2130653D01*
X1995830Y2140102D01*
X1991664Y2148941D01*
X1986076Y2156968D01*
X1979168Y2163876D01*
X1971141Y2169464D01*
X1962302Y2173630D01*
X1952853Y2176119D01*
X1943100Y2176983D01*
X1933346Y2176119D01*
X1923897Y2173630D01*
X1915058Y2169464D01*
X1907032Y2163876D01*
X1905406Y2162251D01*
X1902104Y2160016D01*
X1898192Y2159254D01*
X1391716Y2159254D01*
X1387805Y2160016D01*
X1384503Y2162251D01*
X649782Y2896971D01*
X643585Y2902051D01*
X636981Y2905607D01*
X629767Y2907792D01*
X621792Y2908554D01*
X-596646Y2908554D01*
X-600557Y2909316D01*
X-603808Y2911551D01*
X-606044Y2914802D01*
X-606806Y2918714D01*
X-606806Y2948381D01*
X-607517Y2954629D01*
X-609396Y2960065D01*
X-612444Y2964891D01*
X-616508Y2968955D01*
X-621334Y2972003D01*
X-626770Y2973882D01*
X-633018Y2974594D01*
X-789381Y2974594D01*
X-795629Y2973882D01*
X-801065Y2972003D01*
X-805891Y2968955D01*
X-809955Y2964891D01*
X-813003Y2960065D01*
X-814882Y2954629D01*
X-815594Y2948381D01*
X-815594Y2792018D01*
X-814882Y2785770D01*
X-813003Y2780334D01*
X-809955Y2775508D01*
X-805891Y2771444D01*
X-801065Y2768396D01*
X-795629Y2766517D01*
X-789381Y2765806D01*
X-633018Y2765806D01*
X-626770Y2766517D01*
X-621334Y2768396D01*
X-616508Y2771444D01*
X-612444Y2775508D01*
X-609396Y2780334D01*
X-607517Y2785770D01*
X-606806Y2792018D01*
X-606806Y2821686D01*
X-606044Y2825597D01*
X-603808Y2828848D01*
X-600557Y2831084D01*
X-596646Y2831846D01*
X602183Y2831846D01*
X606094Y2831084D01*
X609396Y2828848D01*
X1344117Y2094128D01*
X1350314Y2089048D01*
X1356918Y2085492D01*
X1364132Y2083307D01*
X1372108Y2082546D01*
X1898192Y2082546D01*
X1902104Y2081784D01*
X1905406Y2079548D01*
X1907032Y2077923D01*
X1915058Y2072335D01*
X1923897Y2068169D01*
X1933346Y2065680D01*
G37*
G36*
X-1358290Y2480919D02*
G01*
X-1334109Y2480919D01*
X-1309979Y2482850D01*
X-1286052Y2486710D01*
X-1262532Y2492502D01*
X-1239570Y2500172D01*
X-1217320Y2509672D01*
X-1195882Y2520950D01*
X-1175410Y2533853D01*
X-1156055Y2548432D01*
X-1137920Y2564485D01*
X-1121156Y2581910D01*
X-1105865Y2600706D01*
X-1092098Y2620619D01*
X-1080008Y2641600D01*
X-1069594Y2663444D01*
X-1061008Y2686100D01*
X-1054303Y2709367D01*
X-1049426Y2733090D01*
X-1046530Y2757119D01*
X-1045565Y2781300D01*
X-1046530Y2805480D01*
X-1049426Y2829509D01*
X-1054303Y2853232D01*
X-1061008Y2876499D01*
X-1069594Y2899156D01*
X-1080008Y2921000D01*
X-1092098Y2941980D01*
X-1105865Y2961894D01*
X-1121156Y2980639D01*
X-1137920Y2998114D01*
X-1156055Y3014167D01*
X-1175410Y3028746D01*
X-1195882Y3041650D01*
X-1217320Y3052927D01*
X-1239570Y3062427D01*
X-1262532Y3070098D01*
X-1286052Y3075889D01*
X-1309979Y3079750D01*
X-1334109Y3081680D01*
X-1358290Y3081680D01*
X-1382420Y3079750D01*
X-1406347Y3075889D01*
X-1429867Y3070098D01*
X-1452829Y3062427D01*
X-1475079Y3052927D01*
X-1496517Y3041650D01*
X-1516989Y3028746D01*
X-1536344Y3014167D01*
X-1554480Y2998114D01*
X-1571244Y2980639D01*
X-1586534Y2961894D01*
X-1600301Y2941980D01*
X-1612392Y2921000D01*
X-1622806Y2899156D01*
X-1631391Y2876499D01*
X-1638096Y2853232D01*
X-1642973Y2829509D01*
X-1645869Y2805480D01*
X-1646834Y2781300D01*
X-1645869Y2757119D01*
X-1642973Y2733090D01*
X-1638096Y2709367D01*
X-1631391Y2686100D01*
X-1622806Y2663444D01*
X-1612392Y2641600D01*
X-1600301Y2620619D01*
X-1586534Y2600706D01*
X-1571244Y2581910D01*
X-1554480Y2564485D01*
X-1536344Y2548432D01*
X-1516989Y2533853D01*
X-1496517Y2520950D01*
X-1475079Y2509672D01*
X-1452829Y2500172D01*
X-1429867Y2492502D01*
X-1406347Y2486710D01*
X-1382420Y2482850D01*
G37*
G36*
X4884318Y-2250135D02*
G01*
X4899456Y-2249220D01*
X4914341Y-2246477D01*
X4928819Y-2241956D01*
X4942687Y-2235758D01*
X4955641Y-2227884D01*
X4967579Y-2218537D01*
X4978349Y-2207818D01*
X4987696Y-2195880D01*
X4995519Y-2182876D01*
X5001768Y-2169058D01*
X5006289Y-2154580D01*
X5009032Y-2139645D01*
X5009946Y-2124506D01*
X5009032Y-2109368D01*
X5006289Y-2094433D01*
X5001768Y-2079955D01*
X4995519Y-2066137D01*
X4987696Y-2053132D01*
X4978349Y-2041194D01*
X4967579Y-2030475D01*
X4955641Y-2021128D01*
X4942687Y-2013254D01*
X4928819Y-2007057D01*
X4914341Y-2002536D01*
X4899456Y-1999792D01*
X4884318Y-1998878D01*
X4869129Y-1999792D01*
X4854244Y-2002536D01*
X4839766Y-2007057D01*
X4825898Y-2013254D01*
X4812944Y-2021128D01*
X4801006Y-2030475D01*
X4790236Y-2041194D01*
X4780889Y-2053132D01*
X4773066Y-2066137D01*
X4766818Y-2079955D01*
X4762296Y-2094433D01*
X4759553Y-2109368D01*
X4758639Y-2124506D01*
X4759553Y-2139645D01*
X4762296Y-2154580D01*
X4766818Y-2169058D01*
X4773066Y-2182876D01*
X4780889Y-2195880D01*
X4790236Y-2207818D01*
X4801006Y-2218537D01*
X4812944Y-2227884D01*
X4825898Y-2235758D01*
X4839766Y-2241956D01*
X4854244Y-2246477D01*
X4869129Y-2249220D01*
G37*

%LPD*%
D10*
X2552700Y-1003300D02*
G01*
X2552700Y-723900D01*
X2298700Y-469900D01*
D11*
X711200Y-495300D02*
G01*
X711200Y-1066800D01*
X1765300Y-2120900D01*
D10*
X1905000Y-2540000D02*
G01*
X2159000Y-2286000D01*
X2159000Y-1536700D01*
X1943100Y-1320800D01*
X1828800Y-2768600D02*
G01*
X1828800Y-2463800D01*
X2032000Y-2260600D01*
X2032000Y-1536700D01*
X1816100Y-1320800D01*
D12*
X-711200Y152400D02*
G01*
X4094700Y152400D01*
D10*
X-12700Y-495300D02*
G01*
X-596900Y-495300D01*
X-711200Y-609600D01*
X2324100Y-1282700D02*
G01*
X2413000Y-1282700D01*
X2667000Y-1028700D01*
X4343400Y-1028700D01*
X4749800Y-622300D01*
X4749800Y1481328D01*
X4106672Y2124455D01*
X2197100Y-1282700D02*
G01*
X2273300Y-1358900D01*
X2438400Y-1358900D01*
X2679700Y-1117600D01*
X4381500Y-1117600D01*
X4864100Y-635000D01*
X4864100Y1566926D01*
X4106672Y2324100D01*
X-711200Y-101600D02*
G01*
X4292600Y-101600D01*
X-711200Y-355600D02*
G01*
X4292600Y-355600D01*
X1943100Y1724405D02*
G01*
X1602993Y1724405D01*
X711200Y2616200D01*
X-711200Y2616200D01*
X1943100Y2120900D02*
G01*
X1371600Y2120900D01*
X622300Y2870200D01*
X-711200Y2870200D01*
X1943100Y1324355D02*
G01*
X1545843Y1324355D01*
X762000Y2108200D01*
X-711200Y2108200D01*
X1943100Y1524507D02*
G01*
X1548891Y1524507D01*
X711200Y2362200D01*
X-711200Y2362200D01*
X1943100Y1124457D02*
G01*
X1504441Y1124457D01*
X774700Y1854200D01*
X-711200Y1854200D01*
X4102100Y1917700D02*
G01*
X4648200Y1371600D01*
X4648200Y-215900D01*
X4508500Y-355600D01*
X4292600Y-355600D01*
X4102100Y1714500D02*
G01*
X4533900Y1282700D01*
X4533900Y139700D01*
X4292600Y-101600D01*
X4102100Y1524000D02*
G01*
X2667000Y1524000D01*
X2108200Y965200D01*
X1485900Y965200D01*
X1358900Y1092200D01*
X-711200Y1092200D01*
X4102100Y1320800D02*
G01*
X2641600Y1320800D01*
X2159000Y838200D01*
X-711200Y838200D01*
X4305300Y1104900D02*
G01*
X2705100Y1104900D01*
X2184400Y584200D01*
X-711200Y584200D01*
D12*
X4094700Y152400D02*
G01*
X4292600Y152400D01*
D10*
X3835400Y698500D02*
G01*
X3835400Y444500D01*
X3708400Y317500D01*
X4025900Y596900D02*
G01*
X4025900Y406400D01*
X3911600Y292100D01*
X3911600Y-1219200D02*
G01*
X3911600Y-1562100D01*
X3822700Y-1651000D01*
X3302000Y-1651000D01*
X3708400Y-1219200D02*
G01*
X3708400Y-1435100D01*
X3606800Y-1536700D01*
X3302000Y-1536700D01*
X3568700Y-469900D02*
G01*
X4152900Y-469900D01*
X4292600Y-609600D01*
X2298700Y-469900D02*
G01*
X3568700Y-469900D01*
X1701800Y330200D02*
G01*
X939800Y330200D01*
X825500Y444500D01*
X3695700Y647700D02*
G01*
X3695700Y533400D01*
X3479800Y317500D01*
X3390900Y-1346200D02*
G01*
X3454400Y-1346200D01*
X3581400Y-1219200D01*
X3594100Y254000D02*
G01*
X2679700Y254000D01*
X2451100Y482600D01*
D35*
G01*
X4292600Y152400D03*
D36*
G01*
X4292600Y-101600D03*
G01*
X4292600Y-355600D03*
G01*
X4292600Y-609600D03*
D35*
G01*
X-711200Y152400D03*
D36*
G01*
X-711200Y-101600D03*
G01*
X-711200Y-355600D03*
G01*
X-711200Y-609600D03*
G01*
X-711200Y584200D03*
G01*
X-711200Y838200D03*
G01*
X-711200Y1092200D03*
G01*
X-711200Y1346200D03*
G01*
X-711200Y1600200D03*
G01*
X-711200Y1854200D03*
G01*
X-711200Y2108200D03*
G01*
X-711200Y2362200D03*
G01*
X-711200Y2616200D03*
D35*
G01*
X-711200Y2870200D03*
D37*
G01*
X-1346200Y-3441700D03*
D13*
G01*
X-1346200Y-3229203D03*
G01*
X-1346200Y-3654196D03*
G01*
X-1133703Y-3441700D03*
G01*
X-1558696Y-3441700D03*
G01*
X-1196187Y-3291712D03*
G01*
X-1496187Y-3591712D03*
G01*
X-1196187Y-3591712D03*
G01*
X-1496187Y-3291712D03*
D37*
G01*
X-1346200Y2781300D03*
D13*
G01*
X-1346200Y2993796D03*
G01*
X-1346200Y2568803D03*
G01*
X-1133703Y2781300D03*
G01*
X-1558696Y2781300D03*
G01*
X-1196187Y2931287D03*
G01*
X-1496187Y2631287D03*
G01*
X-1196187Y2631287D03*
G01*
X-1496187Y2931287D03*
D37*
G01*
X4876800Y2781300D03*
D13*
G01*
X4876800Y2993796D03*
G01*
X4876800Y2568803D03*
G01*
X5089296Y2781300D03*
G01*
X4664303Y2781300D03*
G01*
X5026812Y2931287D03*
G01*
X4726813Y2631287D03*
G01*
X5026812Y2631287D03*
G01*
X4726813Y2931287D03*
D37*
G01*
X4889500Y-3441700D03*
D13*
G01*
X4889500Y-3229203D03*
G01*
X4889500Y-3654196D03*
G01*
X5101996Y-3441700D03*
G01*
X4677003Y-3441700D03*
G01*
X5039512Y-3291712D03*
G01*
X4739513Y-3591712D03*
G01*
X5039512Y-3591712D03*
G01*
X4739513Y-3291712D03*
D38*
G01*
X4234306Y-1400606D03*
G01*
X4884293Y-1400606D03*
G01*
X4884293Y-1850593D03*
G01*
X4234306Y-1850593D03*
G01*
X4884293Y-2574493D03*
G01*
X4234306Y-2574493D03*
G01*
X4234306Y-2124506D03*
G01*
X4884293Y-2124506D03*
D35*
G01*
X1511300Y-2120900D03*
D36*
G01*
X1765300Y-2120900D03*
D14*
G01*
X1905000Y-2540000D03*
G01*
X1828800Y-2768600D03*
G01*
X1943100Y-1320800D03*
G01*
X1816100Y-1320800D03*
G01*
X711200Y-495300D03*
G01*
X1943100Y1124457D03*
G01*
X1943100Y1324457D03*
G01*
X1943100Y1524457D03*
G01*
X1943100Y1724456D03*
G01*
X1943100Y2120900D03*
G01*
X-12700Y-495300D03*
G01*
X2197100Y-1282700D03*
G01*
X2324100Y-1282700D03*
G01*
X4106722Y2324227D03*
G01*
X4106722Y2124455D03*
G01*
X4102100Y1917700D03*
G01*
X4102100Y1714500D03*
G01*
X4102100Y1524000D03*
G01*
X4102100Y1320800D03*
G01*
X4305300Y1104900D03*
G01*
X4025900Y596900D03*
G01*
X3835400Y698500D03*
G01*
X3708400Y317500D03*
G01*
X3911600Y292100D03*
G01*
X3708400Y-1219200D03*
G01*
X3911600Y-1219200D03*
G01*
X3302000Y-1651000D03*
G01*
X3302000Y-1536700D03*
G01*
X3568700Y-469900D03*
G01*
X2298700Y-469900D03*
G01*
X1701800Y330200D03*
G01*
X825500Y444500D03*
G01*
X3695700Y647700D03*
G01*
X3479800Y317500D03*
G01*
X3390900Y-1346200D03*
G01*
X3708400Y-628624D03*
G01*
X3581400Y-1219200D03*
G01*
X3594100Y254000D03*
G01*
X2438400Y495300D03*
G01*
X2552700Y-1003300D03*
D39*
X2318308Y-3547793D02*
G01*
X2318308Y-3607793D01*
X1339316Y-3547793D02*
G01*
X1339316Y-3607793D01*
X2318308Y-3247793D02*
G01*
X2318308Y-3307793D01*
X1339316Y-3247793D02*
G01*
X1339316Y-3307793D01*
D40*
X164396Y-3081299D02*
G01*
X-85603Y-3081299D01*
X164396Y-2481300D02*
G01*
X-85603Y-2481300D01*
X519404Y-2606286D02*
G01*
X519404Y-2856288D01*
M02*
