G04 Layer: TopPasteMaskLayer*
G04 EasyEDA v6.4.19.4, 2021-06-08T16:32:54+08:00*
G04 a09ed18009a84ab5a87bbd9c58a990bc,2444bf6f38dc4a26b464d521983d9d6f,10*
G04 Gerber Generator version 0.2*
G04 Scale: 100 percent, Rotated: No, Reflected: No *
G04 Dimensions in millimeters *
G04 leading zeros omitted , absolute positions ,4 integer and 5 decimal *
%FSLAX45Y45*%
%MOMM*%

%ADD13C,0.6000*%
%ADD18R,0.8000X0.9000*%
%ADD19R,0.8000X2.8000*%
%ADD20R,0.9000X0.8000*%
%ADD22R,1.8000X2.0000*%
%ADD23R,2.0000X1.8000*%
%ADD24R,1.9000X1.2000*%
%ADD25R,3.0000X2.2000*%
%ADD26R,0.8999X1.0000*%
%ADD27R,1.2500X0.7000*%
%ADD29R,0.8000X0.6500*%
%ADD30R,0.8000X0.5000*%
%ADD31R,2.0000X1.0000*%
%ADD32R,1.0000X2.0000*%
%ADD33R,1.0922X2.1590*%
%ADD34R,3.5052X2.1590*%

%LPD*%
G36*
X1338072Y-3197809D02*
G01*
X1333093Y-3198215D01*
X1328166Y-3199079D01*
X1323390Y-3200400D01*
X1318717Y-3202228D01*
X1314297Y-3204514D01*
X1310132Y-3207207D01*
X1306220Y-3210306D01*
X1302664Y-3213811D01*
X1299464Y-3217621D01*
X1296619Y-3221736D01*
X1294231Y-3226104D01*
X1292301Y-3230676D01*
X1290828Y-3235452D01*
X1289862Y-3240328D01*
X1289354Y-3245307D01*
X1289304Y-3307791D01*
X1289558Y-3312769D01*
X1290269Y-3317697D01*
X1291539Y-3322523D01*
X1293215Y-3327196D01*
X1295400Y-3331718D01*
X1297990Y-3335985D01*
X1300988Y-3339947D01*
X1304391Y-3343605D01*
X1308150Y-3346907D01*
X1312164Y-3349802D01*
X1316482Y-3352292D01*
X1321054Y-3354324D01*
X1325778Y-3355949D01*
X1330604Y-3357016D01*
X1335582Y-3357676D01*
X1340561Y-3357778D01*
X1345539Y-3357422D01*
X1350416Y-3356559D01*
X1355242Y-3355187D01*
X1359865Y-3353358D01*
X1364284Y-3351123D01*
X1368501Y-3348380D01*
X1372362Y-3345281D01*
X1375968Y-3341827D01*
X1379169Y-3337966D01*
X1381963Y-3333851D01*
X1384350Y-3329482D01*
X1386281Y-3324910D01*
X1387754Y-3320135D01*
X1388770Y-3315258D01*
X1389227Y-3310280D01*
X1389329Y-3247796D01*
X1389075Y-3242818D01*
X1388313Y-3237890D01*
X1387094Y-3233064D01*
X1385366Y-3228390D01*
X1383233Y-3223869D01*
X1380591Y-3219653D01*
X1377594Y-3215640D01*
X1374241Y-3211982D01*
X1370482Y-3208731D01*
X1366418Y-3205784D01*
X1362100Y-3203295D01*
X1357579Y-3201263D01*
X1352854Y-3199688D01*
X1347978Y-3198571D01*
X1343050Y-3197961D01*
G37*
G36*
X2317038Y-3197809D02*
G01*
X2312060Y-3198215D01*
X2307183Y-3199079D01*
X2302357Y-3200400D01*
X2297734Y-3202228D01*
X2293315Y-3204514D01*
X2289098Y-3207207D01*
X2285238Y-3210306D01*
X2281631Y-3213811D01*
X2278430Y-3217621D01*
X2275636Y-3221736D01*
X2273249Y-3226104D01*
X2271318Y-3230676D01*
X2269845Y-3235452D01*
X2268880Y-3240328D01*
X2268372Y-3245307D01*
X2268321Y-3307791D01*
X2268524Y-3312769D01*
X2269286Y-3317697D01*
X2270506Y-3322523D01*
X2272233Y-3327196D01*
X2274366Y-3331718D01*
X2277008Y-3335985D01*
X2280005Y-3339947D01*
X2283409Y-3343605D01*
X2287117Y-3346907D01*
X2291181Y-3349802D01*
X2295499Y-3352292D01*
X2300020Y-3354324D01*
X2304745Y-3355949D01*
X2309622Y-3357016D01*
X2314549Y-3357676D01*
X2319528Y-3357778D01*
X2324506Y-3357422D01*
X2329434Y-3356559D01*
X2334209Y-3355187D01*
X2338882Y-3353358D01*
X2343302Y-3351123D01*
X2347468Y-3348380D01*
X2351379Y-3345281D01*
X2354935Y-3341827D01*
X2358136Y-3337966D01*
X2360980Y-3333851D01*
X2363368Y-3329482D01*
X2365298Y-3324910D01*
X2366772Y-3320135D01*
X2367737Y-3315258D01*
X2368245Y-3310280D01*
X2368296Y-3247796D01*
X2368042Y-3242818D01*
X2367330Y-3237890D01*
X2366060Y-3233064D01*
X2364384Y-3228390D01*
X2362200Y-3223869D01*
X2359609Y-3219653D01*
X2356612Y-3215640D01*
X2353208Y-3211982D01*
X2349449Y-3208731D01*
X2345436Y-3205784D01*
X2341118Y-3203295D01*
X2336546Y-3201263D01*
X2331821Y-3199688D01*
X2326995Y-3198571D01*
X2322017Y-3197961D01*
G37*
G36*
X1338072Y-3497834D02*
G01*
X1333093Y-3498189D01*
X1328166Y-3499053D01*
X1323390Y-3500424D01*
X1318717Y-3502202D01*
X1314297Y-3504488D01*
X1310132Y-3507232D01*
X1306220Y-3510330D01*
X1302664Y-3513785D01*
X1299464Y-3517595D01*
X1296619Y-3521710D01*
X1294231Y-3526129D01*
X1292301Y-3530701D01*
X1290828Y-3535476D01*
X1289862Y-3540353D01*
X1289354Y-3545332D01*
X1289304Y-3607815D01*
X1289558Y-3612794D01*
X1290269Y-3617722D01*
X1291539Y-3622548D01*
X1293215Y-3627221D01*
X1295400Y-3631742D01*
X1297990Y-3635959D01*
X1300988Y-3639921D01*
X1304391Y-3643579D01*
X1308150Y-3646881D01*
X1312164Y-3649827D01*
X1316482Y-3652316D01*
X1321054Y-3654348D01*
X1325778Y-3655923D01*
X1330604Y-3657041D01*
X1335582Y-3657650D01*
X1340561Y-3657803D01*
X1345539Y-3657396D01*
X1350416Y-3656533D01*
X1355242Y-3655212D01*
X1359865Y-3653383D01*
X1364284Y-3651097D01*
X1368501Y-3648405D01*
X1372362Y-3645306D01*
X1375968Y-3641801D01*
X1379169Y-3637991D01*
X1381963Y-3633876D01*
X1384350Y-3629507D01*
X1386281Y-3624884D01*
X1387754Y-3620160D01*
X1388770Y-3615232D01*
X1389227Y-3610305D01*
X1389329Y-3547821D01*
X1389075Y-3542842D01*
X1388313Y-3537915D01*
X1387094Y-3533089D01*
X1385366Y-3528364D01*
X1383233Y-3523894D01*
X1380591Y-3519627D01*
X1377594Y-3515664D01*
X1374241Y-3512007D01*
X1370482Y-3508705D01*
X1366418Y-3505809D01*
X1362100Y-3503320D01*
X1357579Y-3501237D01*
X1352854Y-3499662D01*
X1347978Y-3498545D01*
X1343050Y-3497935D01*
G37*
G36*
X2317038Y-3497834D02*
G01*
X2312060Y-3498189D01*
X2307183Y-3499053D01*
X2302357Y-3500424D01*
X2297734Y-3502202D01*
X2293315Y-3504488D01*
X2289098Y-3507232D01*
X2285238Y-3510330D01*
X2281631Y-3513785D01*
X2278430Y-3517595D01*
X2275636Y-3521710D01*
X2273249Y-3526129D01*
X2271318Y-3530701D01*
X2269845Y-3535476D01*
X2268880Y-3540353D01*
X2268372Y-3545332D01*
X2268321Y-3607815D01*
X2268524Y-3612794D01*
X2269286Y-3617722D01*
X2270506Y-3622548D01*
X2272233Y-3627221D01*
X2274366Y-3631742D01*
X2277008Y-3635959D01*
X2280005Y-3639921D01*
X2283409Y-3643579D01*
X2287117Y-3646881D01*
X2291181Y-3649827D01*
X2295499Y-3652316D01*
X2300020Y-3654348D01*
X2304745Y-3655923D01*
X2309622Y-3657041D01*
X2314549Y-3657650D01*
X2319528Y-3657803D01*
X2324506Y-3657396D01*
X2329434Y-3656533D01*
X2334209Y-3655212D01*
X2338882Y-3653383D01*
X2343302Y-3651097D01*
X2347468Y-3648405D01*
X2351379Y-3645306D01*
X2354935Y-3641801D01*
X2358136Y-3637991D01*
X2360980Y-3633876D01*
X2363368Y-3629507D01*
X2365298Y-3624884D01*
X2366772Y-3620160D01*
X2367737Y-3615232D01*
X2368245Y-3610305D01*
X2368296Y-3547821D01*
X2368042Y-3542842D01*
X2367330Y-3537915D01*
X2366060Y-3533089D01*
X2364384Y-3528364D01*
X2362200Y-3523894D01*
X2359609Y-3519627D01*
X2356612Y-3515664D01*
X2353208Y-3512007D01*
X2349449Y-3508705D01*
X2345436Y-3505809D01*
X2341118Y-3503320D01*
X2336546Y-3501237D01*
X2331821Y-3499662D01*
X2326995Y-3498545D01*
X2322017Y-3497935D01*
G37*
G36*
X2126284Y-3052826D02*
G01*
X2126284Y-3202787D01*
X2176322Y-3202787D01*
X2176322Y-3052826D01*
G37*
G36*
X2048814Y-3052826D02*
G01*
X2048814Y-3202787D01*
X2098802Y-3202787D01*
X2098802Y-3052826D01*
G37*
G36*
X1989785Y-3052826D02*
G01*
X1989785Y-3202787D01*
X2017775Y-3202787D01*
X2017775Y-3052826D01*
G37*
G36*
X1939798Y-3052826D02*
G01*
X1939798Y-3202787D01*
X1967788Y-3202787D01*
X1967788Y-3052826D01*
G37*
G36*
X1889810Y-3052826D02*
G01*
X1889810Y-3202787D01*
X1917801Y-3202787D01*
X1917801Y-3052826D01*
G37*
G36*
X1839823Y-3052826D02*
G01*
X1839823Y-3202787D01*
X1867814Y-3202787D01*
X1867814Y-3052826D01*
G37*
G36*
X1789785Y-3052826D02*
G01*
X1789785Y-3202787D01*
X1817776Y-3202787D01*
X1817776Y-3052826D01*
G37*
G36*
X1739798Y-3052826D02*
G01*
X1739798Y-3202787D01*
X1767839Y-3202787D01*
X1767839Y-3052826D01*
G37*
G36*
X1688795Y-3052826D02*
G01*
X1688795Y-3202787D01*
X1716836Y-3202787D01*
X1716836Y-3052826D01*
G37*
G36*
X1639824Y-3052826D02*
G01*
X1639824Y-3202787D01*
X1667814Y-3202787D01*
X1667814Y-3052826D01*
G37*
G36*
X1558798Y-3052826D02*
G01*
X1558798Y-3202787D01*
X1608836Y-3202787D01*
X1608836Y-3052826D01*
G37*
G36*
X1481277Y-3052826D02*
G01*
X1481277Y-3202787D01*
X1531315Y-3202787D01*
X1531315Y-3052826D01*
G37*
G36*
X1661820Y-2803093D02*
G01*
X1656791Y-2808122D01*
X1656791Y-2888081D01*
X1661820Y-2893110D01*
X1741779Y-2893110D01*
X1746808Y-2888081D01*
X1746808Y-2808122D01*
X1741779Y-2803093D01*
X1719021Y-2803093D01*
X1719021Y-2840126D01*
X1686001Y-2840126D01*
X1686001Y-2803093D01*
G37*
G36*
X1661820Y-2644089D02*
G01*
X1656791Y-2649118D01*
X1656791Y-2728112D01*
X1661820Y-2733090D01*
X1686001Y-2733090D01*
X1686001Y-2695092D01*
X1719021Y-2695092D01*
X1719021Y-2733090D01*
X1741779Y-2733090D01*
X1746808Y-2728112D01*
X1746808Y-2649118D01*
X1741779Y-2644089D01*
G37*
G36*
X1966620Y-2803093D02*
G01*
X1961591Y-2808122D01*
X1961591Y-2888081D01*
X1966620Y-2893110D01*
X2046579Y-2893110D01*
X2051608Y-2888081D01*
X2051608Y-2808122D01*
X2046579Y-2803093D01*
X2023821Y-2803093D01*
X2023821Y-2840126D01*
X1990801Y-2840126D01*
X1990801Y-2803093D01*
G37*
G36*
X1966620Y-2644089D02*
G01*
X1961591Y-2649118D01*
X1961591Y-2728112D01*
X1966620Y-2733090D01*
X1990801Y-2733090D01*
X1990801Y-2695092D01*
X2023821Y-2695092D01*
X2023821Y-2733090D01*
X2046579Y-2733090D01*
X2051608Y-2728112D01*
X2051608Y-2649118D01*
X2046579Y-2644089D01*
G37*
G36*
X4074820Y994206D02*
G01*
X4069791Y989177D01*
X4069791Y909218D01*
X4074820Y904189D01*
X4154779Y904189D01*
X4159808Y909218D01*
X4159808Y989177D01*
X4154779Y994206D01*
X4132021Y994206D01*
X4132021Y957173D01*
X4099001Y957173D01*
X4099001Y994206D01*
G37*
G36*
X4074820Y1153210D02*
G01*
X4069791Y1148181D01*
X4069791Y1069187D01*
X4074820Y1064209D01*
X4099001Y1064209D01*
X4099001Y1102207D01*
X4132021Y1102207D01*
X4132021Y1064209D01*
X4154779Y1064209D01*
X4159808Y1069187D01*
X4159808Y1148181D01*
X4154779Y1153210D01*
G37*
D13*
X1244600Y-584812D02*
G01*
X1244600Y-492810D01*
X1117600Y-584812D02*
G01*
X1117600Y-492810D01*
X990600Y-584812D02*
G01*
X990600Y-492810D01*
X863600Y-584812D02*
G01*
X863600Y-492810D01*
X1244600Y-1132789D02*
G01*
X1244600Y-1040790D01*
X1117600Y-1132789D02*
G01*
X1117600Y-1040790D01*
X990600Y-1132789D02*
G01*
X990600Y-1040790D01*
X863600Y-1132789D02*
G01*
X863600Y-1040790D01*
X1562100Y-1621480D02*
G01*
X1562100Y-1741479D01*
X1689100Y-1621480D02*
G01*
X1689100Y-1741479D01*
X1816100Y-1621480D02*
G01*
X1816100Y-1741479D01*
X1943100Y-1621480D02*
G01*
X1943100Y-1741479D01*
X2070100Y-1621480D02*
G01*
X2070100Y-1741479D01*
X2197100Y-1621480D02*
G01*
X2197100Y-1741479D01*
X2324100Y-1621480D02*
G01*
X2324100Y-1741479D01*
X2451100Y-1621480D02*
G01*
X2451100Y-1741479D01*
X1562100Y-1027120D02*
G01*
X1562100Y-1147119D01*
X1689100Y-1027120D02*
G01*
X1689100Y-1147119D01*
X1816100Y-1027120D02*
G01*
X1816100Y-1147119D01*
X1943100Y-1027120D02*
G01*
X1943100Y-1147119D01*
X2070100Y-1027120D02*
G01*
X2070100Y-1147119D01*
X2197100Y-1027120D02*
G01*
X2197100Y-1147119D01*
X2324100Y-1027120D02*
G01*
X2324100Y-1147119D01*
X2451100Y-1027120D02*
G01*
X2451100Y-1147119D01*
G36*
X1852305Y172001D02*
G01*
X1932304Y172001D01*
X1932304Y81998D01*
X1852305Y81998D01*
G37*
G36*
X2030087Y171998D02*
G01*
X2110087Y171998D01*
X2110087Y82001D01*
X2030087Y82001D01*
G37*
G36*
X1852305Y337101D02*
G01*
X1932304Y337101D01*
X1932304Y247098D01*
X1852305Y247098D01*
G37*
G36*
X2030087Y337098D02*
G01*
X2110087Y337098D01*
X2110087Y247101D01*
X2030087Y247101D01*
G37*
D19*
G01*
X254000Y-1587500D03*
G01*
X254000Y-2095500D03*
D20*
G01*
X2298700Y-673100D03*
G01*
X2298700Y-850900D03*
G01*
X2654300Y-673100D03*
G01*
X2654300Y-850900D03*
G36*
X-139999Y39999D02*
G01*
X139999Y39999D01*
X139999Y-39999D01*
X-139999Y-39999D01*
G37*
G36*
X368000Y39999D02*
G01*
X647999Y39999D01*
X647999Y-39999D01*
X368000Y-39999D01*
G37*
G01*
X2476500Y-673100D03*
G01*
X2476500Y-850900D03*
D18*
G01*
X3352800Y127000D03*
G01*
X3175025Y127000D03*
G01*
X3352800Y-50800D03*
G01*
X3175025Y-50800D03*
D20*
G01*
X2654300Y-469900D03*
G01*
X2654300Y-292125D03*
G01*
X2476500Y-469900D03*
G01*
X2476500Y-292125D03*
G36*
X766792Y-103200D02*
G01*
X946792Y-103200D01*
X946792Y-303199D01*
X766792Y-303199D01*
G37*
G36*
X1186807Y-103200D02*
G01*
X1366807Y-103200D01*
X1366807Y-303199D01*
X1186807Y-303199D01*
G37*
D22*
G01*
X1276807Y-1422400D03*
G01*
X856792Y-1422400D03*
D23*
G01*
X1689100Y-756107D03*
G01*
X1689100Y-336092D03*
G36*
X766798Y277789D02*
G01*
X946797Y277789D01*
X946797Y77790D01*
X766798Y77790D01*
G37*
G36*
X1186812Y277789D02*
G01*
X1366812Y277789D01*
X1366812Y77790D01*
X1186812Y77790D01*
G37*
D24*
G01*
X1092200Y-1910079D03*
G01*
X1092200Y-2230094D03*
D25*
G01*
X254000Y-1257096D03*
G01*
X254000Y-597103D03*
D26*
G01*
X440588Y2870200D03*
G01*
X270586Y2870200D03*
G01*
X440588Y2616200D03*
G01*
X270586Y2616200D03*
G01*
X440588Y2362200D03*
G01*
X270586Y2362200D03*
G01*
X440588Y2108200D03*
G01*
X270586Y2108200D03*
G01*
X440588Y1854200D03*
G01*
X270586Y1854200D03*
G01*
X440588Y584200D03*
G01*
X270586Y584200D03*
G01*
X440588Y838200D03*
G01*
X270586Y838200D03*
G01*
X440588Y1092200D03*
G01*
X270586Y1092200D03*
D20*
G01*
X-533400Y-1905000D03*
G01*
X-533400Y-2082800D03*
G36*
X874405Y-2761698D02*
G01*
X954404Y-2761698D01*
X954404Y-2851701D01*
X874405Y-2851701D01*
G37*
G36*
X1052187Y-2761701D02*
G01*
X1132187Y-2761701D01*
X1132187Y-2851698D01*
X1052187Y-2851698D01*
G37*
D26*
G01*
X440588Y1346200D03*
G01*
X270586Y1346200D03*
G01*
X440588Y1600200D03*
G01*
X270586Y1600200D03*
G36*
X1674505Y553001D02*
G01*
X1754504Y553001D01*
X1754504Y462998D01*
X1674505Y462998D01*
G37*
G36*
X1852287Y552998D02*
G01*
X1932287Y552998D01*
X1932287Y463001D01*
X1852287Y463001D01*
G37*
D18*
G01*
X4546600Y2324100D03*
G01*
X4368825Y2324100D03*
G01*
X4368825Y2120900D03*
G01*
X4546600Y2120900D03*
D27*
G01*
X3134868Y-1625600D03*
G01*
X2884931Y-1720595D03*
G01*
X2884931Y-1530604D03*
G01*
X3134868Y-2324100D03*
G01*
X2884931Y-2419095D03*
G01*
X2884931Y-2229104D03*
G36*
X-84292Y2925201D02*
G01*
X15707Y2925201D01*
X15707Y2815198D01*
X-84292Y2815198D01*
G37*
G36*
X-244292Y2925201D02*
G01*
X-144292Y2925201D01*
X-144292Y2815198D01*
X-244292Y2815198D01*
G37*
G36*
X-84292Y2671201D02*
G01*
X15707Y2671201D01*
X15707Y2561198D01*
X-84292Y2561198D01*
G37*
G36*
X-244292Y2671201D02*
G01*
X-144292Y2671201D01*
X-144292Y2561198D01*
X-244292Y2561198D01*
G37*
G36*
X-84292Y2417201D02*
G01*
X15707Y2417201D01*
X15707Y2307198D01*
X-84292Y2307198D01*
G37*
G36*
X-244292Y2417201D02*
G01*
X-144292Y2417201D01*
X-144292Y2307198D01*
X-244292Y2307198D01*
G37*
G36*
X-84292Y2163201D02*
G01*
X15707Y2163201D01*
X15707Y2053198D01*
X-84292Y2053198D01*
G37*
G36*
X-244292Y2163201D02*
G01*
X-144292Y2163201D01*
X-144292Y2053198D01*
X-244292Y2053198D01*
G37*
G36*
X-84292Y1909201D02*
G01*
X15707Y1909201D01*
X15707Y1799198D01*
X-84292Y1799198D01*
G37*
G36*
X-244292Y1909201D02*
G01*
X-144292Y1909201D01*
X-144292Y1799198D01*
X-244292Y1799198D01*
G37*
G36*
X-84292Y639201D02*
G01*
X15707Y639201D01*
X15707Y529198D01*
X-84292Y529198D01*
G37*
G36*
X-244292Y639201D02*
G01*
X-144292Y639201D01*
X-144292Y529198D01*
X-244292Y529198D01*
G37*
G36*
X-84292Y893201D02*
G01*
X15707Y893201D01*
X15707Y783198D01*
X-84292Y783198D01*
G37*
G36*
X-244292Y893201D02*
G01*
X-144292Y893201D01*
X-144292Y783198D01*
X-244292Y783198D01*
G37*
G36*
X-84292Y1147201D02*
G01*
X15707Y1147201D01*
X15707Y1037198D01*
X-84292Y1037198D01*
G37*
G36*
X-244292Y1147201D02*
G01*
X-144292Y1147201D01*
X-144292Y1037198D01*
X-244292Y1037198D01*
G37*
G36*
X-84292Y1401201D02*
G01*
X15707Y1401201D01*
X15707Y1291198D01*
X-84292Y1291198D01*
G37*
G36*
X-244292Y1401201D02*
G01*
X-144292Y1401201D01*
X-144292Y1291198D01*
X-244292Y1291198D01*
G37*
G36*
X-84292Y1655201D02*
G01*
X15707Y1655201D01*
X15707Y1545198D01*
X-84292Y1545198D01*
G37*
G36*
X-244292Y1655201D02*
G01*
X-144292Y1655201D01*
X-144292Y1545198D01*
X-244292Y1545198D01*
G37*
D20*
G01*
X2654300Y-2032000D03*
G01*
X2654300Y-2209800D03*
G01*
X2654300Y-1714500D03*
G01*
X2654300Y-1536700D03*
D18*
G01*
X4724400Y2324100D03*
G01*
X4902200Y2324100D03*
G01*
X4724400Y2120900D03*
G01*
X4902200Y2120900D03*
G01*
X1714500Y698500D03*
G01*
X1892300Y698500D03*
D20*
G01*
X-342900Y-1905000D03*
G01*
X-342900Y-2082800D03*
D18*
G01*
X914400Y-2616200D03*
G01*
X1092200Y-2616200D03*
D29*
G01*
X3491407Y-1505610D03*
G01*
X3671392Y-1505610D03*
D30*
G01*
X3491407Y-1585595D03*
G01*
X3671392Y-1585595D03*
G01*
X3491407Y-1665604D03*
G01*
X3671392Y-1665604D03*
D29*
G01*
X3491407Y-1745589D03*
G01*
X3671392Y-1745589D03*
G01*
X3491407Y-2204110D03*
G01*
X3671392Y-2204110D03*
D30*
G01*
X3491407Y-2284095D03*
G01*
X3671392Y-2284095D03*
G01*
X3491407Y-2364104D03*
G01*
X3671392Y-2364104D03*
D29*
G01*
X3491407Y-2444089D03*
G01*
X3671392Y-2444089D03*
D31*
G01*
X3809974Y2324455D03*
G01*
X3809949Y2124455D03*
G01*
X3809974Y1924456D03*
G01*
X3809898Y1724456D03*
G01*
X3809974Y1524457D03*
G01*
X3810050Y1324457D03*
G01*
X3809923Y1124457D03*
G01*
X3809771Y924458D03*
D32*
G01*
X3509594Y774369D03*
G01*
X3309594Y774445D03*
G01*
X3109671Y774445D03*
G01*
X2909595Y774445D03*
G01*
X2709722Y774496D03*
G01*
X2509900Y774344D03*
G36*
X2109825Y974468D02*
G01*
X2309825Y974468D01*
X2309825Y874468D01*
X2109825Y874468D01*
G37*
G36*
X2109749Y1174468D02*
G01*
X2309749Y1174468D01*
X2309749Y1074468D01*
X2109749Y1074468D01*
G37*
G36*
X2109749Y1374467D02*
G01*
X2309749Y1374467D01*
X2309749Y1274467D01*
X2109749Y1274467D01*
G37*
G36*
X2109749Y1574469D02*
G01*
X2309749Y1574469D01*
X2309749Y1474470D01*
X2109749Y1474470D01*
G37*
G36*
X2109749Y1774469D02*
G01*
X2309749Y1774469D01*
X2309749Y1674469D01*
X2109749Y1674469D01*
G37*
G36*
X2109749Y1974469D02*
G01*
X2309749Y1974469D01*
X2309749Y1874469D01*
X2109749Y1874469D01*
G37*
G36*
X2109749Y2174468D02*
G01*
X2309749Y2174468D01*
X2309749Y2074468D01*
X2109749Y2074468D01*
G37*
G36*
X2109749Y2374468D02*
G01*
X2309749Y2374468D01*
X2309749Y2274468D01*
X2109749Y2274468D01*
G37*
D33*
G01*
X3379470Y-287020D03*
G01*
X3148329Y-287020D03*
G01*
X2919729Y-287020D03*
D34*
G01*
X3148329Y-906779D03*
M02*
