G04 Layer: BottomSolderMaskLayer*
G04 EasyEDA v6.4.19.4, 2021-06-08T16:32:54+08:00*
G04 a09ed18009a84ab5a87bbd9c58a990bc,2444bf6f38dc4a26b464d521983d9d6f,10*
G04 Gerber Generator version 0.2*
G04 Scale: 100 percent, Rotated: No, Reflected: No *
G04 Dimensions in millimeters *
G04 leading zeros omitted , absolute positions ,4 integer and 5 decimal *
%FSLAX45Y45*%
%MOMM*%

%ADD48C,1.1016*%
%ADD49C,1.6016*%
%ADD50C,0.8032*%
%ADD62C,1.6764*%
%ADD63C,5.7032*%
%ADD64C,2.1016*%
%ADD68C,1.7780*%

%LPD*%
D48*
X2318308Y-3547793D02*
G01*
X2318308Y-3607793D01*
X1339316Y-3547793D02*
G01*
X1339316Y-3607793D01*
X2318308Y-3247793D02*
G01*
X2318308Y-3307793D01*
X1339316Y-3247793D02*
G01*
X1339316Y-3307793D01*
D49*
X164396Y-3081299D02*
G01*
X-85603Y-3081299D01*
X164396Y-2481300D02*
G01*
X-85603Y-2481300D01*
X519404Y-2606286D02*
G01*
X519404Y-2856288D01*
G36*
X4208779Y68579D02*
G01*
X4208779Y236220D01*
X4376420Y236220D01*
X4376420Y68579D01*
G37*
D62*
G01*
X4292600Y-101600D03*
G01*
X4292600Y-355600D03*
G01*
X4292600Y-609600D03*
G36*
X-795020Y68579D02*
G01*
X-795020Y236220D01*
X-627379Y236220D01*
X-627379Y68579D01*
G37*
G01*
X-711200Y-101600D03*
G01*
X-711200Y-355600D03*
G01*
X-711200Y-609600D03*
G01*
X-711200Y584200D03*
G01*
X-711200Y838200D03*
G01*
X-711200Y1092200D03*
G01*
X-711200Y1346200D03*
G01*
X-711200Y1600200D03*
G01*
X-711200Y1854200D03*
G01*
X-711200Y2108200D03*
G01*
X-711200Y2362200D03*
G01*
X-711200Y2616200D03*
G36*
X-795020Y2786379D02*
G01*
X-795020Y2954020D01*
X-627379Y2954020D01*
X-627379Y2786379D01*
G37*
D63*
G01*
X-1346200Y-3441700D03*
D50*
G01*
X-1346200Y-3229203D03*
G01*
X-1346200Y-3654196D03*
G01*
X-1133703Y-3441700D03*
G01*
X-1558696Y-3441700D03*
G01*
X-1196187Y-3291712D03*
G01*
X-1496187Y-3591712D03*
G01*
X-1196187Y-3591712D03*
G01*
X-1496187Y-3291712D03*
D63*
G01*
X-1346200Y2781300D03*
D50*
G01*
X-1346200Y2993796D03*
G01*
X-1346200Y2568803D03*
G01*
X-1133703Y2781300D03*
G01*
X-1558696Y2781300D03*
G01*
X-1196187Y2931287D03*
G01*
X-1496187Y2631287D03*
G01*
X-1196187Y2631287D03*
G01*
X-1496187Y2931287D03*
D63*
G01*
X4876800Y2781300D03*
D50*
G01*
X4876800Y2993796D03*
G01*
X4876800Y2568803D03*
G01*
X5089296Y2781300D03*
G01*
X4664303Y2781300D03*
G01*
X5026812Y2931287D03*
G01*
X4726813Y2631287D03*
G01*
X5026812Y2631287D03*
G01*
X4726813Y2931287D03*
D63*
G01*
X4889500Y-3441700D03*
D50*
G01*
X4889500Y-3229203D03*
G01*
X4889500Y-3654196D03*
G01*
X5101996Y-3441700D03*
G01*
X4677003Y-3441700D03*
G01*
X5039512Y-3291712D03*
G01*
X4739513Y-3591712D03*
G01*
X5039512Y-3591712D03*
G01*
X4739513Y-3291712D03*
D64*
G01*
X4234306Y-1400606D03*
G01*
X4884293Y-1400606D03*
G01*
X4884293Y-1850593D03*
G01*
X4234306Y-1850593D03*
G01*
X4884293Y-2574493D03*
G01*
X4234306Y-2574493D03*
G01*
X4234306Y-2124506D03*
G01*
X4884293Y-2124506D03*
G36*
X1422400Y-2209800D02*
G01*
X1422400Y-2032000D01*
X1600200Y-2032000D01*
X1600200Y-2209800D01*
G37*
D68*
G01*
X1765300Y-2120900D03*
M02*
